<svg id="Layer_8" data-name="Layer 8" xmlns="http://www.w3.org/2000/svg" viewBox="0 0 110 83"><defs><style>.cls-1{fill:#231f20;}</style></defs><title>ambulance</title><path class="cls-1" d="M65.31,0H55.86a2.58,2.58,0,0,0-2.58,2.57v8.16c3.44-.14,11.17-.25,14.61-.34V2.57A2.58,2.58,0,0,0,65.31,0Z"/><path class="cls-1" d="M21.05,57.35A12.83,12.83,0,1,0,33.95,70.17,12.86,12.86,0,0,0,21.05,57.35Zm0,18a5.13,5.13,0,1,1,5.16-5.13A5.14,5.14,0,0,1,21.05,75.3Z"/><path class="cls-1" d="M88.94,57.35a12.83,12.83,0,1,0,12.89,12.83A12.86,12.86,0,0,0,88.94,57.35Zm0,18a5.13,5.13,0,1,1,5.16-5.13A5.14,5.14,0,0,1,88.94,75.3Z"/><path class="cls-1" d="M69.61,21v6h-6v6h6v6h6V33h6v-6l-6,0V21h-6ZM31.37,22.26c-2.33,5.12-5.13,10.2-7.31,15.39h23.2a1.29,1.29,0,0,0,1.29-1.28V23.54a1.29,1.29,0,0,0-1.29-1.28ZM0,67.55V53.09H2.15a3.44,3.44,0,0,0,3.44-3.42V47.91H0c0-3.56.33-5.15,6-7.08,6-2,6.29-2.15,12.09-3.79,2.5-6.12,5.17-11.63,8-17.86a6,6,0,0,1,4.82-3.5c16.43-1.83,53.2-2.87,69.7-1.23A9.37,9.37,0,0,1,109,22.69a119.89,119.89,0,0,1,1,14.14l0,.83h-2.58a1.7,1.7,0,0,0-1.72,1.68V41a1.74,1.74,0,0,0,1.72,1.74H110V67.55c0,1.5-1.84,2.57-3.44,2.57h-.43a17.19,17.19,0,0,0-34.38,0H38.24a17.19,17.19,0,0,0-34.37,0H3.44C1.84,70.12,0,69,0,67.55Z"/></svg>