<svg id="Layer_2" data-name="Layer 2" xmlns="http://www.w3.org/2000/svg" viewBox="0 0 110 110"><defs><style>.cls-1{fill:#231f20;}</style></defs><title>bandage</title><path class="cls-1" d="M88.18,54.32l17.61,17.61a14.37,14.37,0,0,1,0,20.32L92.25,105.79a14.37,14.37,0,0,1-20.32,0L54.32,88.18l4.06-4.06L76,101.73a8.62,8.62,0,0,0,12.19,0l13.54-13.54a8.62,8.62,0,0,0,0-12.19L84.12,58.39ZM36.27,20a3.83,3.83,0,1,0,0,5.42A3.83,3.83,0,0,0,36.27,20ZM25.43,30.85a3.83,3.83,0,1,0,0,5.42A3.83,3.83,0,0,0,25.43,30.85ZM25.2,19.78a3.83,3.83,0,1,0,0,5.42A3.83,3.83,0,0,0,25.2,19.78ZM90,73.73a3.83,3.83,0,1,1-5.42,0A3.83,3.83,0,0,1,90,73.73ZM79.15,84.57a3.83,3.83,0,1,1-5.42,0A3.83,3.83,0,0,1,79.15,84.57Zm11.07.23a3.83,3.83,0,1,1-5.42,0A3.83,3.83,0,0,1,90.22,84.8Zm-86-46.73a14.37,14.37,0,0,1,0-20.32L17.75,4.21a14.37,14.37,0,0,1,20.32,0L55.68,21.82l-4.06,4.06L34,8.27a8.62,8.62,0,0,0-12.19,0L8.27,21.81A8.62,8.62,0,0,0,8.27,34L25.88,51.61l-4.06,4.06Z"/><path class="cls-1" d="M102.41,21.14,88.86,7.59a9.58,9.58,0,0,0-13.55,0L7.59,75.32a9.58,9.58,0,0,0,0,13.55l13.55,13.54a9.58,9.58,0,0,0,13.55,0l67.72-67.72A9.58,9.58,0,0,0,102.41,21.14ZM25.2,90.22a3.83,3.83,0,1,1,0-5.42A3.83,3.83,0,0,1,25.2,90.22Zm.23-11.07a3.83,3.83,0,1,1,0-5.42A3.83,3.83,0,0,1,25.43,79.15ZM36.27,90a3.83,3.83,0,1,1,0-5.42A3.83,3.83,0,0,1,36.27,90Zm9.93-9.93L29.94,63.8,34,59.74,50.26,76ZM76,50.26,59.74,34l4.06-4.06L80.06,46.2Zm3.15-24.83a3.83,3.83,0,1,1,0-5.42A3.83,3.83,0,0,1,79.15,25.43ZM90,36.27a3.83,3.83,0,1,1,0-5.42A3.83,3.83,0,0,1,90,36.27Zm.23-11.07a3.83,3.83,0,1,1,0-5.42A3.83,3.83,0,0,1,90.22,25.2Z"/></svg>