<svg id="Layer_5" data-name="Layer 5" xmlns="http://www.w3.org/2000/svg" viewBox="0 0 65 110"><defs><style>.cls-1{fill:#231f20;}</style></defs><title>child</title><path class="cls-1" d="M19.75,32.37c5.49,12.47,20.07,12.37,25.5,0C48,34.05,52.06,25.81,47,25.93c.77-7.46-3.75-15.15-11.75-16.57A7.44,7.44,0,0,1,31.18,6.6a3.71,3.71,0,0,1-.75-2.92,1.65,1.65,0,0,1,2.33-.89h0A1.1,1.1,0,0,1,33.22,4a1.29,1.29,0,0,0,.88,1.59c2,.58,2.49-3.14.16-4.83h0A3.71,3.71,0,0,0,32.11,0a4.47,4.47,0,0,0-2.45.73c-2.8,1.32-4.22,6.18-2.07,9.19-6.66,2.3-10.26,9.32-9.57,16C12.94,25.81,17,34.06,19.75,32.37ZM34.28,14.42c4.89.83,7.64,5.32,7.64,9.92a15.21,15.21,0,0,1-3.68,9.54,7.6,7.6,0,0,1-11.51,0,15.24,15.24,0,0,1-3.67-9.54C23.07,18,27.87,13.33,34.28,14.42Z" transform="translate(0 0)"/><path class="cls-1" d="M64.59,72.9C61,59.56,52.14,49.42,45.38,45.63c-1.45-.82-3.53-1.55-4.64-.79a14.42,14.42,0,0,1-16.47,0c-1.12-.76-3.19,0-4.64.79C12.86,49.42,4,59.56.41,72.9c-.51,1.86-.85,4.07.88,5.5,2.4,2,6.52,1.83,7.78-2,1.89-5.72,3.86-10.88,7.28-15.1a1.29,1.29,0,0,1,2.28,1c-1.71,13.8-1,37.44-1.11,38.22-.2,1.58,0,.58-4.79,2.63C10.58,104,9.08,110,15.32,110h7.31c2.93,0,5-.93,5.91-2.34,1.06-1.65,1-11.13,1-16.14,0-1.93.59-3,1.29-3h3.46c.7,0,1.29,1.07,1.29,3,0,5-.08,14.49,1,16.14.9,1.41,3,2.34,5.91,2.34h7.31c6.24,0,4.74-6,2.58-6.87-4.8-2.05-4.59-1.05-4.79-2.63-.1-.78.53-24.42-1.18-38.22a1.29,1.29,0,0,1,2.29-1c3.41,4.22,5.39,9.39,7.28,15.1,1.26,3.82,5.38,4,7.78,2C65.44,77,65.1,74.75,64.59,72.9ZM32.5,77.63a3.44,3.44,0,1,1,3.42-3.44A3.43,3.43,0,0,1,32.5,77.63Zm0-14.39a3.44,3.44,0,1,1,3.42-3.44A3.43,3.43,0,0,1,32.5,63.24Z" transform="translate(0 0)"/></svg>