<svg id="Layer_3" data-name="Layer 3" xmlns="http://www.w3.org/2000/svg" viewBox="0 0 110 110"><defs><style>.cls-1{fill:#231f20;}</style></defs><title>doctor</title><path class="cls-1" d="M46,66.71a26.31,26.31,0,0,0,3,5.59C50.81,75,52.91,77.52,55,80c2.1-2.52,4.2-5.07,6-7.74a26.32,26.32,0,0,0,3-5.59,27.25,27.25,0,0,1-9,1.43A27.24,27.24,0,0,1,46,66.71Zm32.18-9.29c.17-11.28.22-28.35-1.66-38.26C74.29,7.42,68.25,0,55.12,0S35.91,7.42,33.63,19.16C31.75,28.83,31.7,46,31.82,57.44c2.67-1.26,5.3-2.38,7.54-3.32.62-.26,8.3-3.18,10.72-4.11-4.58-3.32-8.91-11.77-9.93-16.88-.55.72-1,3.73-1.11,5.49A16.13,16.13,0,0,1,38.53,30c1.22-6.31,4.34-12.14,9.17-15.81,5.47,8.22,12.81,10.06,19.9,14.43-.42-1-.65-1.54-.68-1.58-5.87-7.2-9.57-9.11-11.93-12C63.75,18.37,68.92,22.74,71,31a34.36,34.36,0,0,1,.49,12c-.31-3.94-1.09-8-1.82-9.45C68.13,39.61,64.26,47.34,60.47,50L70.9,54.22C73.08,55.13,75.6,56.21,78.16,57.42Z"/><path class="cls-1" d="M19.59,69.64c2.32-3.24,8.24-6.54,14.34-9.38-3.19,9.14-2.23,21,1.18,29.61A4.51,4.51,0,1,0,38,88.5c-3.3-8.46-4.14-20.71-.19-29.32l.44-.86c1.53-.66,3-1.28,4.41-1.86.4-.17.58.28.45.54C38.66,66.2,46,74.53,53.68,83.81l-1.8,5.41L55,85.42h0L56.16,84c7.76-9.36,15.23-17.75,10.73-27-.13-.26,0-.71.45-.54,2.69,1.12,5.76,2.41,8.77,3.81a22.68,22.68,0,0,1-.43,9.31c-4.37-.27-8.44,2.32-9.92,7.37-2,6.84-8.76,17.55.21,19.57a1.61,1.61,0,0,0,.7-3.13c-2-.46-2.25-2.09-1.77-4.23.69-3.09,2.91-7.79,3.94-11.3,2.45-8.32,13.9-5.74,12.55,2.83-.58,3.66-.59,8.85-1.27,11.89-.48,2.14-1.38,3.52-3.41,3.06a1.61,1.61,0,0,0-.7,3.13c9,2,7.46-10.6,8.56-17.6C85.38,76,82.87,72,78.82,70.3a28.26,28.26,0,0,0,.75-8.35c4.76,2.42,9,5.07,10.86,7.69,3.3,4.6,4.85,31.21,5.76,40.36H13.81C14.67,101.34,16.36,74.15,19.59,69.64Z"/></svg>