<svg id="Layer_1" data-name="Layer 1" xmlns="http://www.w3.org/2000/svg" viewBox="0 0 183 234"><defs><style>.cls-1{fill:#231f20;}</style></defs><title>elderly</title><path class="cls-1" d="M122.76,97.82a10.06,10.06,0,0,1-10.22,17.32L81.8,97A10,10,0,0,1,78,92.87L67.08,74.94A114.88,114.88,0,0,0,55.8,97.36c-4.21,11.22-6.71,19.21-8.06,30.93l15,42.06A45.77,45.77,0,0,1,65.35,189l-2.23,34.9A10.07,10.07,0,0,1,53.06,234H48.78c-5.55,0-9.75-5.16-9.41-10.71l2.61-41L28.81,145.41l-1.95,1.38L31.44,172a45.77,45.77,0,0,1-.25,18l-7.52,35.4a10.08,10.08,0,0,1-10,8.58H10A9.93,9.93,0,0,1,8,233.76,10.06,10.06,0,0,1,.22,221.83L9,180.65,2.32,144c-4.79-26.4,4.46-52.3,17.48-75.2C28.37,53.74,39.17,42,51.53,34.08a13.13,13.13,0,0,1,5.8-2.48,10,10,0,0,1,9.78,4.77l27,44.52ZM109.33,2.63C98.71-3.21,85.13,1,79,12s-4.93,29.14,5.69,35,26.65-2.79,32.77-13.83S119.95,8.47,109.33,2.63ZM101.11,234l21.63-106a5.42,5.42,0,0,1,.83-2c1.79-3,3.51-6.06,5.22-9.15s3.27-5.91,5.62-9.78a5.48,5.48,0,0,1,7.37-1.92h0c6.84,3.88,12.91,8.63,17.34,14.6a36.82,36.82,0,0,1,7.41,22.54v48.62a22,22,0,1,1-11,0V171H125.12l-12.84,63Zm32.17-103-5.92,29h28.2V142.26a26.16,26.16,0,0,0-5.22-16,39.2,39.2,0,0,0-9.37-8.75c-.86,1.53-1.72,3.07-2.57,4.61C136.87,124.82,135.36,127.56,133.27,131Zm35.53,73.32a10.94,10.94,0,1,0,3.22,7.74A11,11,0,0,0,168.8,204.35Z"/></svg>