<svg id="Layer_1" data-name="Layer 1" xmlns="http://www.w3.org/2000/svg" viewBox="0 0 110 110"><defs><style>.cls-1{fill:#231f20;}</style></defs><title>globe</title><path class="cls-1" d="M55.87,21.77a51.75,51.75,0,0,0,10.2-1.34l-.34-.68A40.15,40.15,0,0,0,55.87,7.21ZM42.25,20.41a51.7,51.7,0,0,0,10.18,1.36V7.21a40.15,40.15,0,0,0-9.86,12.54ZM55.87,40.82H71a50.64,50.64,0,0,0-3.56-17.2,55,55,0,0,1-11.62,1.59ZM66.06,64.64a51.7,51.7,0,0,0-10.19-1.34V77.86A40.22,40.22,0,0,0,65.78,65.2ZM82,17.57A49.62,49.62,0,0,1,70.8,22.68a54.09,54.09,0,0,1,3.69,18.14h17A37.23,37.23,0,0,0,82,17.57ZM59.11,5.48A44.07,44.07,0,0,1,68.78,18.2q.33.65.65,1.32a46.52,46.52,0,0,0,10.06-4.46A37.25,37.25,0,0,0,59.11,5.48ZM28.85,15a46.51,46.51,0,0,0,10,4.47q.31-.65.64-1.28A44.07,44.07,0,0,1,49.2,5.48,37.26,37.26,0,0,0,28.85,15Zm-12,25.81h17a54.08,54.08,0,0,1,3.7-18.17,49.53,49.53,0,0,1-11.13-5.14A37.23,37.23,0,0,0,16.81,40.82ZM54.15,0a42.54,42.54,0,0,1,35.5,66l-7.23,1a37.23,37.23,0,0,0,9.08-22.75h-17A54.1,54.1,0,0,1,70.8,62.4a49.8,49.8,0,0,1,10.57,4.75l-.23,0a17.43,17.43,0,0,0-4.54,1.26,47.35,47.35,0,0,0-7.17-2.88q-.29.6-.59,1.2a44.05,44.05,0,0,1-9.73,12.84,37.3,37.3,0,0,0,4.32-.83l-4.55,3.91A9.13,9.13,0,0,0,56.94,85q-1.38.09-2.79.09A42.59,42.59,0,0,1,16.7,62.73c1.09.07,2.17.12,3.23.13s1.88,0,2.83,0a37.57,37.57,0,0,0,3.62,4.72,48.77,48.77,0,0,1,8-4A14.64,14.64,0,0,0,37.74,66a46.22,46.22,0,0,0-8.88,4.09,37.25,37.25,0,0,0,20.34,9.53,44.06,44.06,0,0,1-9.73-12.84l0,0a14.56,14.56,0,0,0,4.39.86,39.42,39.42,0,0,0,8.61,10.28V65.2a14.68,14.68,0,0,0,4.85-5.27,54.93,54.93,0,0,1,10.2,1.53,50.63,50.63,0,0,0,3.57-17.2H56.15a14.69,14.69,0,0,0-3.71-3.5V25.21a55.08,55.08,0,0,1-11.61-1.61,50.55,50.55,0,0,0-3.55,16.65,14.68,14.68,0,0,0-4.57,4H16.81A37.48,37.48,0,0,0,17.33,49,27.86,27.86,0,0,1,12,48.15a42.89,42.89,0,0,1-.37-5.61A42.54,42.54,0,0,1,54.15,0Z"/><path class="cls-1" d="M61.7,93.36l-.51-.58a4.83,4.83,0,0,1,.49-6.86L75,74.47a12.62,12.62,0,0,1,6.72-3l16.14-2.26A43,43,0,0,0,103,61.12a18,18,0,0,0,1.87-7.82,18.45,18.45,0,0,0-3.88-11,47.05,47.05,0,0,0-.76-8.19C106.55,39.4,109.92,46,110,53.26a23,23,0,0,1-2.34,10,48.71,48.71,0,0,1-5.95,9.35L99.41,89.11a12.61,12.61,0,0,1-3,6.72L84.92,108.31a4.83,4.83,0,0,1-6.86.49l-.58-.51a5.22,5.22,0,1,1,3.4-3.87l.34.3L92.47,92.48a7.91,7.91,0,0,0,1.23-1.9,11.48,11.48,0,0,0,.22-8.2,9.9,9.9,0,0,0-5.45-5.46,11.48,11.48,0,0,0-8.2.22,7.91,7.91,0,0,0-1.9,1.23L65.27,89.62l.3.34a5.21,5.21,0,1,1-3.87,3.41ZM96.25,74.6l-3.88.56a13.29,13.29,0,0,1,3.34,3.35Zm-62-17.1C23.76,59-.22,60.94,0,45.5c.07-4.56,2-9.31,8.48-13.36a46.84,46.84,0,0,0-1,7,7.45,7.45,0,0,0,1,11.8c6.21,3.68,17.88,2.54,24.81,1.53a11.15,11.15,0,1,1,.94,5.05Zm14.48-8.77A6,6,0,1,0,50.44,53,6,6,0,0,0,48.68,48.73Zm-4.25.82A3.44,3.44,0,1,1,41,53,3.44,3.44,0,0,1,44.43,49.54Z"/></svg>