<svg id="Layer_4" data-name="Layer 4" xmlns="http://www.w3.org/2000/svg" viewBox="0 0 110 105.85"><defs><style>.cls-1{fill:#231f20;}</style></defs><title>heart</title><path class="cls-1" d="M55,10.28c20-21.84,55-6.71,55,24.88,0,26.27-34.8,59.75-55,70.69-14.81-8-37.46-28.15-48.5-48.68h5.9a100.64,100.64,0,0,0,7.38,10.78c10.57,13.58,24.57,25.6,35.22,32,10.66-6.38,24.65-18.4,35.22-32,8.48-10.9,14.62-22.63,14.62-32.79,0-9.8-3.84-17.71-9.54-22.93A27.41,27.41,0,0,0,86.93,7a25.52,25.52,0,0,0-9.42-1.81,25.15,25.15,0,0,0-18.72,8.59q-.15.17-.32.32a5.13,5.13,0,0,1-7.25-.32A25.15,25.15,0,0,0,32.49,5.16,25.52,25.52,0,0,0,23.07,7a27.41,27.41,0,0,0-8.37,5.26C9,17.45,5.16,25.36,5.16,35.16A31.08,31.08,0,0,0,6.24,43H.94A35,35,0,0,1,0,35.16C0,3.57,35-11.56,55,10.28Z"/><path class="cls-1" d="M0,47.71H18.86L27,40.32a2.57,2.57,0,0,1,4.15,1.06h0L35.56,53.9,43.7,25.38a2.58,2.58,0,0,1,5,.3L57,61.85l6.88-25.36A2.58,2.58,0,0,1,68.66,36l6.82,11.7h7.1a5.16,5.16,0,1,1,.5,5.16H74a2.57,2.57,0,0,1-2.23-1.28l-4.55-7.81-8,29.37h0a2.57,2.57,0,0,1-5-.11L45.91,36.43,38.29,63.1h0a2.57,2.57,0,0,1-4.9.14L27.61,46.72,21.74,52a2.57,2.57,0,0,1-1.9.84H0Z"/></svg>