<?xml version="1.0" encoding="utf-8"?>
<!-- Generator: Adobe Illustrator 20.0.0, SVG Export Plug-In . SVG Version: 6.00 Build 0)  -->
<svg version="1.1" id="Layer_7" xmlns="http://www.w3.org/2000/svg" xmlns:xlink="http://www.w3.org/1999/xlink" x="0px" y="0px"
	 viewBox="0 0 110 110" style="enable-background:new 0 0 110 110;" xml:space="preserve">
<title>hospital</title>
<path d="M66.1,0H44h-0.1c-2.8,0-5,2.3-5,5.1v22.3c0,2.8,2.2,5,5,5.1h22.1c2.8,0,5-2.3,5-5.1V5.1C71.1,2.3,68.8,0,66.1,0z M67,20.2
	h-8v8.1h-8v-8.1h-8v-8.1h8V4h8v8.1h8V20.2z"/>
<path d="M104.8,43.5c0-1.4,1.2-2.6,2.6-2.6c1.4,0,2.6,1.2,2.6,2.6c0,0,0,0,0,0V110h-5.2V43.5z M9.5,110V83h90.9v27h-5.2V88.2H14.7
	V110H9.5z M76.7,69.9H55V58.5h-3.5v11.3h-3.5V58.5h-29c-5.3,0-9.5,4.3-9.5,9.6v10.5h90.9c0-4.5,0-9,0-13.4c0-0.7-0.6-1.3-1.3-1.3
	c-0.1,0-0.2,0-0.4,0L76.7,69.9z M0,62.4c0-1.4,1.2-2.6,2.6-2.6s2.6,1.2,2.6,2.6l0,0V110H0V62.4z"/>
<path d="M84.1,63.2L84,62.8c-1.4-5.3-6.9-8.5-12.2-7.1l-10.7,2.8h-2.8v7.8h13.9l0,0L84.1,63.2z"/>
<ellipse cx="92.2" cy="52.5" rx="8.2" ry="8.3"/>
</svg>
