<?xml version="1.0" encoding="utf-8"?>
<!-- Generator: Adobe Illustrator 19.2.1, SVG Export Plug-In . SVG Version: 6.00 Build 0)  -->
<svg version="1.1" id="Layer_1" xmlns="http://www.w3.org/2000/svg" xmlns:xlink="http://www.w3.org/1999/xlink" x="0px" y="0px"
	 viewBox="0 0 705.5 410.7" style="enable-background:new 0 0 705.5 410.7;" xml:space="preserve">
<style type="text/css">
	.st0{fill:#DEDFE0;stroke:#20262C;stroke-width:0.5;stroke-miterlimit:10;}
</style>
<title>HRR</title>
<path class="st0" d="M518.7,290.9l-0.6-0.8l-0.6-0.9l-1.1-1.1l-4,2.6l-3.4-0.2l0.4,4.1h-3.3l2.8,8.7l-1.7,2.7l-8.1,0.8l1.2-2.3
	l-1.6-2.3l-1.9,0.7l-3-1.3l-1.9,0.4l0.8-2.3l-1.6-1.8l2.2-1.8l-2.6-2.3l2.7-1.4l0.7,2.5l3.5,1.5l0.5-5.5l4.7-0.6l0.1,1.4l3-3.5
	l-6.3-1.4l1.8-1l-0.9-4.1l-1.5-1.1l0.9-0.7l-4-2.6l-0.2-2.8l-6,0.9l-1.5-1.4l0.3-1.9l3.3-0.1l0.3-2l-5.3-2l0.1-4.6l-2.3,0.6
	l-0.7-2.5l-0.3-3.8l1.8-0.1l3.4,1.6l1.6,2l5.9-1.5l0.7,3l2.8-0.2l0.6,1.5l3.2-0.3l1.6,1.7l2.3-0.6l0.3,2.7l3.2-0.2l1.7-1.8l-0.1-1.1
	l5.1-4.6l2.7-0.5l0.3,2.8l-3.5,6l1.7,2.7l4.6-0.4l0.5,4.1l-1,3.4l2.9,0.8l1,5.1l-2.8,0.3l0.7,1.7l5.3,0.5l0.2,2l-0.2,2.8v0.2
	l-1.2,2.3l-3.2,1.5l-2.2,1.2l-4.9-1.1l2.3-1.2l0.6-3.2l-2.8,0.5L518.7,290.9z M486,257.2l2.8-0.2l-0.3-3.4l6.2,2.9l3.7-0.3l0.3,3
	l-4.6,0.2l-3.1,1.6l-1.6-2L486,257.2z M517.7,290.2l0-0.5L517.7,290.2L517.7,290.2z M485.6,257.4L485.6,257.4z"/>
<path class="st0" d="M526.3,298.9l7,2.5l0.2,1.9l-2.9-0.4l0.2,1.5l1.4-0.1l1.2,2.4l1.9-0.2l0.3,2.5l2.4,0.1l0.3,2.7l-3.8,0.5
	l0.3,2.9l2.4-0.2v4.3l-1.6,3.2l-6.2,1.4l-0.9-3.4l-5.6,2l-4.8-4.2l-0.2-2.1l-3.3,0.7l1.6-3L516,311l1.7-2.7l5.2-0.6l1.2-6.2l2.3-0.6
	L526.3,298.9z M530.8,304.3l1.4-0.1L530.8,304.3z"/>
<path class="st0" d="M496.4,259.5l2.3-0.4l-0.3-3l4.1-0.2l-1.5-1.4l3.6-5.5l3.4,1.8l1.8,4.3l3.2-0.3l2.2,3.3l0.2,1.5l-3.7,3.9
	l1.1,1.8l-1.7,1.8l-3.2,0.2l-0.3-2.7l-2.3,0.6l-1.6-1.7l-3.2,0.3l-0.6-1.5l-2.8,0.2L496.4,259.5z M517.1,258.5l0.6,1.1l-5,4.7
	l3.1-5.6L517.1,258.5z M515.7,258.5l0.8-1.4L515.7,258.5z"/>
<path class="st0" d="M501.3,330.2l-1.8,1.6l-3.6-2.1l-0.8-4h-1.5l-0.5,5.5l-3-0.8l-2.4,1.3l-4.5-1.5l-0.8-3.7l0.4-7l1.9-0.1
	l-0.2-2.8l2.9-0.2l-1-6.4l5.3-0.4l-1.6-1.6l1.8-2l-1.1-2.2l1.3-1.7l1.9-0.4l3,1.3l1.9-0.7l1.6,2.3l-1.2,2.3l8.1-0.8l-3.1,3.2
	l1.7,2.9l-2.7,1.3l0.7,1.9l-5.2,0.9l0.6,6.5l3.1,2.1l-1.3,1.6L501.3,330.2z M501.4,331.1L501.4,331.1z"/>
<path class="st0" d="M506,312.1l-1.7-2.9l3.1-3.2l1.7-2.7l-2.8-8.7h3.3l-0.4-4.1l3.4,0.2l4-2.6l1.1,1.1l0,0.5l0,0.5l0,0h0.5l0.6,0.8
	v0.3l2.8-0.5l-0.6,3.2l-2.2,1.2l4.9,1.1l2.2-1.2l0.4,3.9l0.2,2.1l-2.3,0.6l-1.2,6.2l-5.2,0.6L516,311l-0.1-1.4l-5.7,1l0.8,2.7
	l-2.2,1.5L506,312.1z"/>
<path class="st0" d="M490.9,293.7l-0.9,0.1l-1.4,0.1l-1.7-3.7v-5.7l-0.2-2.8l2,1l0.1-4.8l-1.8,0.9l0.1-4.9h1.4l1.5,1.4l6-0.9
	l0.2,2.8l4,2.6l-0.9,0.7l1.5,1.1l0.9,4.1l-1.8,1l6.3,1.4l-3,3.5l-0.1-1.4l-4.7,0.6l-0.4,5.5l-3.5-1.5l-0.7-2.6L490.9,293.7z"/>
<path class="st0" d="M184,284l-1.9-3.1l0.8-1.7l0.3-4.5L181,273l-3.2-0.5l-0.3-3.9l4.3-0.4l1.3,1l6.9,1.1l0.4,3.4l-3.7,2.4l3.6,4.5
	l-0.8,4.9L184,284z"/>
<path class="st0" d="M184,284l0.8,0.9l-12.2-2l2-11.7l-1.1-2l-6.2,0.1l0.2,1.8l-0.7,3.9l-1.6-2l-2.3-0.6l-4,0.9l-2.6,14.3
	l-17.8-10.9l2.1-3.3l-6.1-0.7l-1.6-1.5l2.5-2.9l-2.3-5.1l-3.1-3.5l12.4,2.5l1.6-3.3l2.5-0.6l0.2-3.6l1.3-1.8l0.6-3.3l2.4-0.2l-1-2.1
	l-0.1-4.3l6.6-0.7l3.9,2l0.1-3.4l-3.8-2l-4.1-0.6l-1.3-2.7l-1.3-0.4l-0.6-4.2l1.2-6.1l-0.1-4.4l5,0.2l2.3,2.4l1.9-2.5l2.6,3.2
	l0.8,3.3l2.9,2l1.5-0.7l0.8-4.5l3.5-1.6h4.1l4.4,1.4l0.6,1.6l4.6,2.5l1.1-1.2l0.1-3.3l2-3.8l-3.2-2.7l1.2-4.2l7.5,1.2l2.2,0.4
	l0.9,0.1l0,0l17.3,2.6l0.5,5.7l-4.1,3l-4.4-0.8l-2.4,4l-2.4,0.6l7.2,3.8l-0.6,4.3l2.3,0.3l-1.9,13.1l8.6,1.4l1.5-0.6l-2.4,17.1
	l-3.7-0.5l-2.6,1.6l-1.4,9.5l-2,0.3l-4.5-4.9l-0.8,6.3l-4.8-2.8l0.4-3l-3.4,0.7l-0.2-2.2l-3.2-0.6l-0.4-3.4l-0.9-3.6l-1.5,0.7
	l-1.8-6.5l-7.3-1.7l-0.4,2.2l4.1,0.7l2.5,2.1l-3,4l-4.3,0.4l0.3,3.9l3.2,0.5l2.1,1.7l-0.3,4.5l-0.8,1.7L184,284z M175.4,253.4
	l-2.8-2.8l-2.6,1.5l-3.2-0.2l-3.5-1.6l-2.2,12.2l12,2.1l2.6,1.7l-0.5-2.9l1.5-3.5v-2.8l-2.3-0.4L175.4,253.4z M168,282l-2.8,2.2
	l-0.5,2.5l-1.8-0.7l0.4-4.7L168,282z M622.2,166.9l0.7-0.9L622.2,166.9z"/>
<path class="st0" d="M175.4,253.4l-1.1,3.5l2.3,0.4v2.8l-1.5,3.5l0.5,2.9l-2.6-1.7l-12-2.1l2.2-12.2l3.5,1.6l3.2,0.2l2.6-1.5
	L175.4,253.4z"/>
<path class="st0" d="M211.4,307.6l-27.2-4l-18.6-11l-0.9-5.9l0.4-2.5l2.8-2.2l4.7,0.8l12.2,2l-0.8-0.9l5.5,1.5l0.8-4.9l-3.6-4.5
	l3.7-2.4l3.2,0.6l0.1,2.2l3.4-0.7l-0.4,3l4.8,2.8l0.9-6.3l4.5,4.9l2-0.3l1.4-9.5l2.6-1.6l3.7,0.5L211.4,307.6z M195.4,287.8l0.3-1.4
	l-4.7-0.7l-2.8,2.2l3.2,1.1l-0.4,2.5l3.5,2.1L195.4,287.8z"/>
<path class="st0" d="M405,249.2l10.5-0.4l-0.3,6.4l0.9-0.4l2.7-0.7l0.5,1.6l-4,3.2l0.1,6.3l-2.8,1.3l0.1,5h-7l0,3.2l-2.8-0.7
	l-0.1-4.8l-4.2,0l-0.5-1.5V264l-2.8-0.9l-3.2,0.9l-1.9-2.5l1.8-4.9l3.2,0.6l2.3-2.2l-0.5-3.8l8.2-0.1L405,249.2z"/>
<path class="st0" d="M463.3,234.8l0.7,4.4l-1.8,0.1l-0.1,5.6l-4,1.8l0.2,4.1l-1.3,1.4l-5.9,0.3l-1.8,1.5l-0.4-8.4h-2.7l-1.4-1.5
	l-1.2-4.8l1.9,0.8l-2-3.9l3.6-0.2l4.5-0.3l0.6,3l3.2,0.1l0.3-3.3l3.6,0.3l0,0l0,0l0.5,1L463.3,234.8z"/>
<path class="st0" d="M449.5,254.1l0.6,3.2l-2.2,2.5l1.6,4.2l0.3,6.4l-0.3,3.2l-1.4,0.9l2,2l0.1,2.7l-2.2,2l0.2,3.5l2.1,4.6l-0.8,2.2
	l-16.5,0.6l-12.7,0.4l-0.1-3.8l-1.4,0.5h-1.9l1.8-3.6l5.2-0.2l-0.2-5.3l-3.3-2.6l-6.1-0.8l-0.1-4l-1.4-1.4l-0.1-5l2.7-1.2l-0.1-6.3
	l4-3.2l-0.5-1.6l-2.7,0.7l-0.9,0.4l0.3-6.4l1.8,0.5l10,0l-0.1-2.4l2.3-0.5l1.8-0.2l-0.1-3l2.7,0.4l-0.1-2.8l2.2-0.5l1.2-2.8l3.1-0.3
	l-0.7,2.8l2.3,0.2l1.6-4l2,3.9l-1.9-0.8l1.1,4.8l1.4,1.5h2.7L449.5,254.1z M449.5,280l1,0.5L449.5,280z M449.2,285v-0.6v-0.1
	l0.5,0.2L449.2,285z M450.3,287.9v-0.5v-0.3l0.5,0.6L450.3,287.9z M450.2,285.4V285v-0.7v0.9V285.4L450.2,285.4z M450.4,279.3v-0.2
	l0.4-0.4l0.5,0.1L450.4,279.3z M449.8,287.1l0-1L449.8,287.1z M450,291l-0.5-0.7L450,291z"/>
<path class="st0" d="M424.6,236.9l3.6-0.2l0.1,1.6l-3.2-0.2l0.6,5.6h3.6l0.1,2.7l-2.3,0.5l0.1,2.4l-10,0l-1.8-0.5l-10.5,0.4v-2.3
	l-3.6,0l0-4.1l-1.4-2l4.1-0.8l-0.5-4.7l2.2,0.2v1.8l4.5-0.1l3.1-1.1l-0.4,4.2l2.3,0l1.3-3.1L424.6,236.9z"/>
<path class="st0" d="M412.7,271.4l1.4,1.4l0.1,4l6.1,0.8l3.3,2.6l0.2,5.3l-5.2,0.2l-1.8,3.6h1.9l0.1,3.2l-3.8,0.1h-0.5l-2.8,0.1v2.2
	l-2.8,0.1l-0.1-3.8h-2.4l0.4-2.3l-1.4-0.2l-1.9,0.3l-1.4-1l-0.1-6l-2.8-2.4l0.4-2.8l-1.9-0.7l0.4-3l0.4-3.8l4.2,0l0.1,4.8l2.8,0.7
	l-0.1-3.1H412.7z"/>
<path class="st0" d="M108.6,249.9l-1.3,3.8l2.9,2l-3,2.6l-0.8-2.8l-5.2-6.7l-1.2-1l3-2.7l1.9,0.2l2.7,0.6l2.7,3L108.6,249.9z"/>
<path class="st0" d="M100.6,200.3l1.7,0.8v3.7l-2.8-0.1l1.2,2.7l4.2-0.2l-0.6,2.4l-3.1-0.8l-1.6,2.6l2.3,2l-1.6,4.8l-1.7,1.5
	l2.6,0.8l1.2-4.8l4.3,1.5l2.1-0.8l-2.2,1.3l0.2,3l-0.6,2.4l-4.3,4.3l-6.4,1.2l-4.1-2.5l-2.4,0.2l-1.8-0.5L88,223l-1.1-3.2l-1.8-0.5
	l-0.6-3.1l-1.9-1.9l-0.7-4.4l8.4,2.1l1.4-5.7l2.5-4.5l2.3-1.7L100.6,200.3L100.6,200.3z M102.2,218.8l1.6,3.2l1.8-3.4L102.2,218.8z"
	/>
<path class="st0" d="M74.1,148.4L74,144l-2.7-3.3l1.1-5.5l1.6-1l5.8-1.5l4.2,0.9l-0.7,2.3l-3.4-0.5l-1.9,2.1l1.5,4.1l3.4-2.6h3.1
	l-1.6,4.1l0.7,2.2l5.5,1v0.2l-3,2.7l-0.6,0.5l-2.7-0.1l-5.3,1.5l0.9-1.7l-2.3-1.4L74.1,148.4z M72.9,148.1l-0.8,2.6l-2.9-0.9l-2.4-1
	l-0.2-2.6L72.9,148.1z M90.5,137.5l0.8,0.5l1.5,1.2l1.9-0.5l-1.7,3h-2.2L90.5,137.5z M88.2,134.7l0.6,2.8l-3.5-1.7l0.4-1.7
	L88.2,134.7z"/>
<path class="st0" d="M71.8,169.5l3.5,0.5l-0.7,2.4l-0.5,1.9l-5.5,0.1l-2.9-4.4l1.8-1.4L71.8,169.5z M70.8,161.8l1.7,0.3l-0.2,7.4
	l-2.8-1.6l-1.3-1.8l2.2-1.1L70.8,161.8z"/>
<path class="st0" d="M81.8,209.9L81.8,209.9l-0.6-3.2l-3.3-3.6l0.6-2.1l1.3-3.2l-2.9-4.9l7-3.8l2.3,1.9l3.5-0.8l-1.7-4.3l6.9-0.1
	l3.8-0.7l0.5,3.4l2.4,1.5l-1,4l-2.3-0.1l0.7,2.7l3.5,1.2l4-1.4l0.6-2.3l1.9,3.5l-0.7,3.1l-7.5-1.6l-0.3,1.2h-4.2l-2.3,1.7l-2.5,4.4
	l-1.4,5.7L81.8,209.9z"/>
<path class="st0" d="M100,247.8l-3.2-0.5l0.7-2.9l-1.3-2.4l-5.8-1.8l3.6,0.9l2.2-3.1l-0.6-3.5l-0.7-5l-4.4-1.4l-1.5-1.7l2.4-0.2
	l4.1,2.5l6.4-1.2l4.3-4.3l0.6-2.4l3.3,1.8l-0.5,2.4l2.6,0.9l-2.1,6.9l-2.1,8.9l-3.3,3.8l-1.9-0.2L100,247.8z"/>
<path class="st0" d="M95,185.8l-6.9,0.1l1.7,4.3l-3.5,0.8l-2.3-1.9l-7,3.8l-2.9-4.7l0.8-2.9l-1.7-0.5l0.5-3.5l0.4-1.5l4.3-2.4
	l1.3-3.1l5,1.8l-1-3l3,2.6l6.5-5.7l1.9-0.4l1,1.5l2.8-0.3l0.5,1.7l-0.1,2.3l-4.3,1l-1,5.6L95,185.8z"/>
<path class="st0" d="M54.1,147.2l0.2-3.8l3.8,1l0.9-3l-2.8-1l0.4-4.2l-2.1-5.1l-1.8-3.1l3.1,0.2l1.3-1.5l2.9,0.9l0.2,4l3.7-1.8v4.5
	l-2.9-0.9l-0.4,1.4l7,2.1l-1.5,6.9l-2.2-0.1l-0.9,4.6l5.6,4.1l1.1,4l1.1,5.7l-0.5,3.3l-2.2,1.1l-2.3,0.1l0.5-0.1l0.4-2.8l-2.3-4.6
	l1.2-1l-1.6-3.8l-4.8-0.7l1-1.7l-2.5-0.9L54.1,147.2z"/>
<path class="st0" d="M65.1,170.5l0.6-0.5l3,4.4l5.6-0.2l-1.2,4.3l1,1.3l-0.4,1.4l-1.8-2l-4.4-1l-1.1-0.9l0.3-2.7L65.1,170.5z"/>
<path class="st0" d="M128.9,237.8l6.3-0.9l-1.7,5.8l1.9,2.4l1.2,5.8l-0.1,0.3l-14.1-2.9l2.8,4.5l-2.1,3l1.3,2.8l-6-1.3l-2.4-2.3
	l0.1-2.4l4.3,2.3l-1.1-1.6l0.7-2.9l-1.9-0.1l1-4.4l1.8-1.8l-0.6-5.6l4.9-1l2.3,2.6l2.3,0.5L128.9,237.8z"/>
<path class="st0" d="M62.5,110.4l0.4,0.1l0.9,4.4l2,0.7l-1.4,3.2l1.4,2.7l3.4,2.1l1.4-3.2l2,0.7l-0.4-3.1l5.5-0.8l-0.2-3.8l4.6,2.2
	l-0.2,3.8l4.9,1.5l2.9,2.2l0.5-1.9l2.7,2.8l2.5,0.3l1.1,7.5l-7.5-0.1l1.5-5.5l-1.2-0.4l-1.2,4.2l0.9,1.7l-0.9,3.1l-2.5-0.7l-1.7-0.4
	l-4.2-0.9l-5.8,1.5l0.5-1.8l-3.2-1.1h-4l-1.6-2.3l1.2-2.7l0.5,3l2.6,0.2l2.2-1.5l-2.9-2.2l-5.4-2.8l-1.3-4.7l0.8-4.2L62.5,110.4z
	 M61.3,110L61.3,110l-1.5,7.7l2.9,0.7l-2.1,7l-1.8-2.7l-2.2,1.3l2.5,2.1l4.3,0.7l0.5,2.9l-3.7,1.8l-0.2-4l-2.9-0.9l-1.3,1.5
	l-3.1-0.2l0.6-5l5-4.8l0.2-2L61.3,110z M68.4,114.3l-0.7,0.9l-1.6-0.5l1.2-2.6L68.4,114.3z"/>
<path class="st0" d="M67.4,202.3l-3.6-5.8l0.3-4.4l3.2-3l1.9-0.2l3,4.5l-0.5,1.8l5.3,6.3l1.6-0.6l-0.6,2.1l3.3,3.6l0.6,3.2l-0.9-0.2
	l-1.3-0.3l-3.2-2.3l-3.2-0.4l-4.7-2.2V201L67.4,202.3z"/>
<path class="st0" d="M128.9,237.8l0.8,2.7l-2.3-0.5l-2.3-2.7l-4.9,1l0.7,5.6l-1.8,1.8l-1,4.4l1.9,0.1l-0.7,2.9l1.1,1.6l-4.3-2.3
	l-0.1,2.4l2.4,2.3l-3.6,1.1l0.2-5.2L113,254l-4.3-4.1l1.7-1l-2.7-3l-2.7-0.6l3.3-3.8l2.1-8.9l2.1-6.9l-2.6-0.8l0.6-2.4l-3.3-1.8
	l-0.2-3l2.2-1.3l1.4-2.1l-1.1-5.4l4-1l2.4,1.5l2.7,0.3l2,3.5l-0.4,5.7l17.7,3.9l2.3,2.1l-2.5,0.9l-2.6-1l-0.1,2.8l1.7,2.9l-2.5,3
	l-4.2-0.3L128.9,237.8z"/>
<path class="st0" d="M64.4,166.7l-0.8,4.5l-5.9-5.1l2.8-0.2l3.4-0.5L64.4,166.7z M65.9,166.3l2.3-0.1l1.3,1.8l-1.2,0.9L65.9,166.3z
	 M65.1,170.5l-0.6-1.3l2.9-0.6l-1.8,1.4L65.1,170.5z M62.6,173l1.3,0.4L62.6,173z M59.9,164.6l0.1-0.4L59.9,164.6z"/>
<path class="st0" d="M77,192.9l2.9,4.9l-1.3,3.2l-1.6,0.6l-5.3-6.3l0.5-1.9l-3-4.5l-0.8-3.9l-2.6-0.8l-1.1-2.7l0.3-2.8l1.6-0.6h0.9
	l4.4,1l1.8,2l-0.5,3.5l1.7,0.5l-0.8,2.9L77,192.9z"/>
<path class="st0" d="M80.9,220.7l-0.6,0.3l-3,0.6l-3.4-1.3l0.5-1.9l-3.2-2.2l0.9-3.3l-4-4.6l-0.7-6l1.3-1.3v3.4l4.6,2.2l3.2,0.4
	l3.2,2.3l-0.8,5l5.6,3.9l-0.2,0.8l-5.1-0.5l-3.9-3.1l-0.2,2.4L80.9,220.7z M70.4,206.7l1.9,3.5l0.3-2.9L70.4,206.7z M81,209.7
	l0.9,0.2l0,0l0.7,4.4l-1.9-0.2l-1.6-2.8L81,209.7z"/>
<path class="st0" d="M62.6,172.9l1.3,0.4l0,1.8l2.8,3.1l-1.6,0.6l-0.3,2.8l-2.6,1.1l-0.5-1.4l0.9-3l-0.8-2.3L62.6,172.9z"/>
<path class="st0" d="M73.9,220.3l3.5,1.3l0.6,1.4l-1.8,7.1l-2.3-0.4l-1.8-2.1L73.9,220.3z M86.1,233.8l-1,0.1l-4.8-1.8l0.2-0.8
	l6,1.1L86.1,233.8z M80.4,221l0.6-0.3l5.5,4.4l-2,0.2L80.4,221z"/>
<path class="st0" d="M69.2,189l-1.9,0.2l-0.6-2.9l-3-0.9l-1.6-2.7l2.6-1.1l1.1,2.7l2.6,0.8L69.2,189z"/>
<path class="st0" d="M64.4,166.7l-0.5-1.4l-3.4,0.5l-0.6-1.2l0.1-0.4l-6.8-14.1l0.9-2.9l3.4,3.7l2.5,0.9l-1,1.7l4.8,0.7l1.6,3.8
	l-1.2,1l2.4,4.5l-0.4,2.8L64.4,166.7z"/>
<path class="st0" d="M94.9,168.4l0.1,1.2l-1.9,0.4l-6.5,5.7l-3-2.6l1,3l-5-1.8l-1.3,3l-4.3,2.4l-1-1.3l1.2-4.3l0.4-1.8l0.8-2.7
	l2.2,1.9l2.6,0.5l2.3-1.8l5.9-1.5l3.3,1.2L94.9,168.4z"/>
<path class="st0" d="M95.5,234.4l0.6,3.5l-2.2,3.1l-3.6-0.9l-2.4-2l-2.8-4.2l1-0.1l2.2-1.2l2.9,1.9L95.5,234.4z"/>
<path class="st0" d="M270.8,171.8l4.4-1l0.7,1.5l4.1,1.7l-2.2,0.4l-0.2,2.7l-2.2,0.7l-5.9-1.1L270.8,171.8z"/>
<path class="st0" d="M275.2,170.8l-4.4,1l-1.3-3.7l-2.3,1.6l-5.5-0.6l0.9-4.4l-3-0.2l0.4-4l-1.9-2.1l-5.5-0.6l1.6-2.5l-0.2-1.5
	l5.6-0.3l2.7,2.1l2.6,0l0.2-2.3l-2.2-3l5.4-2.8l-3.3-4.2l2-3.2l2.1-0.5l0.3-2.6l6.2,0.6l-0.6,2.1l2.5,0.4l1.5-2.2l-1.2,12.3l6.3,0.7
	l8-0.2l-0.4,5l8,0.6l-0.5,6.2l-18.6-1.6l-0.8,8.6l-3.4-0.7l-0.7-1.5l-2.6,0.7L275.2,170.8z"/>
<path class="st0" d="M280.1,174l-4.1-1.7l-0.7-1.5l-2.3-3l2.6-0.7l0.7,1.5l3.4,0.8l0.8-8.6l18.6,1.6l15.6,1l-0.7,10.4l1.7,0.1
	l0.5,5.5l-2.6-0.1l-0.4,6.9l-19.9-1.4l0.6-7l-5.6-0.4l-0.1,1.7l-3.9-0.3l-0.9-4.1L280.1,174z"/>
<path class="st0" d="M647.6,135.1l-1.1-1.1l1.9-3.1l2.2-1.6l2.7,0.3l-0.9,1.7L647.6,135.1z"/>
<path class="st0" d="M659.5,115l5.4-1l2,7.7l-1.9,0.9l-1.2,0.5l-0.1-0.4l-3.8,0.4v1.7l1.5,2.3l-2.1,0.4l-3.1-1.8l-1.7-3.4l-1.9,0.9
	l-6.9-0.1l-0.5,1.7l-1.5-1l-0.8-5.4l1.2-0.5l1.3,0.2L659.5,115z M659.3,127.8L659.3,127.8L659.3,127.8z"/>
<path class="st0" d="M648.3,130.9l-4.5-2.7l1.4-3.3l0.5-1.7l6.9,0.1l1.9-0.9l1.7,3.4l3.1,1.8v0.1v0.1l-6.1,1.8l-2.7-0.3L648.3,130.9
	z M659.9,124.9v-1.7l3.8-0.4l0.4,3.1l-2.8,0.9L659.9,124.9z M665.9,124.8l-2.2-1.6l1.2-0.5L665.9,124.8z"/>
<path class="st0" d="M627.7,159.3l3.7-1.1l-1.8,3.8l1,2.4l2.7,2.2l0.7,3.1l-3.5,2.5l-1.6-5.3l-1.5-0.7l-2.2,0.2l0.2-3l-0.1-2.5
	L627.7,159.3z M630.7,159.2l1.4,0.3l0,0l1.9,0.5l-1.6,2.7l0.5,2.2l-2-0.9L630.7,159.2z"/>
<path class="st0" d="M616.1,175.9l-0.7,0.8l-3.1-1.9l-3.7-0.8l0.6-1.6l-3.3-1l-2.1-4l-3.7-0.8l-4,2.3l1,2.9l-2.2-0.3l-4.1,4.1
	l-3.7-0.8l0.9-5l-1.5-1.2l5.1-0.9l0.2-3.7l1.2,1.5l4.3-0.5l-0.5,1.7l11.5-2.2l1.9,0.7l3.2,2.9l-0.4,2.6l1.2,3.7L616.1,175.9z
	 M618.8,174.1l1.6-0.9l2.1,8l3,5.9l-8.1-2.1l-2.7,0.1l-1.4-2.4l2.4-3.5l0.2-3.3l3-0.4L618.8,174.1z M620.8,172.9l-0.1-0.4
	L620.8,172.9z M623.5,173v0.2V173z"/>
<path class="st0" d="M574.2,368.1l-1.6-0.7l1.6-2.9l5.5-0.8l1.6,0.4l0.3,1.9l0.6,4.2l-3,0.4l-0.4-2.8L574.2,368.1z"/>
<path class="st0" d="M569.8,358.7l-0.3-2l2-0.3l0.3,2.5l-0.3,1.6l-0.8,1.5v0.1l-0.5,0.1L569.8,358.7z M569.7,361.4L569.7,361.4z"/>
<path class="st0" d="M599.7,377l-0.3-2.1l2.7,0.7l1-3.4l-1.6-3.5l1.3-1.5l-2-2.7l4-0.5l2.2,1l4.1,5.8l1,5.8l0.1,6.6l-4.1,0.1
	l1.4-1.1l0.1-5.6l-2.4-1.8l-0.8,1.4L599.7,377z M607.6,365.4L607.6,365.4z"/>
<path class="st0" d="M599.3,374.9l0.3,2.1l1.2,4l1.3,8.4l-6.6,1l-2.8-1.2l-3,0.5l-2.2-3.9l-0.6-3.9l-1.6-0.4l-1.7-0.8l-1-6.5
	l-1.3,1.4l-1.5,0.2l-0.5-3.6h3.1l0.1,0.7l7-1.1l4-0.5l2.2,0.7l0.8,2.1L599.3,374.9z"/>
<path class="st0" d="M567.2,318.5l1.9-0.2l1,7.1l5.3-0.9l0.2,1.4l6.3,2.5l1.7,1.1l0,0v0.2l0.3,1.9l0.2,1.5l1.3,2.1l-1.9,0.8l-1-0.3
	l-1.7-1.6l-3.9,0.5l-2.3,1.3l-2.6-0.5l0.6,4.2l-2.5,0.4l-0.9-2.7l-3.2,2.2l0.3,2l-2.5,0.2l-2.5-3.5l-3.2-1.5l-0.3-2.2l-0.5-7.2
	l2,0.4l0.3-5.3l6.9-0.1l-1.3-2.1L567.2,318.5z"/>
<path class="st0" d="M571.5,356.4l-2,0.3l1.4-4.3l-0.1-4.2l5-0.3l0.8,2.2l-2.3,1.8l0.2,1.6l-2.5,0.3L571.5,356.4z"/>
<path class="st0" d="M581.9,328.3l-6.3-2.5l-0.2-1.4l-5.3,0.9l-1-7.1l-1.9,0.2l-0.3-1.9l-3-0.1l-0.1-4.3l-2.9-0.1l-1.6-4.5l-1.7-1.9
	l-0.4-3.2l2.4-0.2l1.6-2.6l0,0l0.3,2.3l4.7-0.8l6.2,2.6l0.2,1.5l4.4-0.1l1.1-2.1l3.3,2.7l-2,2.9l2.7,1.4l1,9.3l-3.2,1.7l0.7,4.8
	L581.9,328.3z M587.7,330.3L587.7,330.3l-0.5,0.1l-3.3,1.2l-0.2-1.9v-0.2l0,0l-2.6-3.9l-0.4-5.7l2.8-0.7L587.7,330.3z M578.1,303.2
	l0.8-4.1l1.5,0.6l0.5-0.1l2.5,0.2l-0.7,5.1L578.1,303.2z M587.7,330.2L587.7,330.2z M587.7,330.4L587.7,330.4z"/>
<path class="st0" d="M579.7,353.2l4.3-1.3l1.3,1.6l-3.3,1.9l0.9,2.9l3.1,0.5l1.1,3.8l-5.9,1.6l-1.6-0.4l1.3-1.2l-0.5-3l-1.5,0.4
	l-1.7-4.3L579.7,353.2z"/>
<path class="st0" d="M608,383.3l4.1-0.1l0.5,2.7l-2.2,5.7l-0.5,3.2l-2.6,0.2l0.1-5.7l1.4-0.7L608,383.3z"/>
<path class="st0" d="M576.9,345l1.2,1.1l-2.2,1.8l-5,0.3l-0.5-3.3l-4-3.5l-0.3-2l3.2-2.2l0.9,2.7l2.5-0.4l-0.6-4.2l2.6,0.5l2.3-1.3
	l3.9-0.5l1.7,1.6l0.2,1.5l0.2,1.6l-4.4,0.7l2.5,3L576.9,345z"/>
<path class="st0" d="M579.7,353.2l-0.3-2.4l-2.6-0.6l-0.8-2.2l2.2-1.8L577,345l4.1-2.5l2.5-0.4l-0.5-3.3l-0.2-1.6l0.8-1.2l1.9-0.8
	l-0.1-0.4l0.8,2.2l3.8,1.8l0.5,3.2l4.2,1.1l2.5,6.2l4.8,7.6l2.5,2.7l2.4,5.4l-2.2-1l-4,0.5l2,2.7l-1.3,1.5l-2.2-0.9l-3.4,4.3
	l-2.2-0.7l-4,0.5l-1.2-4.6l-3.5,0.5l-0.8-2.1l-2.5,0.5l-0.3-1.9l5.9-1.6l-1.1-3.8l-3.1-0.5l-1-2.9l3.3-1.9l-1.3-1.6L579.7,353.2z
	 M597.6,360.7l2.4-1l-1.8-8.1l-2,0.2L597.6,360.7z M595.3,343l1.5-0.2l3.3,5.1l-0.9,4l-1.3-2l-1.5-6.3L595.3,343z M607.6,365.4
	L607.6,365.4l-4.3-7.3l-0.2-1.5L607.6,365.4z"/>
<path class="st0" d="M596.7,342.7l-1.5,0.2l-0.5,0.1l-4.2-1.1l-0.5-3.2l-3.8-1.8l-0.8-2.2l-1.3-1.7l-0.2-1.5l3.3-1.2l0.5-0.1l0,0
	v-0.2l0,0l3.4,5.9L596.7,342.7z"/>
<path class="st0" d="M529.6,323.7l0.7,2l2.4-0.3l1.2,6.4l5.4-0.3l1.3,2.7l-1.8,1.4l-6.7,1.9l-0.3-2.5l-3.1-1.7l1.8-1.3l-8.7-2.7
	l1.2-2.9l0-4.1l5.6-2L529.6,323.7z"/>
<path class="st0" d="M506,312.1l2.7,2.7l2.3-1.6l-0.8-2.7l5.7-1l0.1,1.4l0.3,2.7l-1.6,3l3.3-0.7l0.2,2.1l4.8,4.2l0,4.2l-1.2,2.9
	l-7-1.6h5.4l-2.1-1.4l-4.7,1.7l-7.2,1.3l2.8-1.6l-2.6-1.3l-0.8,2.1l-4.3,1.5l-0.3-3.7l1.3-1.6l-3.1-2.1l-0.6-6.5l5.2-0.9l-0.7-1.8
	L506,312.1z M501.4,331.1L501.4,331.1z"/>
<path class="st0" d="M581.4,375.7l-2,0.7l-2.5-2.8l-2.8-5.5l4.6-0.2l0.4,2.8l3-0.4l-0.6-4.2l2.5-0.5l0.8,2.1l3.5-0.5l1.2,4.6l-7,1.1
	l-0.1-0.7l-0.3-2l-5.1,0.2l2.3,1.7l0.5,3.6L581.4,375.7z"/>
<path class="st0" d="M573.3,361.8l-0.2,1.9l-2.3-1.8l0.8-1.5L573.3,361.8z M570.3,362.2l0.5-0.1L570.3,362.2z M569.7,361.4
	L569.7,361.4z"/>
<path class="st0" d="M558,334.4l-2.6-1l-1.3-2.3l-5.2-2.3l-4.8,1.1l0.8,2.6l-4.2,1.6l-1.3-2.7l-5.4,0.3l-1.2-6.3l-2.4,0.4l-0.7-2
	l6.2-1.4l1.6-3.2v-4.3l-2.4,0.2l-0.3-2.9l3.8-0.5l1.4-0.2l-0.2,2.9l2.9-0.4l3.6-2.4l0.7-2.2l4.3-0.5l-0.6-4.3h-1.9l-0.4-2.9l4.2-1.3
	l2.1,1l0.1,4.5l2.9-0.2l1.7,1.9l1.6,4.5l2.9,0.1l0.1,4.3l3,0.1l0.3,1.9l-1.7,1.6l1.3,2.1l-6.9,0.1l-0.3,5.3l-2-0.4L558,334.4z"/>
<path class="st0" d="M576.7,350.2l2.6,0.6l0.3,2.4l-2.2,2.4l1.7,4.3l1.5-0.4l0.5,3l-1.3,1.2l-5.5,0.8l1.7-2.6l-4-3l-0.3-2.5l0.6-2.6
	l2.5-0.3l-0.2-1.6L576.7,350.2z"/>
<path class="st0" d="M540,292.8l1.8,2.9l2.9,0.5l2,4.8l1.5,0.8l0.4,2.9h1.9l0.6,4.3l-4.3,0.5l-0.7,2.2l-3.6,2.4l-2.9,0.4l0.1-2.9
	l-1.4,0.2L538,309l-2.4-0.1l-0.3-2.5l1.9-0.2l-0.5-4l2.8-1.1l-0.2-6L540,292.8z"/>
<path class="st0" d="M555.2,274.1l-3.1,5.3l-3.3,0.4l-1.4-3.2l-2.8,0.1l0.2,1.3l0.7,1.9l-7.6,3.4l-1.2,1.8l-6.3,2.8l-0.2-2l-5.3-0.5
	l-0.7-1.7l2.8-0.3l-1-5.1l-2.9-0.8l1-3.4l4.2-0.5l-0.5-4l1.6-2.1l-0.9-3.5l3.5-2.3l-0.3-2.6l-4.1,0.9l-1-0.9L525,258l1.7-4.6
	l8.7-1.1l-0.4-3.4l3.5-1.8l0.7,2.2l4.6-0.5l1.7,2l2.6-1.2l2.4,0.5l-2,5.5l1,0.4l2.5,1.4l0.6,0.7l2.3-0.1l1.8,2.8l0.7,1.3l2.3,2.7
	l-0.9,0.7l-2.6,1.4l-1.1,2.2L555.2,274.1z"/>
<path class="st0" d="M565.6,290.6l-1.1-4.5l-3.2,0.7l-5.2-3.4l-0.4-3.1l3.8-3.2l-1.8-2.9l-2.4-0.1l-0.2-5.2l1.1-2.2l2.6-1.4l6,2.8
	l0.5-2.9l3.1-1.1l3.1,1.6l0.6-2.1l1.7,5.1l0.7-1.5l3.8,0.4l-1.9,3.1l0.8,2.1l-1.8,0.6l0.4,2.6l3.8-0.1l1.6,1.3l-0.5,2.9l-3,2.1
	l-2.6-4.3l-2.8,3.3l-0.4,3.4l-1.8,1.1l-2.4-3.1l-3.3,0.5l-0.3,1.5l2.9,0.1l-0.4,3.6l0.9,2.6L565.6,290.6z"/>
<path class="st0" d="M526.3,298.9l-0.4-3.9l3.2-1.5l1.2-2.4v-0.2l0.1-2.8l6.3-2.8l3.6,2.3l-1.5,3l1.2,2.2l-0.7,2.2l0.2,6l-2.8,1.1
	l0.5,4l-1.9,0.2l-1.9,0.2l-1.2-2.4l0,0l-1.4,0.1l0,0l-0.2-1.5l2.9,0.4l-0.2-1.9L526.3,298.9z"/>
<path class="st0" d="M548.3,301.7l-1.5-0.8l-2.1-4.8l-2.9-0.5l-1.8-2.9l-1.2-2.2l1.5-3l-3.6-2.4l1.2-1.8l7.7-3.4l-0.7-1.9l-0.2-1.3
	l2.8-0.1l1.4,3.2l3.3-0.4l3.1-5.3l2.4,0.1l1.8,2.9l-3.9,3.2l0.4,3.1l5.2,3.4l3.2-0.7l1.1,4.5l-3.2,1l2.2,5.3l-1.3,0.9l-1.3,0.9
	l-0.8,1l-1.6,2.6l-2.4,0.2l0.4,3.2l-2.9,0.2l-0.1-4.6l-2.1-1L548.3,301.7z"/>
<path class="st0" d="M524,274.3l-0.5-4.1l-4.6,0.4l-1.7-2.7l3.5-6l-0.3-2.8l1.5,1.3l4.5-1.2l1,0.9l4.1-0.9l0.3,2.7l-3.5,2.3l0.9,3.5
	l-1.6,2.1l0.5,4L524,274.3z"/>
<path class="st0" d="M561.1,299.8l3.5-2.8l-2.2-5.3l3.2-1l2,0.5l-0.9-2.6l0.4-3.6l-2.9-0.1l0.3-1.5l3.3-0.5l2.4,3.1l1.8-1.1l0.4-3.4
	l2.8-3.3l2.6,4.3l1.9,2.7l3.6-4.5l4.1,1.4l1.8,2.5l-2.4-0.2l0.6,3.8l-1.2,4.4l1,0.4l-3.9,5.8l-2.3,0.9l-0.5,0.1l-1.5-0.6l-0.8,4.1
	l0,0l-1.1,2.1l-4.4,0.1l-0.2-1.5l-6.2-2.6l-4.7,0.8L561.1,299.8z M563.2,297.9l-1.3,0.9L563.2,297.9z"/>
<path class="st0" d="M196.2,117L196.2,117l-3.8-2.1l0.5-2.7l-4-0.7l0.2-1.2l-3.2-0.6l0.2-3.2l-1.6-0.5l-1.4-3.4l-1.3,0.3l-3.5-3.3
	l3.5-0.9l3.2-3.7l1.3,3.8l3.3,2.4l1.3-4.7l6.8,1.3l0.6-3.6l4.7,1l0.2-1.4l5.9,1.4l3.7-0.1l0.8-2.2l0.9-0.5l2.9,4.7l-0.5,5.6
	l-2.4,15.1l-3.8,0.2l-0.2,1.6L196.2,117z"/>
<path class="st0" d="M472.9,155.2l-3-1.2l0.9-4.2l1.6-0.5h4.1l-0.2,2.9l-1.2,1.4l-3-0.7L472.9,155.2z"/>
<path class="st0" d="M485.2,155l0.1,1.6l-1.7,0.1l-1.2-3.8l-1.9-2.3l1.6-1.1l2.2,1.4L485.2,155z"/>
<path class="st0" d="M473.5,146.7l-1.9-2.6l2.8-1.7l0.1-3.9l1.6-0.1l2.5,4.6l-0.2,2.7l-0.7,1.6L473.5,146.7z"/>
<path class="st0" d="M483.1,145.3l-2.4,1l-2.2-0.7l0.2-2.7l1.9-1.8L483.1,145.3z"/>
<path class="st0" d="M480.6,150.3l-4.1,1.8l0.2-2.9l3.3-1.1L480.6,150.3z"/>
<path class="st0" d="M485.3,156.6l0.3,3.3l0.2,2.4l-1.2,1.3l-7.1,1.2l-0.2-3.1l-1.5-2.7l-2.5,0.3l-0.3-4.2l-0.6-2.4l3,0.7l1.2-1.4
	l4.1-1.8v0.4l1.9,2.3l1.2,3.8L485.3,156.6z"/>
<path class="st0" d="M478.5,145.6l2.2,0.7l1.5,3.3l-1.6,1.1v-0.4l-0.6-2.2l-3.3,1.1h-4.2l1.1-2.5l4.2,0.4L478.5,145.6z"/>
<path class="st0" d="M449.3,169.9l-1.5-4.1l-3,0.2l0.7-2.1l2.2,0.6l2.3-4.3l5.5-0.2l2.4-1.5l6.5,2.3l0.5-5.5l3.8,0.3l1.1-1.5l3,1.2
	l0.3,4.2l2.5-0.3l1.5,2.7l-6.8,0.6l-2.7,3.7l0.6,2l-2.4,1.3l0.4,5.9l-1-1.4l-2.9,1.5l-3.5-0.8l-0.6-2.1l-3.2,4.2l-0.7-4.2h-1.7
	l-1-2.7L449.3,169.9z"/>
<path class="st0" d="M473.5,146.7l-1.1,2.5l-1.6,0.5l-0.9,4.2l-1.1,1.5l-3.8-0.3l-0.5,5.5l-6.5-2.3l-0.2-2.8l-2.5,0.2l1.1-2.9
	l-1.3-1.2l1-4.3l-1.4-2.7l-1.5-4.9h3.3l2.2,1.3l2.4-1.6l7.9-0.5l5.8-0.5l-0.1,3.9l-2.8,1.7L473.5,146.7z"/>
<path class="st0" d="M477.5,164.8l7.1-1.2l1.2-1.3l1.7,0.3l0.2,2.7l-1.7,0.1l0.8,9.4l3.8-1l0.4,3.8l-3.9-0.6l0.6,6.7l-2.6,0.2
	l-1.6,1.7l0.4,4.8l-2,2l-1.9-1.5l2.6-0.4l-7.1-1l1.1-2.8l-0.3-3.3l1.3-0.1l-0.3-3.6l-4.8-0.1l-0.8-5l-1.4-0.8l3.8-0.3l-0.4-4.7
	l1.1-1.7l3,0.8L477.5,164.8z"/>
<path class="st0" d="M477.3,161.8l0.2,3.1l0.7,3.4l-3-0.8l-1.1,1.7l0.4,4.7l-3.8,0.3l-4.2,1.2l-0.4-5.9l2.5-1.3l-0.6-2l2.7-3.7
	L477.3,161.8z"/>
<path class="st0" d="M476.2,213.8l-0.6-7.8l2.6-0.9l-0.3-4.2l2.6-0.1l-0.4-4.7l1.3,0.1l0.6-3.6l2-2l3.1,0.1l2.1,3.8l3-0.3l7-0.7
	l-1.9,2.7l0.8,3.5l1.8-0.2l0.2,2.1l2.2-0.2l-0.6,3.1l1.5,1.2l-0.1,3.2l-3,0.8l-1-1.6l-3.9,1l0.2,2l-1.9-0.8l0.2,2.1l-2.5,2.1l2,2.1
	l-3.1,0.1l-4.7,2.3l-1-1.1l-6.1,1.5l1.1-3.3l-3.1,0.4l-1.4-1.3L476.2,213.8z"/>
<path class="st0" d="M519,146.6l2.5-0.4l1,4.3l1.5,2.2l3.2,1.4l-4.2,0.5l0.7,5.5l-2.1,0.5l-0.1,2.6l-2.9,0.8l0.6,4.8l-3.8,0.5
	l-1.3-4l-1.7,0.2l-1.6-2.6l-3.8,0.4l-1.5,1.6l-1-5.5l-1.4-1.2l-0.4-4.1l5-0.7l1.4,0.8l-0.6-5.1l-1.9-2l10-1.1L519,146.6z"/>
<path class="st0" d="M486.1,150.9l1.7,0.4l4-1.8l2.7-2.4l1.3,0.8l-2.2,3l-1.7,0.2l0.3,3.1l5.6,0.6l0.3,2.7l-5.4,1.2l-7.1,1.3
	l-0.3-3.3l-0.1-1.6l1.6-1.4L486.1,150.9z"/>
<path class="st0" d="M499.8,199.6l-1.8,0.2l-0.8-3.5l1.9-2.7l-7,0.7l-0.3-3.6l4.3-1l-2.1-4.1l-2.5,1.5l-0.3-3.3l2.8-2.3l-0.3-2.8
	l-2.7-1l-0.4-3.8l6.4-0.9l0.8-5.1l2.4-1.6l-5.1-0.2l-2.1-4l-0.3-3.5l5.4-1.2l2.1,4l4.1-1.9l1,5.5l1.5-1.6l3.8-0.4l1.6,2.6l-2.2,3.2
	l0.5,4.9l6.5,0.4l-0.2-1.8l2.6,0.1l0.8,6.9l0.3,2.2l-3.9,0.3l-2,2l0.7,2.3l-2,2.1l0.4,3.8l-4.1,3l-4.8,0.1l-1,3.1L499.8,199.6z"/>
<path class="st0" d="M485.9,162.4l-0.2-2.5l7.1-1.3l0.3,3.5l2.1,4l5.1,0.2l-2.4,1.6l-0.8,5.1l-6.4,0.9l-3.8,1l-0.8-9.4l1.7-0.1
	l-0.2-2.7L485.9,162.4z"/>
<path class="st0" d="M512.3,165.6l1.7-0.2l1.3,4l3.8-0.5l2,2l-1.6,1.4l-2.6-0.1l0.2,1.8l-6.5-0.4l-0.5-4.9L512.3,165.6z"/>
<path class="st0" d="M486.1,150.9l0.7,2.7l-1.6,1.4l-0.8-4l0.3-0.9L486.1,150.9z"/>
<path class="st0" d="M506.4,147.2l1.9,2l0.6,5.1l-1.4-0.8l-5,0.7l0.4,4.1l1.4,1.2l-4.1,1.8l-2.1-4l-0.3-2.7l-5.6-0.6L492,151
	l1.7-0.2l2.2-3l0.2-1.9l3.8-0.4l4-1.9l0.8,3.6L506.4,147.2z"/>
<path class="st0" d="M492.2,194.3l-3,0.3l-2.1-3.8l-3.1-0.1l-0.4-4.8l1.6-1.7l2.6-0.2l-0.6-6.7l3.9,0.6l2.7,1l0.3,2.8l-2.8,2.3
	l0.3,3.3l2.5-1.5l2.1,4.1l-4.3,1L492.2,194.3z"/>
<path class="st0" d="M436.7,135.7l1.1-2.8l2.5,1.2l-1.1,3l1.6-0.1l1.4,3.9l0.2,4.2l2.5,0.6l0.3,6.2l-1.3,0.1l-0.1-1.4l-6.7,0.3
	l-2.9,1.4l0.1,1.6l-5.5,0.2l-1.5-5.5h1.2l-0.2-4.2l4.2-0.2l-0.1-1.4l4.1-0.2L436.7,135.7z"/>
<path class="st0" d="M458,158.4l-2.4,1.5l-5.5,0.2l-2.3,4.3l-2.2-0.6l-1.9,5.2l-3.5-1.5l-1-4.1l1.2-1.9l2.9-1l-0.5-1.5l4.6-0.2
	l-0.1-2.8l-3-1.3l-0.1-2.8l1.3-0.1l-0.3-6.2l2.9-0.9l1.4,2.7l1.9-2.9l-0.9-1.2l4.2,1.2l1.4,2.7l-1,4.3l1.3,1.2l-1.1,2.9l2.5-0.2
	L458,158.4z M449.3,169.9l-7.2,0.3l-0.1-1.8l2.2,0.7l0.7-3.1l3-0.2L449.3,169.9z"/>
<path class="st0" d="M450.3,143.5l0.9,1.2l-1.9,2.9l-1.4-2.7l-2.9,0.9l-2.5-0.6l-0.2-4.2l-1.4-3.9l-1.6,0.1l1.1-3l1.2-1.5l1,2.4
	l2.9,0.8l0.9,1l4-2.6l2.2,2.3l-0.6,3.5l1.2-0.2l1.5,4.9L450.3,143.5z"/>
<path class="st0" d="M440.2,167.5l1.7,0.8l0.1,1.8l-1.2,0.7l0.2,3.3l-1.2,2.2l0,0l-3.4,0.1l-2.1,1.9l-0.1-2.4l-0.2-4.9l-2.6-1.8
	l-0.1-2.8l-5.5,0.2l-0.1-4.2l2.5-0.1l-0.2-5.4l1.1-2.9l5.5-0.2l-0.1-1.6l2.9-1.4l6.7-0.3l0.1,1.4l0.1,2.8l3,1.3l0.1,2.8l-4.6,0.2
	l0.5,1.5l-2.9,1l-1.2,1.9L440.2,167.5z"/>
<path class="st0" d="M398.7,135.4l1.2-4.1l4.9-0.1l1.6-2.9l2.9-0.1l1.2-2.5l14.7-0.4l1.7,2.7l-1.6,1.9l-2.9,0.1l-0.8,3.3l3.8,1.5
	l-2.5,0.1l-1.5,4.4l-2.5,0.1h-4.1v1.4l-2.9,0.1l-2.5-2.2l-0.1-3.3L398.7,135.4z"/>
<path class="st0" d="M395,146.5h-5l-1.7,2.9l-1.3-2.8l-2.5-1.4h-2.9l-0.4-3l-2.5-0.2l-2-3.2v-3.3h4.1l1.2-4.1l2.9-1.4l5.3-0.1
	l0.4,2.9h2.1v4.1l5.8,0l2.5,4.1l-2.5,0l0.5,2.8h-3.3L395,146.5z M373,140.1l1.3-2.3l3.7,1.7l0.8,2.4l2.9,0.5v3.2l1.2,3.6l0,0
	l-6.3,0.8v-1.5h-3.8l-1.6-2.1v-3.4h1.7L373,140.1z"/>
<path class="st0" d="M427.6,148.6l-2.5-1.3l-0.1-2.8l-4.2,0.1l-1.3-1.4l-0.5-4l2.5-0.1l1.5-4.4l2.5-0.1l5.4-0.2l3,1.3l2.9-0.1
	l0.3,6.9l-4.1,0.2l0.1,1.4l-4.2,0.2l0.2,4.2L427.6,148.6z"/>
<path class="st0" d="M370.7,185.7h3v2.8h5.2h0.4l2.6-4.1v-2.8l6.5-0.1h6l1.7,1.5l-3.4,4v-2.1l-2.2-0.2l0.5,6h4.8v2h-2.2l1.3,2.3
	l-0.9,3.3l-1.3,1.1h-0.9l0,9.8v3.6l-7.1-0.1l-6.6-0.6v-2.4h-2.6l1.4-7.4h-2.2l0.5-2.8l-3.5,1.5l-1.3-1.5l0-4.1l2.6-1.4l-3.9-1.5
	l0.1-6.9L370.7,185.7z"/>
<path class="st0" d="M376.4,229.5l-13.9-0.2l-1.4,1.6l-4-0.3l-1.4,1.5l-3.1-0.4l-1.7-2.6l-23.3-0.9l-0.1,2.2l-2.9,2.3l-4.5-0.1
	l-1.3-1.7l0.2-3l-2.2-0.1l0.4-6.3L311,221l0.9-14l-4-0.3l-0.1-5.5l4.4,0.3l2.7-1.2l0.3-4.2l-1-2.7l7.4,0.4l-0.1,2.7l2.2,0.1
	l-0.1,2.8l2.2,0.1l0.3-5.4l3,0.2v-8.5l3.5,0.2l0,1.4l3.5,0.2l0.3-7l20.2,0.7l-0.1,2.8l2.6,0.1l0.1-2.8l2.6,0.1l1.2,3l1.8-4.1
	l3.4-0.5l-0.5,1.8l3.4,1.5v2.7h-1.3l-0.1,6.9l3.9,1.5l-2.6,1.4l0,4.1l1.3,1.5l3.5-1.5l-0.5,2.7h2.2l-1.4,7.5h2.6v2.4l6.6,0.6
	l7.1,0.1v-3.6l1.3,2.2l4-0.5l0.2,16.5l-2.2,1.9v-1.8l-5.4-1.4v1.2h-3.6v-2.7l-3.1-0.2l-1.4,4.8L376.4,229.5z"/>
<path class="st0" d="M520.4,194.9l-1-1l2.6-0.7l-1.4-4.5l1.2-1.1l5.8,1l1.3,3.2l2.7,0.3l-1.8,3.3l-5,2.2l-2.2-4L520.4,194.9z"/>
<path class="st0" d="M526.5,227.6l-2.7,0.1l-1.4-3.9l2.4-2.5l-1.1-1.3l1-2.6l-3,1.1l-1.5-1.6l1.6-2l-1.5-1.4l1.1-2.1l-0.5-4.1
	l-1.9-1l2.8-6.5l-2.6-3.8l1.2-1.2l2-1.3l2.2,4l5-2.2l1.8-3.3l3.3,1.6l3.9-0.9l-1.2,4l4,0.4l-1.2-2.7l2.3,0.5l1.5,4.5l2.2,0.2
	l-0.9,3.4l4.1,0.7l3.1-0.5l1.2,2.3l3.5,2.5h1.8l-3.2,2.7l-0.2,1.8l-4.3,1.5l-0.4,3.5l-3.5,2.8l-0.6,2.4l-3.4,1.6l-1.7-2.1l2.1-1.5
	l-4.5,0.2l-2.1,1.5l0,4L526.5,227.6z M534.3,192.9l0.5,0.8L534.3,192.9z"/>
<path class="st0" d="M519.4,193.9l1,1l-1.2,1.2l2.6,3.8l-2.8,6.5l1.9,1l0.5,4.1l-1.1,2.1l1.5,1.4l-1.6,2l1.5,1.6l3-1.1l-1,2.6
	l1.1,1.3l-2.4,2.5l1.4,3.9l-3.6,0.2l-1.3,0.2l-7.2,0.7l-1-0.9l-2.1-6.9l1.2-1.4l-1.5-1.7l-7.5,1.2l2.3-3.7l-1.5-1l-0.4-3.8l1-3.3
	l2.9-2.3l1.6,2.3l3.1-0.2l0.1-3l2.9-2.3l2.2-3.6l-0.4-3.1l3.1,0.1L519.4,193.9z M503,205.8l-1.5-1.2l0.6-3.1l-2.2,0.2l-0.2-2.1
	l4.3-1.4l1-3.1l4.8-0.1l4.1-3l-0.4-3.8l4.4,0.3l-0.1,3.2l2.6-0.3l0.7,1.8l-2.9,1.8h-3.5l0.4,3.2l-4.3,4.3l-0.9,4.4l-3.1,0.4
	L503,205.8z"/>
<path class="st0" d="M495.3,218l-2.4-1.4l-2-2.1l2.5-2.1l-0.2-2.1l2.4,1.7l0.7-2.1l3-1.6l2,2.2l0.4,3.8l1.4,1l-2.3,3.7l-1.7,1.4
	L495.3,218z M495.1,211.2l-0.2-2l3.9-1L495.1,211.2z"/>
<path class="st0" d="M471.7,232l0.3-2.2l-0.5-1l-0.3-3.7l1.2-2l1-5.1l-1.9-1.1l0.2-2.7l4.4-0.5l-1.7,1.5l1.4,1.3l3.1-0.4l-1.1,3.3
	l6.1-1.5l1,1.1l4.7-2.3l3.1-0.1l2.4,1.4l-2.5,2l2,2.3l-1.2,1.1l-3.2-0.7l-1.3,1.7l1,6.4l-2.7-0.2H487l-1.4,0l-0.2,2.9l-2.1,1.9
	l-3.3-1.6l-4,0.3l-1.2,1.6l-2.4-1.4L471.7,232z M471.7,231.6l0.4-1.3L471.7,231.6z"/>
<path class="st0" d="M432.1,331.6l-4.9-1l2.3-4.2l-5.8-0.2l0.9-3.5l-2.4,0.7l-2.9-1.6l-0.5-0.6l2.3-2.5l5.8,0.1l2.3-2.1l-2.4-0.1
	l-0.1-3.5l4.3-0.1l1.9-1.5l-0.6-2.6l2.9-0.5l0.5,0.9l7.7,0.3l2.8-2.3l3.9,1.3l-1.9,1.3l-0.8,3.9l-1.4,0.1l-3.3,1.4l-1.3,3.3l3,1.4
	l-0.8,3.1v0.4l-0.9,2.7l-10.6,2.1L432.1,331.6z"/>
<path class="st0" d="M462.3,322.6l1.8,5.3l0.3,4.6l-0.9,1.2l-1.5,0.2l-2.9,1.2l-3.3,1.7l1.6,1.7l-6.6-4.4l0.3-3.4l-2.1-3.2l-2.9,0.1
	l-1.5-1.8l1.3-2.8l-0.6-2.5l1.4-1.7l3.8-1.4l1,0.7l5.3-0.8l-1.1,5.6L462.3,322.6z M455.3,337.2l-0.4,1.5h-3.9l-3-1.1l-4.2-6
	l-1.2-5.5l0.9-2.7l1,0.3v0.2l1.6,4l2.4-0.5l2.6,3.5l-0.3,3.3L455.3,337.2z"/>
<path class="st0" d="M448.9,346.3l0.8-3.1l-2.1-3.3l3.4-1.2h3.9l0.4-1.5l1.6,1.9l1.4-1l0.6,2.2l2-0.1l2.6,3h2l0,0l0.7,2.9l2.6,2.9
	l-3.2,3.6l-1.2-2.8l-3-1l-2.8,3.7l-8-1.7l1.4-2.7L448.9,346.3z"/>
<path class="st0" d="M432.1,331.6l-0.1-3.5l10.6-2.1l1.2,5.5l4.2,6l3,1.1l-3.4,1.2l2.1,3.3l-0.8,3.1l-1.5,0.3l-1.7-3.2l-6.9,0.6
	l-1.9,3.1l-4.5-0.6l-0.2-5.3l-3-0.8l-0.1-2.7l2.4-1.9l-0.1-2l-2.5-0.2L432.1,331.6z"/>
<path class="st0" d="M419.2,321.8l2.9,1.6l2.4-0.7l-0.8,3.5l5.8,0.2l-2.3,4.2l4.9,1l-2.9,2l2.5,0.2l0.1,2l-2.4,1.9l0.1,2.7l3,0.8
	l0.2,5.3l-8-2.7l-4.4,0.1l-4.4,1.4l-1-1.2l1.4-3.5l1-1l-0.2-7.3l1.8-4.3L419.2,321.8z M418.4,328.5l-1.4,2.7l-2-3.1L418.4,328.5z"/>
<path class="st0" d="M467.3,333l-3-0.5l-0.3-4.6l-1.8-5.3l8.2-0.5l-1.1,4.3l0.7,2.6L467.3,333z M466.1,337.8l-1.4,1l-1.9,0.5
	l-1.6-1.7l-3.9,1l-1.6-1.7l3.3-1.7l2.5,0.4l0.4-1.6l1.5-0.2l-1.3,3.4L466.1,337.8z"/>
<path class="st0" d="M435.1,308.2l-0.2-4.3l-1.9-0.8l0.3-4.8l-1.5-0.8l1.3-2.1l-0.1-3.3l16.5-0.6l0.3,6.1l-3.3,0.4l0.1,2.7l-1.7,3.7
	l5.7-0.5l1.5,1.6l-2.2,3l-3.9-1.3l-2.8,2.2l-7.7-0.3L435.1,308.2z"/>
<path class="st0" d="M464.7,338.8l1.4-1l4.7-2.7l2,0.2l-2.7,3.7l3.5,0.6l-0.1-1.8l4.8-1.9l0.2,2.7l-3.7,3.6l0.6,1.4l-5.5-1.2
	l4.2,3.5l0.6,1.7l6,2.1l-1.4,1l-2.2-2.6l-3-0.5l-6.3-5.6l1.3-2.7L464.7,338.8z M463.5,343.2l-2.6-3l-2,0.1l-0.6-2.2l2.9-0.4l1.6,1.6
	l5.4,0.6l-0.3,2.3l8.8,5.6l2.2,2.8l-7.6-1.9l0.5-1.3l-5.5-1.8l-0.6-2.4l0,0L463.5,343.2z"/>
<path class="st0" d="M433,292.1l0.1,3.3l-1.3,2.1l1.5,0.8l-0.3,4.8l1.9,0.8l0.2,4.3l-2.9,0.5l0.6,2.6l-1.9,1.5l-4.3,0.1l0.1,3.5
	l2.4,0.1l-2.3,2.1l-5.8-0.1l-2.3,2.5l-0.5-2.7l-2.5-3.6l-0.1-3.1l-2.9-0.8l-2.4-2l-5.7,0.2v-0.9l0.9-3.5l1.3-5.9l4.2-1.7l0.9-2.5
	v-2.2l2.8-0.1h0.5l3.8-0.1l-0.1-3.2l1.4-0.5l0.1,3.8L433,292.1z"/>
<path class="st0" d="M472.8,335.3l-2-0.2l-3.6-2.1l2.7-4l-0.6-2.6l6.7-1.9l0.2,2.7l-1.5,0.1l0.2,2.8l1.6,1.5l-1.3,2.9L472.8,335.3z"
	/>
<path class="st0" d="M686.3,69.8l-3.6,0.6l-0.8-5.8l-5.6,2.3l-1.5,1.9l-4.9-7.2l2.2-1l1.4-0.8l0.9-1.2l-2.1-4.4l-0.4,1.3l-3.5-0.8
	l-0.5-1.8l3.2-1.7l3.1,3.6l2.5-2.6l0.2,3.6l7.3-3.5l1.4,1.8l0.4-2.8l-2.1-2.8l3.6-0.3l-0.5-1.7l-3.2-1l-1.2-4l0.8-1.6l4.1-1.2
	l1.2-1.5l-0.9-2.8l-1.4,0.7l-2-2.5l-0.7,3l-3-0.6l-1.2-4l3,0.4L681,27l-2.9-0.1l0.8,2.7l-1.5,0.5l-2.3-2.3l-3.3,2.4l-0.8-2.7
	l2.7-0.4l3.2-2.9l4.2-2l4.9,2.7l6.4,21l2.2,0.5l2.4,5.1l2,1l2.7-0.8l3.3,5.3l-2.4,3.2l-2.7,0.8l0.1,1.6l-3.1,0.8l-1.4,3.7l-1-1.9
	l-4.3,2.5l1.2,2.5L686.3,69.8z M688.7,56.8l1.9,0.8l3.9,7.3l1.2-0.5l-2.4-5.1l2.6,1.7l2.2-1.2l-1.5-3.5l1.3-2.4l-1.3-1.7l-1.7,1.2
	l-2.5-4.1l0.5,3l-2.5,1.3l-1.9-0.7l1.7,3L688.7,56.8z M686,43.4l1.9,0.9l2.6-1l-0.6-1.9l-2.8,0.2L686,43.4z M697.7,55.9l1.9,2.2
	l1.6-3.1L697.7,55.9z M693.3,69.2l-1.2-2.6l2.5,1.3L693.3,69.2z"/>
<path class="st0" d="M670.5,95l-3.4,0.1l-2-5.8l2.6-1.2l-1.7-4.9l-4.1,0.5l-1.8-3.8l0.2-0.8l3.8-1.4l-0.4-1.5l-0.4-1.5l-0.7-2.6
	l-1.4-3.8l-0.5-1.7l-0.1-0.2l9.1-4.7l4.9,7.2l1.6-1.8l5.6-2.3l0.8,5.8l0,0l3.6-0.6l-0.4,5.9l-1.2,1.5l-2.2-0.5l-0.1,2.5l-3.5-0.4
	l-3.7,3.4l0.9,3.2l-3.2,5.5l0.3,2.8L670.5,95z M664.4,67.7l0.4,1.6l2.2-2.7L664.4,67.7z M671.8,55.4l1.6,4.3l-1.4,0.8l-2.6-4.8
	l-4.4-0.9l-0.7-2.6l3.5,0.7l0.5,1.8L671.8,55.4z"/>
<path class="st0" d="M622,161.5l3,3.9l-2.1,0.5l-0.7,0.9l-1.5,5.6l0.1,0.4l-0.4,0.2l-1.6,0.9l-1.4-2.5l-3,0.4l-1.6-1.3l0.4-2.6
	l-3.2-2.9l0.6-1.2L622,161.5z M627.4,166.2l1.5,0.7l1.6,5.3l1.5,4.9l-2.7-0.3l-0.9,2l-1.8-2.2l-2.5,0.9l1.1-3.2l-1.8-4.6l1.1-3.1
	L627.4,166.2z M622,161.5l3.4-0.7l0.1,2.5L622,161.5z M623.5,173.2V173V173.2z"/>
<path class="st0" d="M630.4,172.2l3.5-2.5l3.9,3.7l2.5,5.2l-1.8,3.9l-1.7,6.9l-2-0.8l-2.8-0.2l0.2-3.3l-6.3-2.3l-1.3-1.9l2.1-0.6
	l2.4-3.4l2.7,0.3L630.4,172.2z"/>
<path class="st0" d="M618.8,174.1l0.3,1.5l-3,0.4l0,0l-2.1-1.6l-1.2-3.7l1.6,1.3l3-0.4L618.8,174.1z"/>
<path class="st0" d="M672.2,105.9v1.7l3.4-0.1l4.3,6.1l-3.4,5.1l-2.9,2.2l-1.5-3.8l-0.6-0.5l0,0l1-4.2l-4.1,0.8l-0.7-1.4l-2-2.7
	l1.3-1.5l-2.7-0.6l-1.3-3.5l4-1.1l0.9-2.9l4.3-1.6l0.8,2.9l2.5,1.1l-2.2,1.3L672.2,105.9z M681.7,113.9l4.2-2.2l0.6,2l-6.7,4
	l-0.8-3.1L681.7,113.9z M681.1,119.5l1.5,0.8l-3.7,1L681.1,119.5z"/>
<path class="st0" d="M652,105.6l2.8-0.7l2.7,5.6l0.6-0.9l2.1,3.2l-0.7,2.2l-14.2,3.3l-1.3-0.2l-0.7-2.9l8.3-1.2l-1.8-2.2l-0.2-2.4
	l-4-0.6l0.8-3.6l2.3-0.8l0.4,1.7L652,105.6z"/>
<path class="st0" d="M667.7,111.5l-2.8,2.5l-5.4,1l0.7-2.2l-2.1-3.2l-0.6,0.9l-2.7-5.6l4-0.9l4.1-0.8l1.3,3.5l2.7,0.6l-1.3,1.5
	L667.7,111.5z"/>
<path class="st0" d="M530.7,132.6l1.8,0.5l1,1.4l-1.5,4.2l-3.9,2.1l-2,4.1l2.6,0.3l-7.1,1.1l-2.5,0.4l1.9-1.9l0.5-2.9L517,141
	l-0.5-4.1l4.4-2l1.8-2.2l-0.5-3.5l2.5-0.4l3.1,1.3l0.3,2.6L530.7,132.6z"/>
<path class="st0" d="M533.5,134.5l1.4,0.9l-0.2,4.5l-2.7-1.2L533.5,134.5z"/>
<path class="st0" d="M535.4,118.5l-0.8,2.9l0.5,3.5l-1.1,0.9l-1.6,0.2l-3.2,0.7l-1.2,3.3l-3.1-1.3l-2.5,0.4l2.4-1l-0.5-4.1l-1.7-0.5
	l-0.1-1l4-1l0.6-1.7l3.4,0.5L535.4,118.5z"/>
<path class="st0" d="M511.9,108.2l0.2,1.4l-3.2,0.4l0.8,6.9l-2.3,1.6l4.4-0.8l-0.1,3l2.1,7.2l-2.4,0.5l1,5.4l-3.2,1l-6.9-1.9
	l-2.6,3.1l-1.2,0.1l-0.3-7.3l2-0.5l1.1-5.1l-1.6,0.2l-0.4-3.9l-2,0.1l1.8-2.8l-0.5-4.4l2-0.2l-0.2-5.6l3.2-0.4l-0.7-2.8l8-0.8
	L511.9,108.2z"/>
<path class="st0" d="M499.8,136.1l2.6-3.1l6.9,1.9l3.2-1l1.1,2l3.1,1.1l0.5,4.1l4.3,0.8l-0.5,2.9l-1.9,1.9l-2.6-0.5l-10,1.1
	l-1.7,0.2l-0.8-3.6l-4,1.9l-0.4-4.1l2.4-1.6L499.8,136.1z"/>
<path class="st0" d="M522.4,123.4l1.7,0.5l0.5,4.1l-2.4,1l0.5,3.5l-1.8,2.2l-4.4,2l-3.1-1.1l-1.1-2l-1-5.4l2.4-0.5l-2.1-7.2l0.1-3
	l-4.4,0.8l2.3-1.6l-0.8-6.9l3.2-0.4l-0.2-1.4l2.4-0.3l-1,1.5l1.7,3.9l-1.4,2.3l4-0.2l0.9,7.2L522.4,123.4z"/>
<path class="st0" d="M482.5,89.2l-3.7-0.9l-1.2-9.7l-5.5,0.6l0.4,5.1l-4.9-1.2l0.3,3.3l-1.6,0.1l-3.2-0.9l-0.4-7.1l-1.6,0.1l0.5-4.4
	l-1.9,0.5l-1.6-1.2l-3.9,0.3l-1.5,1.4l-0.2-2.7l4.6-1.5l4.9-2.9l2.8-3.6l4.7-4.1l5.4-0.5l-2.6,1.2l-2.5,3.1l-2.3,4.7l0.2,2.1
	l2.2-2.5l3.9-0.1l3.2,1.4l3.9,4.6l3-1.1l1.3,1.4l3.1-0.1l4.3-4.2l7.4-1l4.9-1.9l0.9,4.4l-0.8,3.7l-3.9,0.4l-2.5,2.4l2.8-0.1
	l-1.7,2.3l-7,1.2l-0.5,2.6l-1.9,0.8l-0.2-2.3l-2.7,0.7l-0.2,2.3l-3.9,1.4L482.5,89.2z M459,55.2l-0.5-1.6l7.7-4.5l-1.4,2.2L459,55.2
	z"/>
<path class="st0" d="M493.8,110.7l2.4-0.5l0.7,2.5l1.6-0.2l0.5,4.4l-1.8,2.8l2-0.1l0.4,3.9l1.6-0.2l-1.1,5.2l-2,0.5l-4.7-9.6
	l0.9-2.9l-1.2-3.5L493.8,110.7z"/>
<path class="st0" d="M523.9,87.9l-0.4,0.2v0.1l-2,0.1l-0.5,2.1l-4.3,0.6l2.6,4.4l-2.2,1.7l-1.2,3.6l-0.5-4l-2.5-1l-2.6,1.6l-1.5-2.5
	l-2.8,0.5l-2.2-1.4l0.5-3.1l4.1-2.2l-2.1-0.6l1.1-4.5l1.9-0.7l6.6,1.6l1,1.9L523.9,87.9z M505.7,72.2l6.5-1.4l1.3,0.7l1,4.6l3.8,1.8
	l-0.6,1.2l-8-0.4l0.4,3l-3.4-2.2l-5.2-0.8l-2.8,0.1l2.5-2.4l3.9-0.4L505.7,72.2z M519.6,79l-0.3-2.5l2-0.2l1.5,2.6L519.6,79z"/>
<path class="st0" d="M532.3,126l1.1,5.1l-2.9,0.1l0.2,1.6l-2.5-0.1l-0.3-2.6l1.2-3.3L532.3,126z"/>
<path class="st0" d="M532.3,126l1.6-0.2l1,6.9l-2.5,0.5l-1.8-0.5l-0.2-1.6l2.9-0.1L532.3,126z"/>
<path class="st0" d="M538.7,115.7l-3.3,2.8l-5.2,1.7l-3.4-0.5l-0.6,1.7l-4,1l0.1,1l-3.8-0.9l-0.9-7.1l-4.1,0.3l1.4-2.3l-1.7-3.9
	l1-1.5l1.6-7.1l1.2-3.6l2.2-1.7l-2.6-4.5l4.3-0.6l0.5-2.1l2-0.1v-0.1l0.4-0.2l2.8,2.7l-1.2,3.2l1.7,0.9l0.5,7v0.3l-2,3.3l0.3,2.1
	l-3.6,3.5l0.5,3.9l3,0.9l1.8-1.9l1.8-4.7l3.9-1.7l3.7,2.9L538.7,115.7z"/>
<path class="st0" d="M498.5,136.2l1.2-0.1l2.1,3.9l-2.4,1.6l0.4,4.1l-3.8,0.4l-0.2,1.9l-1.3-0.8l3.5-7.5L498.5,136.2z"/>
<path class="st0" d="M515.9,100.8l-1.6,7.1l-2.4,0.3l-1-5.4l-8,0.8l0.7,2.8l-3.2,0.3l0.2,5.6l-2,0.2l-1.6,0.2l-0.7-2.5l-2.4,0.5
	l1.6-4.6l-0.5-4.6l1.9-1.1l-0.2-2.4l3.1-1.2l1.7-3.2l0.3,6.1l2.2-1.8l0-4.1l2.2,1.4l2.8-0.5l1.5,2.5l2.6-1.6l2.5,1L515.9,100.8z"/>
<path class="st0" d="M452.4,72.4l0.2,2.7l1.5-1.4l3.9-0.3l1.6,1.2l0.2,2.8l-1.6,0.1l-1.8,3.1l-6.4-1.4l0.1,1.6l-4.7,0.3l0.1,1.2
	l-3.9,0.2l0.1,2.7l-3.9,1.8l-0.3,2.6l-2.8,0.1l-1.2-1.5l1.1-1.4l-0.2-4l-5.5,0.2l-0.1-2.8l-3.9,0.1l-1.5,2.9l-5.5,0.1l-0.1-4h-1.2
	l-0.2-6.9h1.2l-0.1-3.5l1.5-0.4l1.1-3.2l1.5-0.1l-1.8-6.5l-2.7,0.1l-0.6-7.2l4.2,0.4l0.7-1.4l2,1.2l0.1,2.6l1.6,1.6l5.3-1.5l0.1,2.6
	l1.5-1.5l8.4-0.3l1.1-0.6l0.3,4.8l-9.2,9.9l-4.2,3.4l1.2,1.9l9.2-3.3l2.6-1.8l1,4.1l3.6,2L452.4,72.4z M451.2,54.1l0.3-1.2h3.5
	l-5.5,3.2L451.2,54.1z"/>
<path class="st0" d="M402.6,50.8v-1.5l6-4.1l0.4,1.6l7.5-1.8l0.2,7l0.6,7.2l2.7-0.1l1.8,6.5l-1.5,0.1l-1.1,3.2l-1.5,0.4l0.1,3.5
	h-1.2l0.2,6.9h1.2l0.1,4l5.5-0.1l1.5-2.9l3.9-0.1l0.1,2.7l5.5-0.2l0.2,4l-1.1,1.3l-2.7,1.8l0.1,2.8l1.7,2.7l4-0.6l1.4,3.9l-2.7,2
	l0.1,2.5l6-0.4l-1.1,2.8h2l0.5,2.3l-2.7,1.9l-5.3-1.1l-1.4-2.7l-7.2,0.2l0.7-1.6l-2-1.2l4-0.1l-1.3-2.6l0.7-2.9l2.7-2.1l-4-0.5
	l0.7-3.4l-6.8-0.3v1.1l0,0l-0.8-1.3l-2.2,4.5l0.5,3.4l-1.5,1.8l0.5,2.4l-0.4,0.4l2,1.3l0.8,0.4l-2.8,2.1l2,1.2l1.2,0.5l0.1,3.6
	l1.8,1.3l-6.9,0.2l0.1,2.8h-1.6l-2.3,4.1l-1.6,0.1l0.5,4.1l-1.2,2.5l-2.9,0.1v-2.5h-2.5v2.5h-1.6v-2.5l-3.3-1.2l0-4.2h1.6l-0.4-2.7
	l-8.2-3.2v-4.8l-4-0.1l-1.6-1.2v-2.9l-1.6-2.7l2.8-0.8l-2-2l0,0l-2-1v-3l-2.8-1.5l-3.2-0.1l-0.4-0.8l2-0.4l-0.4-2.7l0.8-1h-2.8v-1.8
	h9.1l2.8,1.4v-4.1l2.8-1.4l-0.4-2.7l2.7-1.2v-4.2l5.5-0.1l2.7-4.2v-2.9l2.7,1.4v-2.7l3.5-0.1l-1.6-3.7l-3.5,0.6l1.5-3.6l4.2-1.5
	l-0.5-3.1l-3.5-1.9l-1.9,0.2L402.6,50.8z M396.9,83.5l0.1,5.4l-1.6,1.4h-4l-1.2-1.4V96h-5.5l2.8,1.2l1.6,2.7h2.8l2.4-4l5.6-0.1v2.6
	l6.8-0.1v-1.2l4.4-1.1l-0.2-8.4l-2.7,1.5l-7.1,0.9l-1.2-1.1l-0.1-6.8l2.7-0.6l-0.1-3.6h-3.1l-1.1,5.5L396.9,83.5L396.9,83.5z
	 M412.9,82.3v-1.7l-3.1,1.8L412.9,82.3z M423.6,52l-1.9-1.2L423.6,52z"/>
<path class="st0" d="M430.8,134.6l-5.4,0.2l-3.8-1.5l0.7-3.3l2.9-0.1l1.6-1.9l-1.7-2.6l-14.7,0.4l-0.5-4.1l1.6-0.1l2.3-4.1h1.6
	l-0.1-2.8l6.9-0.2l-1.7-1.3l-0.1-3.6l-1.2-0.5l3.1-2v-0.8l4,0.3l7.2-0.2l1.3,2.7l0.5,3.1l-2,1.2l-1.7-1.1l0.9,2l-0.7,2.6l0.6,4.1
	l-0.6,4.1l-1.2,0l0.2,5.3l1.4,2.7L430.8,134.6z"/>
<path class="st0" d="M420.3,91.6l0.8,1.3l0,0v-1.1l6.8,0.3l-0.7,3.4l4,0.5l-2.7,2.1l-0.7,2.9l1.3,2.6l-4,0.1l2,1.2l-0.7,1.6l-4-0.3
	l-3.2-0.9l-2-1.3l0.4-0.4l-0.5-2.4l1.5-1.8l-0.5-3.4L420.3,91.6z M419.3,109l-2-1.2l2.8-2.1l2.5,1.2L419.3,109z"/>
<path class="st0" d="M476.5,331.6l-1.6-1.5l-0.2-2.8l1.5-0.1l6.3-0.8l0.8,3.7l-6.2,2.5L476.5,331.6z"/>
<path class="st0" d="M474.4,302.5l2.9-0.2l0.2,2.6l2.9-0.2l0.3,3.5l5.6-1.4l0.2,3.1l1,6.4l-2.9,0.2l0.2,2.8l-1.9,0.1l-0.4,7
	l-6.3,0.8l-0.2-2.7l-6.7,1.9l1.2-4.3l1-0.1l-0.5-6.7l-1.9,0.1l-0.6-2.5l2.4-0.9l0.8-2.5l3.2-2.3L474.4,302.5z"/>
<path class="st0" d="M474.4,302.5l-0.8-11.3l7.1-0.4l-0.4-5.7l6.6-0.5v5.7l1.7,3.7l1.4-0.1l3.5,2.2l-2.2,1.7l1.6,1.9l-0.8,2.3
	l-1.3,1.7l1.1,2.2l-1.8,2l1.6,1.6l-5.3,0.4l-0.2-3.1l-5.6,1.4l-0.3-3.5l-2.9,0.2l-0.2-2.6L474.4,302.5z"/>
<path class="st0" d="M470.5,280.2l-3.7,1.3l-0.1-1.7l-4.2,0.1l-0.1-2.1l-4.2,0.2l-0.1-1.3l2.8-0.5l1.2-2.6l0.5-6.1l3.7-0.1l0.5-0.3
	l-0.1-1.4l4.1-1.3l2,1.5v6.8l2,1.5l5.1-0.6l0.2,3l-3.7,1.2l0.6,2.3l-2.8,0.3l-0.1-1.9l-3.7,0.3L470.5,280.2z"/>
<path class="st0" d="M486.8,284.5l-6.6,0.5l-3.8,0.3l-1.7-3.7l-1.8,1l-2.5-2.4l-0.1-1.4l3.7-0.3l0.1,1.9l2.8-0.3l-0.6-2.3l3.7-1.2
	l-0.2-3l-5.1,0.6l-2-1.5v-6.7l-2-1.5l4-2.1l0.1,2.1l2.3-0.2l-0.1-1.8l6.9-1.2l0.7,2.6l2.3-0.6l-0.1,4.6l5.3,2l-0.3,2l-3.3,0.1
	l-0.3,1.9h-1.4l-0.1,4.9l1.8-0.9l-0.1,4.8l-2-1L486.8,284.5z"/>
<path class="st0" d="M464.3,215.1l2.2-0.7l-0.6-2.7l3.1-0.1l0.4,5.7l2.2-0.2l1.9,1.1l-1,5.1l-1.6,3l0.6,2.6l0.5,1v0.5l-0.3,1.3
	l-1.2,1.7l-4,0.5l1.1,3.2l-2.1,2.4l0.6,1.7l-1.9-1.9l-0.7-4.4l1.8-0.3l-1.5-2.5l-2.7,0.1l-1-2.4l0.2-3.6l-1.8-0.2l-1.3-6.1l1.8-0.3
	l-0.6-2.3l3.4-2.3l0.3-2.2l0.5,0.5l0.9,0.4L464.3,215.1z"/>
<path class="st0" d="M440.5,182.7l3.6,4l1.4,1.4l-4.7,1l0.6,3.6l3,0.1l-1.1,4l-1.7,0.1l0.2,4l0.5,0.1l0.1,2.8l-2.1,1.3l0.2,4.8h-4
	l-2.1,2.4l-4.4,0.1v1.1l-2.6,1l-5.3,0.1l-0.1-2.6l-0.1-4.8h-5.3l-0.3-12.8l0.4-1.9l4.3-2.1l-2.2-0.9l-0.1-2.1l0.8-1.9l-1.8-1.3
	l-0.3-10.4l1.7-1.8l10.2-0.6l0.2,4.8l4.7-0.2l0.1,2.4l0.2,4.6l-2.5,1.4l5.6-0.1l0.8-2L440.5,182.7z M417.1,192.9l2.1-2.7l1.7,0.3
	L417.1,192.9z M441.5,184.3l2.6-0.1l-1.2,1.6L441.5,184.3z"/>
<path class="st0" d="M397.3,211.2h2.2v-2l3.5-0.5l2.3,3.8l1.8,0.1l1.4,4.6h3.1l0.1,2.8h-1.8l0.4,17.1l-4.5,0.1v-1.8l-2.2-0.2
	l0.5,4.7l-4.1,0.8l-1.4,0.4l-0.1-7.6l-5.4-1.4l0.4-2.8h1.8l2.2-1.9L397.3,211.2z"/>
<path class="st0" d="M392,209.5l0-9.8h0.9l1.3-1.1l0.9-3.3l-1.3-2.4h2.2v-2h-4.8l-0.5-6l2.2,0.2v2.1l3.4-4l3.5,1.7l-3,4.2l4.4,5.8
	l3.9,0.5l2.1-1.8l2.2,1.7l2.6-1.4l4.3-0.2l0.4-1.2l-0.4,1.9l0.3,12.8h5.3l0.1,4.8h-4.4l-0.8,4.2l-7.1-1.2v-2.3h-2.6l-1.8-0.1
	l-2.3-3.8l-3.5,0.5v2h-2.2l-4,0.5L392,209.5z M393.2,180.6l0.8-2.9h1.7v-2.8l3.4-2.3l15.4-0.4v1.7h3l0.3,10.4l1.8,1.3l-0.8,1.9
	l0.5,2.8l-2.1,2.7l-8.2,2.3l-2.2-1.5l-1.7,1.4l-4.8-0.8l-0.9-2.9l-2.6-2.3l1.7-2.2l0.4-3.6l-2.6,0.3L393.2,180.6z"/>
<path class="st0" d="M379.4,188.7h-0.4h-5.2v-2.8h-3v-2.7l-3.4-1.5l0.5-1.8l-3.4,0.5l-1.8,4.1l-1.2-3l-2.6-0.1l-0.1,2.8l-2.6-0.1
	l0.1-2.8l-20.2-0.7l-0.3-2.7l-3.9,1.2l0.2-4.2l1.3,0.1l0.3-5.6l-4.2-0.2l-0.3,5.6l-3.9-0.2l0.1-1.4l-3-0.8l0.2-3.4l3,0.1l1.5-4.7
	l-3,0.3l0.4-6.7l-1.7-0.1l0.3-5.6l-5.4-0.3l0.3-5.6l7.5,0.5l-0.9-5.6l-3.3-0.2l0.7-4.1l2.1-1.3l-0.2-3.3l2.5,0.1l11.5,0.6v9
	l-3.3-0.2l-0.1,2.8l2,0.8l0,2.1l4.1,0.8l-0.2,3.9l4.1,1.2l2,1.8l-0.9,2.3l5.5,0.2v1.4l-5.2,2.4l-0.1,3l-2.1-0.1l-0.5,3l2.5,0.1
	l-0.1,3l3,0.3l-0.2,6.3l3.9,0.2l1.3-1.5l-1.2-2.8l1.4-2.8l5.5,0.2l1.4-4.4l2.1-1.6l1.7,0.5l0.5-2.5l1.7-1.6l-0.1,4.1l3.4,0l0.1-5.5
	l1.7,0.3l3.8-1.1l2.5,5.1h4.2v1.3l2.5,1.4l0.4,11.2h3.4v4.1l-6.5,0.1v2.8L379.4,188.7z"/>
<path class="st0" d="M399.1,172.5l-3.4,2.3v2.8H394l-0.8,2.9l-0.9-2.8l-2.1-0.9l-1.3-3.4l-1.3-8.4l-3.8,1l-1.7-2.3h-4.2l-2.5-5.1
	l-3.8,1.1l-1.7-0.3l-0.1,5.5l-3.4,0l0.1-4.1l-1.8,1.6l-0.5,2.4l-1.7-0.5l-2.1,1.6l-1.4,4.4l-5.5-0.2l-1.4,2.8l1.2,2.8l-1.3,1.5
	l-3.9-0.2l0.2-6.3l-3-0.3l0.1-3l-2.5-0.1l0.5-3l2.1,0.1l0.1-3l5.1-2.3v-1.4l-5.5-0.2l0.9-2.3l-2-1.8l-4.1-1.2l0.2-3.9l-4.1-0.8
	l0.1-2.1l-2-0.8l0.1-2.8l3.3,0.2v-9l6.2,0.3l0.7,3.4l4.1-0.2l4.6-2.9l4.1,0.1l2,1.9l2,1l0,0l0.4,0.3v0.1l0.4,0.3l0.4,0.3l3.3-0.9
	l-1.3,4.7l7,0.1l1.3-1.3v2.8h-1.7v3.4l1.6,2.1h3.8v1.5l6.3-0.8l0,0l-1.3-3.6v-0.4h2.9l2.5,1.4l1.3,2.8l1.7-2.8h5l1.7,2.4l0.5,8.8
	l4.2,0l0.1,5.6l-1.7,1.3l0.1,5.5L399.1,172.5z M382.1,165l3.8-0.2l2.1,1.2l0.9,7.3l1.3,3.6l2.1,0.8l0.5,3.2l1.7,0.7h-6v-4.1h-3.4
	l-0.4-11.2L382.1,165z"/>
<path class="st0" d="M661.2,68.2l1.5,3.8l-0.8,3.1l1.6-0.4l0.4,1.5l-4.4,0.9l1,2.1l-0.2,0.8l-0.2,2.5l-4.7,2.9l-0.5,3l2.1,0.1
	l3.2,4.1l-2.4,0.5l1.2,2.8l-2.9,0.1l1.7,1.6l-0.2,4.3l1.4,2.1l-4,0.9l-2.8,0.7l-2.1-3.1l-2.7-0.5l-0.7-2.9l2.2-4.7l-0.8-3.2
	l-2.1-0.1l-1.8-2.4l1.5-4.1l4.8,0.6l1.6-3.4l-2,0.3l0.8-3.4l-1.4-0.7l0.5-2.8l-2.7-0.8l-2.7-4l11.6-3.1l-0.1-3.6l3.8-1.2l1,3.9
	l0.1,0.2L661.2,68.2z"/>
<path class="st0" d="M662.9,103.2l-4.1,0.8l-1.4-2.1l0.2-4.3l-1.7-1.6l2.9-0.1l-1.2-2.8l2.4-0.5l-3.2-4.2l-2.1-0.1l0.5-3l4.7-2.9
	l0.2-2.5l1.8,3.8l4.1-0.5l1.7,4.9l-2.6,1.2l2,5.8l3.4-0.1l1.6-0.4v3.1l-4.3,1.6l-0.9,2.9L662.9,103.2z"/>
<path class="st0" d="M632.8,164.8l-0.5-2.2l1.6-2.7l0.6-3.4l-0.5-0.3l1.5-3l2.2-1.8l2.7,0.2l0.3-2.5l2.1-4.3l3-0.4l0.8,6.9l-0.2,4.9
	l-2.3,3.4l-3,10.1l-1.6,0.7v-3.9h-2.7L632.8,164.8z"/>
<path class="st0" d="M643.4,139.7l-1.6-1.2l0.6-1.1l0.2-4.8l-1-0.6l1-1.3l2.2,5.6l-0.8,3.8L643.4,139.7z"/>
<path class="st0" d="M640,138.1l0.7,4.9l-0.2,1l-4-0.4l-2.9-1.4l-3-3.4l1.4-1.7l1.7-5.9l-3.1-0.5l0.8-2l3.3,1.2l2,3.2l1.8,0.5
	l0.1,4.1L640,138.1z M630.6,131.1l3,0.1l-0.7,4.3l-3.2,1.1l-0.1-2.3L630.6,131.1z"/>
<path class="st0" d="M642.9,144.9l-2.1,4.3l-4.7-1.5l0.4-4.2l4,0.4l0.2-1l1.8,0.2L642.9,144.9z"/>
<path class="st0" d="M643.4,139.7L643.4,139.7l0.5,0.4l-1.5,3.1l-1.8-0.2l-0.7-4.9l1.8,0.4L643.4,139.7z"/>
<path class="st0" d="M640,138.1l-1.4-0.4l-0.1-4.1l1.9,0.7l0.1,2.5l1.9,0.8l-0.6,1.1L640,138.1z"/>
<path class="st0" d="M641.6,132l1,0.6l-0.2,4.8l-1.9-0.8l-0.1-2.5l-1.9-0.7l-1.8-0.5l2.5-4L641.6,132z"/>
<path class="st0" d="M643.9,118.1l-1.2,0.5l0.8,5.4l1.5,1l-1.4,3.3l-1.5,0.8l-0.3-3.2l-6.3,0.6l-0.9,3.5l-3.3-1.2l-1.6-1.4
	l-2.8-10.6l1.8-1.5l2.4,1.2l2-2.4l-3.2-2.6l-2.8,2.7l-2-1.3l-3.5,1.3l1.4-3.3l1.6-2.1l6.2-2.6l-1.6-3.3l-1.8-0.5l1.9-2.9l-1.4-4.2
	l5.1-5.1l0.7,1.1l3-1.6l0.9,3.9l1.3,0.3l0.6-0.9l2.2,0.5l1.6,4.8l2.8-0.6l0.4,1.4l0.7,2.9l2.7,0.5l2.1,3.2l-2.9,0.5l-0.4-1.7
	l-2.3,0.8l-0.8,3.5l4,0.6l0.2,2.4l1.8,2.2l-8.3,1.2L643.9,118.1z"/>
<path class="st0" d="M621.7,114.2l3.5-1.4l2,1.3l2.8-2.6l3.2,2.7l-2,2.4l-2.4-1.2l-1.8,1.5l2.8,10.6h-0.9l-0.7-1.1l-0.5-0.1
	l-3.5-2.1l-4.5,1l0.9,4.3l-4.5-0.8l-1-2.5l-1.6,0.4l-1-4.8l0.4-2.1l4.9-0.7l-1-4.9L621.7,114.2z M624.8,124.3l1.1,1L624.8,124.3z"/>
<path class="st0" d="M647,136.2l-2,2.5l0.5-1.7L647,136.2z"/>
<path class="st0" d="M594.4,130.2l-0.7,2.7l-1.5-1.1l-3.7,0.5l-2.7-3l0.4,2.4l-2.9,0.5l1.1-3.1l-3.9-2.7l-3.8,2.5v-2.5l2.9-2.6
	l2.6-4l-1.2-4.4h-2.1l-0.5-2.9l4.6-2.4l4.8-1.1l1.4,3l2.8,1.5l-0.8,2.7l-3.8,2.3v2.2l2.7,2.9l-0.6,1.6l3.5,0.8l-0.9,4.4L594.4,130.2
	z"/>
<path class="st0" d="M623.1,110.9l-2.6-0.1l-0.7-5l1.2-2.1l-4.2-2.1l4.7-3.3l-2.1-7.4l2.9-0.1l1.7,3.7l3.1-1.1l0.8,1.9l1.4,4.2
	l-1.9,2.9l1.8,0.5l1.6,3.3l-6.2,2.6L623.1,110.9z M609.1,122.6l1.2,5.9l-4.9,1v-4.1l1.2-2.3l-2.8-1.5l1.4-1.5l0.2-0.9l2.3,0.8
	L609.1,122.6z"/>
<path class="st0" d="M649,140.9L649,140.9h-2.6l-1.1-0.8l-0.1-0.2l0.2-0.8l2.4-2.6l5-1.2l1.4-1.4l4.9-1.5l2.5-2.4v1.6l3.7-0.9
	l-2.4,2.5l-5,3.2L649,140.9z M646.9,141.4l-0.1-0.2L646.9,141.4z"/>
<path class="st0" d="M645.3,140.2l1.1,0.8L645.3,140.2z M644.9,136.9l0.5,0.1l-0.5,1.7L644.9,136.9L644.9,136.9z M645.2,139.9
	l0.2-0.8L645.2,139.9z M649,140.9L649,140.9z M646.9,141.4l-0.1-0.2L646.9,141.4z"/>
<path class="st0" d="M587.9,109.2l5.3-0.5l2.3,1.3l6.7-1.9l2.2-1.7l1.4,2.6l-0.1,3.3l1.2,4l2.3-1.2l0.6,3l2.4-0.6l0.8,1.8l-0.4,2.1
	l-3.6,1.1l-1.4-2.5l-2.3-0.8l-0.2,0.9l-1.4,1.5l-2.4,2.7v2l-2.4,2.9l-4.5,0.9l-2,0.4l0.9-4.4l-3.5-0.7l0.5-1.5l-2.7-2.9v-2.2
	l3.8-2.3l0.7-2.7l-2.8-1.5L587.9,109.2z"/>
<path class="st0" d="M606.9,116.3l-1.2-4l0.2-3.3l-1.4-2.6l3.4-3.7l2-0.7l-2.2-4.6l1.9-0.9l-3.5-2.8l4.1-3.9l3.4-7.4l3.3-3.9
	l0.3,8.9l3.6-2.6l1.8,6l-2.9,0.1l2.1,7.4l-4.7,3.3l4.2,2.1l-1.2,2.1l0.7,5l2.6,0.1l-1.4,3.2l-4.8-0.4l1,4.9l-4.9,0.7l-0.8-1.8
	l-2.4,0.6l-0.6-3L606.9,116.3z M616.1,105.9l-3.9,1.3l4.1-0.3L616.1,105.9z"/>
<path class="st0" d="M641.9,125.8l0.7,5l-1,1.3l-2.4-2.9l-2.5,4l-2-3.2l0.9-3.5L641.9,125.8z M642.2,129l1.5-0.8l4.5,2.7l-1.9,3.1
	l1.1,1.1l-0.6,1.2l-1.5,0.8l-0.5-0.1l-0.5-4.2L642.2,129z"/>
<path class="st0" d="M555,233l1.9,0.2l2.3-2.8l1.5,0.6l5.8-1l0.2,4l-1.5-1l-1.9,2.5l2,4l-4.5,1l-0.2,2v3.3l-4.8,1.7l-5.2,2.7
	l-2.4-0.5l-2.6,1.2l-1.7-2l-4.6,0.5l-0.7-2.2l0.6-2.8v-0.1l2.1-1.8l3.6-0.5l4.5-4.2l1.9-2.9L555,233z"/>
<path class="st0" d="M575.9,237.6l0.7-1.2l2.6-0.9l0.9-3.2l3.9,1.4l1.2,1.6l2.8,2.6l0.8,4.8l2.3-0.1l4.4,0.9l-0.8,3.1l-7.8,1.1
	l1.9,2.7l-3.1,4l-3.5-1l-0.7,1.3l-1-0.2l-0.3-2l-2.9-3.4l-5.5,0.9l-0.5-3.5l1.1-2l-7.8,0.8l-2.3-3l-1.8,0.3l0.2-2l4.5-1l-2-4
	l1.9-2.5l1.5,1l1.5,0.7l1.5,3.8L575.9,237.6z"/>
<path class="st0" d="M606.8,216.3l0.4-0.1l0,0l1.8-0.3l0,0l0.4-0.1l0,0l0.4-0.1l0,0l2.2-0.4l-0.3,5.6l-3.3-0.3l-2.8,1.8v2.4
	l-2.8-0.2l0.4,2.4l-3.4,1.6l2.1,4l0.2,3.8l-2.9,2.1l1.5,0.5l1.6,3.8l-1.1,1.5l3.3,0.1l1.2,1.7l0.2,3.6l-2.2,3.5l-9.1-6.5l0.9-3.1
	l-4.4-0.9l-0.2-4.2l3.2-3.2l0.1-1.9l2.6-0.9l-0.5-2.5l-3-1.5l-0.9-5.3l1.4-2.4l-2.2-1.7l-6.2,1.1l-0.7-4l4.7-1.6l-0.1-3.3l1.7,2
	l3.1-0.3l1.8-2.9l3.8,0.6l0.2-1.5l2.8,0.1l3.7,2.5l-2,3.7L606.8,216.3z"/>
<path class="st0" d="M591.2,242.5l-2.3,0.1l-0.8-4.8l-2.8-2.6l4.9-3.9l-1.6-3.8l-1.5-0.8l-1.6-6.7l6.2-1.1l2.1,1.7l-1.4,2.4l0.9,5.3
	l3,1.5l0.5,2.5l-2.6,0.9l-0.1,1.9l-3.2,3.2L591.2,242.5z"/>
<path class="st0" d="M623.8,246.4h-1.9l-1.8-4.5l-2.5-0.6l-3.2,2.9l-1.4-4.8l3.3-2.4l-0.4-7.1l1.5-1.7l-2.4-2.9l3.4-1.5l0.8-2.8
	l2.2-0.4l-2.7-2.1l2.8-2.2l-1-2.7l3.5-0.7l3.4,0.8v2.5l-0.4,2.5l1.5,2.8l7.9-2.2l1.5,5l1.8-0.1l-1.3,4.9l-4.4,1.4l-2-0.7l0.5-2.1
	l-2.2,0.7l1.3,1.8l-5.7-0.3l5.4,1.2l1.7,3.7l-2.2,3.2l3.3-2.2l5.3-1.8l-4.5,7.6l-3.3-0.2l-4.3,1.8L623.8,246.4z M625.1,241l-0.3-1.6
	l-2.9-0.5l0.3,1.6L625.1,241z M637.3,227.6l-0.3-1.5l-2.5,1.5L637.3,227.6z M627.5,216.1l1.8-0.2l1.5,2.9l-2.6,1L627.5,216.1z"/>
<path class="st0" d="M566.6,233.9l-0.2-4l1.3-0.2l2.1,1.7l4-1.1l-0.4,3.2l0.6,0.8l2.1,1.6l-0.2,1.7l-6.3,0.9l-1.5-3.8L566.6,233.9z"
	/>
<path class="st0" d="M614.4,244.2l-0.8,3l-3.6-3.9l-5.4,1l-3.3-0.1l1.1-1.5l-1.6-3.8l-1.5-0.5l2.9-2.1l-0.2-3.8l-2.1-4l3.4-1.6
	l-0.4-2.4l2.8,0.2v-2.4l2.9-1.9l3.3,0.3l0.3-5.6l7.1-1.4l1.3-0.3l1,2.7l-2.8,2.2l2.7,2.1l-2.2,0.4l-0.8,2.8l-3.4,1.5l2.4,2.9
	l-1.5,1.7l0.4,7.1l-3.2,2.4L614.4,244.2z"/>
<path class="st0" d="M604.6,244.3l5.4-1l3.6,3.9l0.8-3l3.2-2.9l2.5,0.6l1.8,4.5h1.9l-3.5,4l-1.6,6.7l-3.8,0.1l-2.6,1.2l-2.1-0.9
	L610,256l-6.2-2.9l2.2-3.5l-0.2-3.6L604.6,244.3z"/>
<path class="st0" d="M569.8,219l5.7-1.3l1.4-2.4l2.2,2.4l4.2-2.2l1.5,0.8l0.7,4l1.6,6.7l1.5,0.8l1.6,3.8l-4.9,3.9l-1.2-1.6l-3.9-1.4
	l-0.9,3.1l-2.6,0.9l-0.5-0.5l-2.1-1.6l-0.6-0.8l0.4-3.2l-4,1.1l-2.1-1.7l-0.6-4l-2.3,0.1v-3.3l2.3-0.1L569.8,219z"/>
<path class="st0" d="M402.6,50.8l0,3.1l1.9-0.2l3.5,1.9l0.5,3.1l-4.2,1.5l-1.5,3.6l3.5-0.6l1.6,3.7l-3.5,0.1v2.7l-2.7-1.4v2.9
	l-2.7,4.2l-5.5,0.1v4.2l-2.7,1.2l0.4,2.7l-2.8,1.4V89l-2.8-1.4h-9.1v1.8h2.8l-0.8,1l0.4,2.7l-2,0.4l0.4,0.9l-3.6,0.5l-1.6,1.4l0-4.2
	l-2.8,0.9l-5.5-0.1l0.2-5.5l-3.1-0.1l0.5-2.7l-8.3-0.2l0.1-2.7l2.4-1.3l-2.7-1.5l-5.5,0.1l-1.5-3.1l6.6,0.2l0.1-2.6l-4.3-0.1
	l0.1-2.9l2.3,0.2l0.2-5.4l-6.9-0.3l1.3-2.7l-2.7-0.1l0.1-2.7l6.5,0.3l1.2-2.8l0.1-2.7l-1.5-0.1l0.1-2.7l2.7,0.1l0.1-2.8l2.7,0.2
	l0.1-2.8l3.8,0.3L359,60l13.8,0.3v2.8l1.6-1.4h5.4v1.4l5.4,1.2v-2.6h1.5l-1.5-2.8v-3.1h-4.2l-1.5-4.1l-0.4-5.1h3V44l2.6,1.4l2.6-1.4
	v2.8h2.6v2.6h4.2v2.7h-3.8v2.7h3.8l0.8,2.4l4.2-0.4v-1.6L402.6,50.8z"/>
<path class="st0" d="M552.1,152.6l1.9-1.6l-0.4-2.2l4.6-0.9l3.2-1.6l0.9,5.6l-10.2,3.2L552.1,152.6z"/>
<path class="st0" d="M562.3,151.9l1.7,5.2l0.4,2.2l-2.4,4.2l-2.3,1.6l-4.4-3.1l-6.4,0.8l1.1-4.3l-1.1-4.3l3.2-1.5l-0.1,2.5
	L562.3,151.9z"/>
<path class="st0" d="M521.1,193.1l-0.7-1.7l-2.6,0.3l0.1-3.2l-4.4-0.3l2-2.1l-0.7-2.3l2-2l3.9-0.3l-0.3-2.2l3.9-0.5l0.4,3.6l4.1-2.4
	l5.5-1.5l3,2.8l0.4,3l3.2,0.8l-0.7,7.8l-2.3-0.6l-2.9,1.3l-0.5-0.8l-5.4-1.1l-1.3-3.3l-2-1.4l-5.1,1.4l1.6,2.8L521.1,193.1z"/>
<path class="st0" d="M563.3,136.8l1.8,3.1v2.4l-3.5-0.3l-0.2,4.2l-3.2,1.6l-4.6,0.9l0.3,2.2l-1.9,1.6l-3.2,1.5l-0.3-1.5l-5.4,1.3
	l-0.2-1.4l-3.8,0.1l-1.6-2.5l1.1-1.5l3.3-1l2.7,0.7l3.5,0.7l0.3,2l2.1-0.5l-0.7-4.8l2.5-0.2l4-4.4L563.3,136.8z"/>
<path class="st0" d="M557.7,183.8l-0.8,3.2l-2-1.6l-1.1,1.7l0.3,5l-1.2,1l-2.7-3.4l-2.5,0.7l-0.9,3l-1.3-2.7l-2.8,2.4l-2.7-0.1
	l0.7-7.8l-3.2-0.8l-0.4-3l-3-2.8l-0.3-2l1.1-1.8l-0.3-5.9l-5.2,0.2l-1.2-5.7l2.2,0.6l1.1-4.9l3.7-1.3l1-2l3.3-0.4l-0.4-2.8l3.8-0.1
	l0.2,1.4l5.4-1.3l0.2,1.5l1.1,4.3l-1.1,4.3l6.4-0.8l4.4,3.1l2.4-1.5l4.7,10.2l-2.9,4.1l-3.7,1.4l-4.6,1.5l0.1,3.9L557.7,183.8z
	 M542.5,195.1l-2.3-0.5l1.2,2.7l-4-0.4l1.2-4l2.3,0.6l4.5-2.8l0.2,1.1l-2.1,0.8L542.5,195.1z M560.4,178.7l1.2-0.6L560.4,178.7z"/>
<path class="st0" d="M519.1,169l-0.6-4.8l2.9-0.8l0.1-2.6l2.1-0.5l-0.7-5.5l4.2-0.5l1.3-0.2l0.5,4.2l2.7,0.9l-1.1,4.9l-2.2-0.6
	l1.1,5.7l5.2-0.2l0.3,5.9l-1.1,1.8l-3.7-1.4l-0.6,2.4l-5.5,1.2l-3.9,0.5l-0.8-6.9l1.6-1.5L519.1,169z"/>
<path class="st0" d="M544.7,148.3l5.2-2.6l0.7,4.8l-2.1,0.5l-0.3-2L544.7,148.3z"/>
<path class="st0" d="M524.2,178.8l5.5-1.2l0.6-2.4l3.7,1.4l0.3,2l-5.5,1.4l-4,2.3L524.2,178.8z"/>
<path class="st0" d="M527.1,154.2l-3.2-1.4l-1.5-2.2l-1-4.3l7.1-1.1l-2.6-0.3l2-4.1l3.9-2.1l2.7,1.2l-2.8,4.1l5.4,2l1.6,2.5l-1,1.5
	l1.6,2.5l0.4,2.8l-3.4,0.5l-1,2l-3.6,1.3l-2.7-0.9l-0.5-4.2L527.1,154.2z"/>
<path class="st0" d="M572,147.8l-0.6,4l-2.8,1.4l0.3,2l-4.9,1.9l-1.7-5.2l-0.9-5.6l0.2-4.2l3.5,0.3V140l1.4,0.8l0.3,1.7l0.5,3.4
	l2.2,0.4l0.3,2L572,147.8z"/>
<path class="st0" d="M350.4,263.2l-0.8-4.2l2.8,0.1l0.1-2.8l2.3,0.1l-0.6,5.2l3.3-2.3l0.1-2.8l1.8-0.2l-0.1,4.7l-2.4,2.5l2.3,0
	l-0.1,2.8l6,0.1l0.8,6.2h-2.8l1.3,4.9l-2.8,2l-0.9-1.3l-1.8-1.2l0-2.4l-2.3,0.4l-1.3-2.3l-2.8-0.5l-0.1,2.2l-2.3,0.4l-5.5-1.5
	l0.1-1.9l2.9-4.8l2.3-0.5l6.9,0.8l-0.9-1.4h-3.2l0.1-2.1L350.4,263.2z"/>
<path class="st0" d="M129.9,119.9l-13-3.2l2.5-11.7l-6.4-1.6l0.7-2.6l-6.9-4.5h-3.8l-2.3,3.8l-3.2-0.9l1.5-5.6l-5.3-0.8l-3.9,4.6
	l-2-4.9l3.1-0.3l1.6-4.3l-0.8-1.6l0.4-1.4l2.5-2.8l4.2-6.1l0.3-1.1l-0.4-1.4l2.3-5.1l1-2l7.4,1.9l1.9-5.6l3,2.8l2.3,0.7l0,0
	l-0.2,5.4l1.6,0.4l1.7-1.9l4.3-0.6l13.6,3.4l3,1.3l-5.8,10l3.1,0.8l-4.9,20.7L129.9,119.9z"/>
<path class="st0" d="M62.6,90.2L62.4,88l1.7-2.6l1.9-4.6l3.3-2.5l3.4-7l1.2-4l1.9,0.6l-2.7,3.3l3.1-0.5l1.2-2.5l1.1-2.2l-0.3-3.2
	l1.7-1.4l6.4,2.3l0.1-0.4l1.9-0.7l4.8,2.1l-0.5,1.8l-2.5,2.8l1.8,1.2l-2.6,1.7l9.8,2.6L98.7,76l-3.9,0.3l-2.5-1.6l-2.9-0.1l-0.4,4.3
	l-2.9-0.1l1.5,2.3L85,84.4l6.7,1.9l0.8,1.6l-1.6,4.3l-3.1,0.3L82.9,93l-1.3,1.4l-5.5-0.3l0.3-2.4l-2-2.1l-3.8-0.3l-0.1,1.6l-4.5,0.6
	L62.6,90.2z M94.5,82.2L92,85l-4.1-3.5l1-2L94.5,82.2z"/>
<path class="st0" d="M82.1,115.6l-4.6-2.1l0.2,3.9l-5.5,0.8l0.4,3.1l-2-0.7l-3-3.3l0.1-1.9l0.7-0.9l3.5,1.6l-0.1-4.1l2.6-2.9
	l-1.7-1.6l-3.1,1.7l0.3-2.7l7.4,1.6l1.4-1.6l4.9,1.2l1.7-5.9l-4.6-2l-0.4,2.8l-2.6,3.1l-7.4-1.6l-6.7,3.2l-0.6,3.4l-0.4-0.1
	l-1.2-0.4l0,0l0.5-4.5l-1.1-0.8l1.8-3.1l-1.7-4.5l1.7-7l3.5,1.3l4.5-0.6l0.1-1.7l3.8,0.3l2,2.1l-0.3,2.4l5.5,0.3l1.3-1.4l4.9-0.5
	l2,4.9l3.9-4.6l5.3,0.9l-1.5,5.6l3.2,0.9l2.3-3.8h3.8l6.9,4.5l-0.7,2.6l6.4,1.6l-2.5,11.7l-9.3-2.3l-1.8,3.5h-2.2l2.3-4L95.1,111
	l-2.8,2.5l-1.3,4.9l-2.3-1.2l2.2-3.2l1.1-3.9l-2.6,1.5l-2.4,4l-1.8-1.5L82.1,115.6z M98.7,120.5l-0.7,0.9l-1.7-0.2l-3-4.9l4.6,0.6
	L98.7,120.5z"/>
<path class="st0" d="M116.4,66.1L116.4,66.1l-2.3-0.7l-3-2.8l-1.9,5.6l-7.4-1.9l0.2-0.9l1.5-2.5l-0.2-3.6l1.3-1.6l-3.2-2l0.1,2.6
	l-3.4,0.2l-2.3,5.2l-4.1-0.2l-1.2-1.8l0.7-2.5l-4.2-1.2L81,57.8l-1.1,3.6l-1.7,1.4l0.3,3.2l-1.1,2.2l-1.6-0.3l-1.9-0.5l2.2-7.4
	l3-4.6l5.4-16.4l7,2.6l-1.4-2.2l-4.6-1l-1.9-1.7l2.8-2.5l4.7,3.5l19.5,5.6l-1.4,5.2l12.5,3.5l-0.5,2l1.4,2.4l2.1-0.1h7.7l3.7-0.1
	l2.3,0.5l1.5,4l5.2,1.9l1.2-1.7l2.7,0.6l-1.8,2.3l0.7,5.9l3.4,4.9l-3.1-0.7l-3,0.7l-3.4-3l-1.4,2.4l-3-1.3l-13.6-3.4l-4.3,0.6
	l-1.7,1.9l-1.6-0.4L116.4,66.1z M125.6,56.1l1.5-4.2l4.6,1.2l-0.4,3.3L125.6,56.1z"/>
<path class="st0" d="M95.9,63.7l6.2,1.7l-0.2,0.9l-1,2l-8.3-1.7l0.5-1.8l-4.8-2.1l-1.9,0.7l-0.1,0.4l-6.4-2.3l1.1-3.6l6.2,0.3
	l4.2,1.2l-0.7,2.5l1.2,1.7L95.9,63.7z"/>
<path class="st0" d="M617.5,144.4l-1.2-1.7l2.7-1.8l2.6-1.9l1.2,1.5l3.2-1.5l-1.2-1.5l0.2-1.1l4.7-2.1l0.1,2.3l3.2-1.1l-0.9,1.7
	l-1.4,1.7l3,3.4l-0.9,3.6l-0.9-0.1l-0.1,1.3l0,0.2l0.4,1.9l-3.5,1.8l-2.5-3.5l-4.1-0.7l1.8-1.5l-1.2-1.3L617.5,144.4z"/>
<path class="st0" d="M588.2,149.9l-0.4-2.2l3.6-1.7l0.3-3.1l4.1-1.3l2.9,1.5l-2,2.8l1.5,1l-2.5,2.9l2.8,1.1l3.6-1.5l-1.8,3.9
	l2.4,1.1l-1.6,5.3l-2.7-0.5l-0.2,5.6l-0.9,0.1l-4.3,0.5l-1.2-1.5l-0.3-1.9l1.1-5.8l-0.9-4.9L588.2,149.9z"/>
<path class="st0" d="M616.1,135.8l3.4,3.6l-0.5,1.5l-2.7,1.8l1.2,1.7l-4,3.6l-2.8,1.3v-0.2l-1.6-1.6l-1.9,1.2l-1.7-2l-3.4,2.6
	l-3.6,1.5l-2.8-1.1l2.5-2.9l-1.5-1l2-2.8l-2.9-1.5l0.2-3.4l1.8-1.8l5.4-0.7l1.7,1.8l-0.1-2.7l8.3-1.3l0.4,2L616.1,135.8z"/>
<path class="st0" d="M576.8,126.5v2.5l3.8-2.5l3.9,2.7l-1.1,3.1l2.9-0.5l-0.4-2.4l2.7,3l3.7-0.5l1.5,1.1l0.8-2.7l4.5-0.9l0.5,2.8
	l-2.6,1.9l0.9,2.5l-1.8,1.8l-0.2,3.4l-4,1.3l-0.5-2.5l-1.2,2.8l-3.5-2.8l-3.1,2l-3.5-0.4l-2.2,2.2l1.1,3.8l-2.9,0.8l-2.8-3.8
	l-1.2,2.8l-2.1,0.4l-0.3-2l-2.2-0.4l-0.6-3.4l-0.3-1.7l-1.4-0.8l-1.8-3.1l4.2-2.5L576.8,126.5z"/>
<path class="st0" d="M614.7,155.9l-2.3,1.6l-1.8,3.9l0.1,2.5l-0.6,1.2l-1.9-0.7l-11.4,2.2l0.5-1.7l0.9-0.1l0.2-5.6l2.7,0.5l1.6-5.3
	l-2.4-1.1l1.8-3.9l3.4-2.6l1.7,2l1.9-1.2l1.6,1.6v4.3L614.7,155.9z M620.5,152.5l-5.2,2.1l-0.1,1.7l-3-1.7l-1.5-5.2l2.8-1.3l2.6,1.9
	l3.7-1L620.5,152.5z"/>
<path class="st0" d="M586.4,168.5l-1.7,0.3l-0.8-1.9l2.7-6.8l-1.9-1.1l4-6.4l-0.5-2.7l3.3,1.4l0.9,4.9l-1.1,5.8l0.3,1.9l-0.2,3.7
	L586.4,168.5z"/>
<path class="st0" d="M620.5,152.5l3.5,2l3-0.5l-1,1.5l1.7,3.9l-2.3,1.5l-3.4,0.7l-4.5-4.5l-2.3-0.7l0.1-1.7L620.5,152.5z"/>
<path class="st0" d="M627.7,159.3l-1.7-3.9l1-1.5l1.5-3l3.5-1.8l-0.4-1.9l0-0.2l0.1-1.3l6.5,5.6l-2.6,2l-1.5,3l-2.7,1.9L627.7,159.3
	z M640.8,149.3l-0.3,2.5l-2.7-0.2l-0.3-1.5l-4.6-2.8l-0.3-1.4l0.9-3.6l2.9,1.4l-0.4,4.2L640.8,149.3z M634.6,156.6L634,160l-1.9-0.5
	l0,0l-1.4-0.3L634.6,156.6z"/>
<path class="st0" d="M566.7,173.7l-4.7-10.2l2.4-4.2l-0.4-2.2l4.9-1.9l-0.3-2l2.8-1.4l0.6-4l1.2-2.8l2.8,3.8l2.9-0.8l-1.1-3.8
	l2.2-2.2l3.5,0.4l3.1-2l3.5,2.8l1.2-2.8l0.5,2.5l-0.3,3.1l-3.6,1.7l0.4,2.2l0.5,2.7l-4,6.4l1.9,1.1l-2.7,6.8l0.8,1.9l-6.1,0.3
	l-2-3.7l-5.7,2.6l0.4,5.2l1.1,1.4l-3.9,3.1l-1.9-3.8V173.7z"/>
<path class="st0" d="M628.5,150.9l-1.5,3l-3,0.5l-3.5-2l-0.7-3.5l-3.7,1l-2.6-1.9l4-3.6l5.1-0.6l1.2,1.3l-1.8,1.5l4.1,0.7
	L628.5,150.9z"/>
<path class="st0" d="M609,122.6l3.6-1.1l1,4.8l1.6-0.4l1,2.5l4.5,0.8l-0.5,3.6l-4.1,2.9l-2.7-0.3l-0.4-2l-8.4,1.3l0.1,2.7l-1.7-1.8
	l-5.4,0.7l-0.9-2.5l2.6-1.9l-0.5-2.8l2.4-2.9v-2l2.4-2.7l2.8,1.5l-1.2,2.3v4.1l4.9-1L609,122.6z"/>
<path class="st0" d="M625.8,125.3l2.9,1.5l1.8,4.3l-1,3.2l-4.7,2.1l-0.2,1.1l-4.5-4.6l0.5-3.6l-0.9-4.3l4.5-1l0.5,0.3L625.8,125.3z
	 M631.3,128.7l-0.8,2l-1.6-3.3h0.9L631.3,128.7z M627.8,126.1l0.5,0.1L627.8,126.1z"/>
<path class="st0" d="M618.9,140.9l0.5-1.5l-3.4-3.6l4.1-2.9l4.5,4.6l1.2,1.5l-3.2,1.5l-1.2-1.5L618.9,140.9z"/>
<path class="st0" d="M614.7,155.9l2.9,1.3l4.4,4.4l-11.4,2.4l-0.1-2.5l1.8-3.9L614.7,155.9z"/>
<path class="st0" d="M671.6,116.4l-1.3,1.8l0.7,4.5l-5.1,2.1l-1-2.1l1.9-0.9l-2-7.7l2.8-2.5l0.8,1.4l4.1-0.8L671.6,116.4z
	 M671.6,116.4l0.6,0.5L671.6,116.4z"/>
<path class="st0" d="M610.3,257.5l2.1,0.9l-2.6,1.5l-4.1,6.3l-0.1,4.8l-1.9,3l-2.8,0.3l-1.3,3.6l-2.7,0.8l0.8,1.6l-5.1,4h-2.4
	l-2.8-2.3l-4.1-1.4l-3.6,4.5l-1.9-2.8l3-2.1l0.5-2.9l7.9-7.2l-0.1-0.8l2.3-0.4l2.5,3.3l0.9-2.9l-3-0.7l0.8-0.8l1.8-0.4l3.2,1.9
	l-0.6-3.3l2.5,0.5l2.2-4.3l2,0.4l-2-3.2l0.4-3.1l4.5,1.6l1.5,3.1L610.3,257.5z"/>
<path class="st0" d="M581.3,277.4l-1.7-1.3l-3.8,0.1l-0.4-2.6l1.8-0.6l-0.8-2.1l1.9-3.1l-3.8-0.4l-0.7,1.5l-1.7-5.1l-0.6,2.1
	l-3.1-1.6l-3.1,1.1l-0.6,2.8l-5.2-3.4l-2.3-2.7l4.9-5.2l5.1,3l2.3-3.5l3.6-0.8l-1.3-5.7l5.5-0.9l2.9,3.4l0.3,2l1,0.2l0.7-1.3l3.5,1
	l3.1-4l0.4,2.5l1.8-0.7l1.5,3.4l-3,2l1,3.3l3.1,1.5l-1,5.5l-0.8,0.8l-2.8,0.6l0.1,0.8L581.3,277.4z"/>
<path class="st0" d="M588.8,250.4l-1.9-2.7l7.8-1.1l9.1,6.5l6.2,2.9l0.3,1.5l-2.2,3.7l-1.5-3.1l-4.5-1.6l-0.4,3.1l2,3.2l-2-0.4
	l-2.1,4.3l-2.5-0.5l0.6,3.3l-3.2-1.9l-1.8,0.4l1-5.5l-3.1-1.5l-1-3.3l3-2l-1.5-3.4l-1.8,0.7L588.8,250.4z"/>
<path class="st0" d="M569.6,256.5l-2.3,3.5l-5.1-3l-4.9,5.2l-0.7-1.3l-1.8-2.8l-2.3,0.1l-0.6-0.7l-2.5-1.4l-1-0.4l2-5.5l5.3-2.8
	l4.9-1.7l3.9,7.3l2.6,1.5l3.3,0.1L569.6,256.5z"/>
<path class="st0" d="M571.8,250l1.3,5.7l-3.6,0.8l0.7-1.9l-3.3-0.1l-2.6-1.5l-3.9-7.3v-3.3l1.8-0.3l2.3,3l7.8-0.8l-1.1,2L571.8,250z
	"/>
<path class="st0" d="M526.5,259.3l-4.5,1.1l-1.5-1.3l-2.7,0.5l-0.6-1.1l-0.6-1.4l-0.8,1.4l-0.5-0.3l-2.2-3.3l2.3-0.2l-0.3-3l1.4-0.1
	l5.8-10.1l2.7-0.4l0.2,1.9l2,1.3l-1.2,1.6h4.1l-0.6,2.4l0.5,0.5v0.4l0.7,1.9l2.3-0.1l2-2.1l0.4,3.4l-8.6,1.1L525,258L526.5,259.3z"
	/>
<path class="st0" d="M474.7,235.7l1.2-1.6l4-0.3l3.3,1.6l2.1-1.9l2.2,4.3l-3.4,1.7l0.4,4.6l3.3,0.9l-0.7,2.5l0.8,3.5h-4.1l-0.3,2
	l-1.9-1.3l0.2,2.7l-2.2,0.9l-4.7-0.9l-1-7.3l-3.8-1.4l2.5-3.6l-0.2-2.2l2.2-0.5L474.7,235.7z"/>
<path class="st0" d="M564.9,222.6v3.3l2.3-0.1l0.6,4l-1.3,0.2l-5.8,1l-1.5-0.6l-2.3,2.8L555,233l-1.8-2.8l0.6-2.5l3.8-2.3l1.5,1.1
	L564.9,222.6z"/>
<path class="st0" d="M559.1,208.1l0.5,0.4l0.4,2.5h1.8l2.5,4.9l3.7,0.5l1.8,2.8l-2.7,3.5l-2.3,0.1l-5.8,3.9l-1.5-1.1l-3.8,2.3h-4.1
	l-0.3-2l-2.9,2.2l1-2.9l-4,0.5l-0.2-1.1l3.4-1.6l0.6-2.4l3.7-2.8l0.4-3.5l4.3-1.5l0.2-1.8L559.1,208.1z M561.8,210.9L561.8,210.9z"
	/>
<path class="st0" d="M543.3,224.4l0.1,1.1l4-0.5l-1,2.9l2.9-2.2l0.3,2h4.1l-0.6,2.5l1.8,2.8l-3.8,2l-1.9,2.9l-4.5,4.2l-3.6,0.5
	l-2.1,1.8v0.1l-0.6,2.8L535,249l-2,2.1l-2.3,0.1l-0.7-1.9v-0.4l-0.5-0.5l0.6-2.4h-4.1l1.2-1.6l-2-1.3l2.5-1.8l0.9-4.1l-3-2.2
	l2.7-3.9l-1.8-3.2l10.7-1.2l0-4l2.1-1.5l4.5-0.2l-2.1,1.6L543.3,224.4z"/>
<path class="st0" d="M471.7,232l0.6,2.2l2.4,1.4l-0.2,3.6l-2.2,0.5l0.2,2.2l-2.5,3.6l3.8,1.4l1,7.3l4.7,0.9l2.2-0.9l-0.2-2.7
	l1.9,1.3l0.3-2h4.1l0.7,2.8l0.3,3.4l-2.8,0.2l-0.4,0.2l0,0l-1.8,0.1l0.3,3.8l-6.9,1.2l0.1,1.8l-2.3,0.2l-0.2-2.2l-4,2.1l-4.1,1.3
	l0.1,1.4l-0.5,0.3l-3.7,0.1l-0.5,6.1l-1.2,2.6l-2.8,0.5l-2.9-1.2l0.3,5.9l-1.4,0.1l0.3,5.6l0.9,0l0.1,2.7l-2.7,1.6h-3.3l0.5-0.3
	l-0.5-0.7l0.8-2.4l0.5-0.3l-0.5-0.6v0.3l-0.5-0.3l0-1l0.4-0.7v-0.2v-0.9v0.7h-0.9l0.5-0.4l-0.5-0.2v0.1l-1.1-3.4l2.3-0.6l-1-0.5
	l0.9-0.9v0.2l0.9-0.5l-0.5-0.1l-1.1-2.7l2.8-0.8l-1-1.4l1.3-2.6l3.6-2.7l-0.6-2.8l3.3-6.1l3-2.9l-1.2-4l0.8-2.3l2.3,0.1l-1.1-3.2
	l3.9-3l-1.3-5.2l2.2-0.5l-0.3-3.8l1.6-2.2L471.7,232z M464.1,239.2l1.9,1.9l-1.1,3.4l1,1.2l-3.1,1.5l0.7,3.5l-2.6,2.3l0.7,4.1
	l-2.6,2l0.6,1.6l-4,3.2l0.3,4.8l-4.4,4.2l0.6,2l-3.2,1.1l1.1-5.6l-0.3-6.4l-1.6-4.2l2.2-2.5l-0.6-3.2l1.8-1.5l5.9-0.3l1.3-1.4
	l-0.2-4.1l4-1.8l0.1-5.6L464.1,239.2z"/>
<path class="st0" d="M500.8,219.1l7.5-1.2l1.5,1.7l-1.2,1.4l2.1,6.9l1,0.9l7.2-0.7l1.3-0.2l3.6-0.2l2.7-0.1l1.8,3.2l-2.7,3.9l3,2.2
	l-0.8,4.1l-2.5,1.8l-0.2-1.9l-2.7,0.4l-5.8,10.1l-1.4,0.1l0.3,3l-2.3,0.2l-3.2,0.3l-1.8-4.3l-3.4-1.8l-3.6,5.5l1.5,1.4l-4.1,0.2
	l-3.7,0.3l-6.2-2.9l-0.7-2.8l-0.8-3.5l0.7-2.5l-3.3-0.9l-0.4-4.5l3.5-1.7l-1.6-3l-0.4-4.2l1.4,0h0.5l2.7,0.2l-1-6.4l1.2-1.6l3.2,0.7
	l1.2-1.1l-2-2.3l2.5-2l3.8,2.5L500.8,219.1z"/>
<path class="st0" d="M347.1,293.3l5.2,0.1l2.3,1.6l-1.5,1.8l-0.2,6.9l-1,0.6l2.3,4l2.4,1.5l0.5,1.3l-3.9,2.5l2.3,4.2l-3.9,2.8
	l0.4,2.1l0.5,0.8l0.4,2l-8.7-0.3v-0.3l0.2-6.1l2.4-0.1l0.1-1.9l-4.3-0.4l-1,0.9l-4.3-0.9l-0.8-3.4l1.4,0.1l0.1-3l-1.4-0.5l0.1-3
	l-4.3-0.2l-3,2.7l1.6-4l-3.8-1.5l-0.1,2.6l-3.3-0.2l1.2-13.9l1.4,0.1l0.3-6.8l7,0.3l7,0.1l-0.3,7.2L347.1,293.3z M633.4,204.8
	l0.9-0.2L633.4,204.8z"/>
<path class="st0" d="M352.9,323.9l3.9,0.1l0.4,2.6l2.4,0.9l1.5-1.5l4.3,1.4l0,3.1l-1.5,2l2.9,0.8l3.9,2.5l3.4-2.2l1.9,1.8l-1.5,0.1
	v3.1l-2.5,1l-4,4.1l-1.5,2.2l-4.9,0.8l-0.9-2.9l-1,1.7l-1.4-2.8l-3.9-3.1l2.6-6.1l-2.9-0.9v1.6l-3.4-0.2v-1.8l-4.9-0.1l1.1-4
	l-2.9-2.8l8.7,0.2L352.9,323.9z"/>
<path class="st0" d="M418.2,321.7l1-0.2l-0.8,7l-3.4-0.4l2,3.1v1l0.2,7.3l-1,1l-1.9,1.7l0.5,1.8l1,1.2l-3.4,0.3l-3.9,1.9l-1.5-1.8
	l1.4-3.3l-3.9,0.1l-1.5-4.3l0.4-5.3h2.4l-1.6-8.2l8.7-2.2L418.2,321.7z"/>
<path class="st0" d="M223.3,302.1l1.5-11.5l3.8,0.5l3-1.4l0.3-2.5l-1.5-3.5l0.4-3.4L229,280l0.6-4.3l20.5,2.4l-0.1,1.3l6.5,0.7
	l1.1,2.9l-0.8,3.4l7,0.7l-1.2,7.6l6.6,0.6l-0.8,8.3l11,1l-2.1,14l-1.6,0.8v5.1l-2.1,2.2l2.7,2.2l-11.9-3.9l-1.3-2l-3.2-1.6l-5.3-5.9
	l-2.5-3.9l-3.2-1.4l-1-4.1l-2.2-1.5L223.3,302.1z M248.4,293.4l1.9-8.4l-5.9,2.1l1.6,7L248.4,293.4z"/>
<path class="st0" d="M373,297.9L373,297.9v0.8l-1,0.4v1l-1.9,2.3l1.4,2.4l-1.9,0.4v2.8l-5.7-0.1l-1-1.5l-3.9,2.1l2.3,4.1l-3.8-0.3
	l-0.9-2.3l-2.4-1.6l-2.3-4l1-0.6l0.2-6.9l1.5-1.8l-2.3-1.6l-5.2-0.1l0.2-5.2l4.2,0.1l-0.5,1.1h5.2l-0.1,2.5l1.9-1.7l2.8,0.2v1.8
	l2.3,0.8l-0.4-2l5.2,0.1l-0.5,1.8l5.2,2.2L373,297.9z"/>
<path class="st0" d="M358.3,393.7l7.1,0.3l0,0l-0.5,2.3l2,1.5l1,4.4l1.5,1.7l-4.1,1.8l-2.6-2.9l-7.7-0.7l2.1-3.2L358.3,393.7z"/>
<path class="st0" d="M403.7,288.8l1.9-0.3l1.4,0.2l-0.4,2.3h2.4l0.1,3.8l2.8-0.1l-0.9,2.5l-4.2,1.6l-1.3,5.9l-4.3-0.4l-2.4-1.4
	l-0.5-2.6l3.2-6v-3l2.4-0.1L403.7,288.8z"/>
<path class="st0" d="M285.4,260l5.5,0.5l-1.6-3.6l2.7-5.4l4.1,0.5l-0.9,11.6l4,2.3l2.8,0.1l1.2-3.4l5.5,0.2l-0.3,4.7l4.1,0.4l2.8-1
	l0.2-3.7l7,0.4l-0.4,6.9l5.6,0.3l-0.8,7.6l2.3,1.3l4.2-1l0.2,7l-7-0.3l-0.3,6.8l-1.4-0.1l-1.2,13.9l-7.6-0.4l-0.4,7l-7.2-0.4l0.4-7
	l1.4,0.1l0.4-7l-7.1-0.5l-0.5,7l-11-0.8l-0.1,1.4l-12.9-1l-11-1l0.8-8.3l5.8-1.1l2.2,2.3l1.5-1.1l4.2,1l1.5-12.8l2.8,0.5l-2-4
	l-1.1-4.1l0.3-4.1l-1.4-0.1l0.7-8.3l1.8,0.1L285.4,260z"/>
<path class="st0" d="M307.8,333.8l-0.5,7.9l-5.4-0.7l-7.4,0.4l-0.7,2.4l-6.2,9.3l-2.5-0.1l-6.1-5l-3.4-1l-6.9-6.5l-1.6-4.5l0.4-4.5
	l-3.3-6.5l11.9,3.9l-2.7-2.2l2.1-2.2v-5.1l1.5-0.8l2.1-14l12.9,1l0.1-1.4l11,0.8l0.5-7l7.1,0.5l-0.4,7l-1.4-0.1l-0.4,7l-5.3-0.3v7.7
	l1.9,1.4l-4.8-0.5l0.8,3.2l1.9,1.2l-0.2,2.6l6.8,0.9l-0.3,4.4L307.8,333.8z"/>
<path class="st0" d="M308.6,312.3l7.2,0.4l0.4-7l7.6,0.4l3.3,0.2l0.1-2.6l3.8,1.5l-1.6,4l3-2.7l4.3,0.2l-0.1,3l1.4,0.5l-0.1,3
	l-1.4-0.1l0.8,3.4l4.3,0.9l1-0.9l4.3,0.4l-0.1,1.9l-2.4,0.1l-0.2,6.1l-5.3-0.2l-0.1,3.6l-8.2-0.3l-0.3,6.6l-22.4-1.1l1.5-0.8
	l0.3-4.4l-6.8-0.9l0.2-2.6l-1.9-1.2l-0.8-3.2l4.8,0.5l-1.9-1.4v-7.7L308.6,312.3z"/>
<path class="st0" d="M307.3,341.7l0.5-7.9l22.4,1.1l0.3-6.6l8.2,0.3l0.1-3.6l5.3,0.2v0.3l2.8,2.8l-1.1,4l4.9,0.1v1.8l3.4,0.2v-1.6
	l2.9,0.9l-2.6,6.1l3.9,3.1l1.4,2.8l1-1.7l0.9,2.9l4.9-0.8l1.5-2.1l2.4,2.4l-1,2.6l-3.5,3.8l-2-1.8l-2,1l1.4,2.7l-2,1.6l2.4,3.2
	l-2.5,2.2L358,361l-1-1.5l-2,1.4l1,1.8l-2.5-0.1l-0.2,8.3l-6.5-0.2l-0.3,11l4,0.3l1.4,4.6l-0.2,4.2l-7.6-0.2l-3.2,3.3l-1.8-5.5
	l-2-1.8l-0.6-9.2l-4.9-3.2l-0.4-2.9l-3.9-3.5l-1.9-3.1l-0.4-3.3l-3.2-5.1l-1.7-5.5l-3.3-2.5l0.1-1.4l-2.9-0.9l-1.8-3.9L307.3,341.7z
	"/>
<path class="st0" d="M374.7,323.2l2.9,5.9l-4.9,2.7l1.4,2l-3.4,2.2l-3.8-2.6l-2.9-0.8l1.5-2l0-3.1l-4.3-1.4l-1.4,1.4l-2.4-0.9
	l-0.4-2.6l-3.9-0.1l-0.5-0.3l-0.5-0.8l-0.4-2.1l3.9-2.8l1.5-0.6l1.8,3.9l2.9-2.1l-0.9-4.1l2.4-1.5l2.3,4.2l3.8,3.9l3.9-1
	L374.7,323.2z"/>
<path class="st0" d="M405.4,304.9l-0.9,3.5l-1.9,3h-2.4l-1.9,2.5l-2.4,0.2l2,3.3l-1.9,0.6l0.5,3.6l-5.3,4.3l-2-2.5l0.5-4.7l-3.9,0.6
	l-1.9,2.1l-2.4-2.2l-0.5-1.1l5.3-5.3l-1-3.9l5.7-0.8l1.4-2.2l-2.9-0.7l0.5-2l-5.2,0.3v-3.2l3.3-0.8l0.9-2.2l-0.4-3.6l6.6,0.2v-6.6
	l6.1-0.1l1,0.8l1.4,1v2.7l-2.4,0.1v3l-3.2,6l0.5,2.6l2.4,1.4L405.4,304.9z"/>
<path class="st0" d="M385.4,308.9l1,3.9l-5.3,5.3l0.5,1.1l-6.9,3.9l-1.4-2.7l-3.9,1l-3.8-3.9l-2.3-4.2l-2.4,1.5l0.9,4.1l-2.9,2.1
	l-1.8-3.9l-1.5,0.6l-2.3-4.2l3.9-2.5l-0.4-1.2l0.9,2.3l3.8,0.3l-2.3-4.1l3.9-2.1l0.9,1.5l5.7,0.1v-2.8l1.9-0.4l4.7,7.3l3.4,0.2
	L385.4,308.9z"/>
<path class="st0" d="M344.5,271.3l-0.1,1.9l5.5,1.5l2.3-0.4l0.1-2.2l2.8,0.5l1.3,2.3l2.3-0.4l0,2.4l1.8,1.2l-0.5,3.2l4.2,1.2
	l-1.4,0.8l2.3,2.7L361,286l-0.1,4.2l-2.8-0.2l-1.9,1.7l0.1-2.5H351l0.5-1.1l-4.2-0.1l-0.2,5.2l-6.6-0.2l0.3-7.2l-7-0.1l-0.2-7
	l1-11.6l3.6,3.1L344.5,271.3z"/>
<path class="st0" d="M644.4,70.3l2.7,4l2.7,0.8l-0.5,2.8l1.4,0.7l-0.8,3.4l2-0.3l-1.6,3.4l-4.8-0.6l-1.5,4.1l1.8,2.4l2.1,0.1
	l0.8,3.2l-2.2,4.7l-0.4-1.4l-2.8,0.6l-1.6-4.7l-2.2-0.5l-0.6,0.9l-1.3-0.3l-0.9-3.9l-3,1.6l-0.7-1.1l-5.1,5.1l-0.8-1.9l-3.1,1.1
	l-1.7-3.7l-1.8-6l-3.5,2.6l-0.3-8.9l3.1-2.6l5.5-0.9l10.8-2.9l-0.5,1.5l1,6.1l2,5l-0.2-9.5l-1.1-2.7L644.4,70.3z"/>
<path class="st0" d="M613.1,183.2l-2.4-0.9l-1.7,2.9l-2.4-1l-1.4-2.7l-2.6,2.7l-1.9-2.8l3.2-1.8l-0.8-2l3-0.5l-1.2-3.7l0.9-2l3.3,1
	l-0.6,1.6l3.7,0.8l3.1,2.1v2.4L613.1,183.2z"/>
<path class="st0" d="M600.7,181.4l1.9,2.9l2.6-2.7l1.4,2.7l2.4,1l-2,1.1l0.6,7.6l-1.7,0.3l-1.5,3.7l0.7,1.3l-4.7,1.3l-0.2,1.6
	l-1.8-0.2l-2.9-6.1l-0.9,2.7l-3.4,1.1l0.4-2.9l-2.7,0.2l-2.4,1.7l-3.5,0.4l-1.6-1.3l1-1.9l-3,0.9l0.5-2.1l-1.9-3.5l4.3-3.4l2.2,2.7
	l0.2-3.7l2-1.3l0.6-1.6l3.8-1l1.1-3.7l2.4,0.8l-0.8,2.8h3.6l-0.6,1.7l2.5,1.2L600.7,181.4z"/>
<path class="st0" d="M591,199.8l3.4-1.1l0.9-2.7l2.9,6.1l1.8,0.2l2.1,4.2l-2.6,0.8l0.4,2l-0.2,1.5l-3.8-0.6l-1.8,2.9l-3.1,0.3
	l-1.7-2v-2.5l-2.3-2.7l3-3.3L591,199.8z"/>
<path class="st0" d="M620.9,195.4l1.8-2.2l2.7,2l0.2,0.8l3.9,1.2l-0.1,1.8l-2.8,1.9L620.9,195.4z M630.2,202.6l-2,1.5l-2.8-2.5
	l-3.2,0.2l-0.4-2l-1.4-2.5l1.4,0.1l0.5,0.3l2.8,2.7L630.2,202.6z M628.2,206l-0.4,0.1v0.2l-5.2-1l0.5-2.2l0.3-0.5L628.2,206z
	 M622.3,201.7v-0.2V201.7z"/>
<path class="st0" d="M620.5,213.6l-1.3,0.3l-1.1-3.2l3.1-2.8l1.8-4.9l-0.5,2.2l5.2,1V206l0.4-0.1l1.6,1.1v-2.2h3.7l0.9-0.2l4.4,9.8
	l4.5,5.6l-2.2-1.7l-5.9-10.4l-0.2,3.5l2.5,5l-6.4,2.5l-1.5-2.9l-1.8,0.2v-2.5l-3.4-0.8L620.5,213.6z M634.9,188.5l2,0.8l-2,7.3
	l-1.9,3.8l-0.4-4l0.8-5L634.9,188.5z M639.8,224l-1.8,0.1l-0.3-3.7l1.1-1.4l2.2,1.7l0.7,3.4L639.8,224z M637,213.3l2.3,4l-3-3
	L637,213.3z"/>
<path class="st0" d="M600,209.2l-0.4-2l2.6-0.8l-2.1-4.2l0.2-1.6l4.7-1.3l-0.7-1.3l1.5-3.7l1.7-0.3l-0.6-7.6l2-1.1l1.7-2.9l2.4,0.9
	l1,2.5l2.8-1.5l1.5,2.8l4.5,0.2l0.9,2l3.2,0.4l0.8,3.9l-2.5,1l-2.5-1.3l-1.8,2.2l1.7,1.5l-2.2,0.5l1.4,2.5l0.3,1.6v0.2l1.1,0.8
	l-0.3,0.5l-1.8,4.9l-3.1,2.8l1.1,3.2l-7.1,1.4l-2.2,0.4l-1.5-0.9l-4,0.6l2.1-3.6l-3.7-2.5L600,209.2z M625.6,196l-0.2-0.8L625.6,196
	z M609,215.9l-1.8,0.3L609,215.9z M621.8,197.4l0.5,0.3L621.8,197.4z M606.8,216.3l0.4-0.1L606.8,216.3z M609.9,215.7L609.9,215.7z
	 M609.5,215.8L609.5,215.8z M609,215.8L609,215.8z M609.5,215.8l0.4-0.1L609.5,215.8z"/>
<path class="st0" d="M591,199.8l-0.8,2.9l-3,3.3l2.3,2.7v2.5l0.1,3.3l-4.7,1.6l-1.5-0.8l-4.2,2.2l-2.2-2.4l-1.4,2.4l-5.7,1.3
	l-1.8-2.8l-3.7-0.5l-2.5-4.9l0,0H560l-0.4-2.5l2.5-1.1l3.2,0.7l-0.2-1.4l5,0.5l1.1-1.8l2,1.3l2.4-1.8l2.2,2.3l3.4-9.2l1.6,1.3
	l3.5-0.4l2.4-1.7l2.7-0.2L591,199.8z"/>
<path class="st0" d="M586.8,185.8l-1.4-0.4l-0.1-3.2l2.3-1.9l-0.5-5.6l3.7,0.8l4.1-4.1l2.2,0.3l-1-2.9l4-2.3l3.7,0.8l2.1,4l-0.9,2
	l1.2,3.7l-3,0.5l0.8,2l-3.2,1.8l-1.4,4.6l-2.5-1.2l0.6-1.7h-3.6l0.8-2.8l-2.4-0.8l-1.1,3.7l-3.8,1L586.8,185.8z"/>
<path class="st0" d="M120.2,26.2l-2.1,0.4l-3.6-1.6l1.6-2.7l-5.5-1.5l-2-2.6l2-1.7l-1.2-1.4l0.6-3.6l-2.6-2l2.4-0.2l0.4-2.8l5.1,1.4
	l12.4,3.4l0.2,2l-3.9-0.2l-0.9,6.1l-1.6,0.1L120.2,26.2z M107,13.6l-1.2-1.4l1.5-2.5L107,13.6z"/>
<path class="st0" d="M112,37.2l1.1,0.3l-0.9,4.6l-1.6,1.2l-19.6-5.6l-4.7-3.5l1.3-3.9l3.8,0.9l1.6-2.6l0,0l1.2-3.9l3.7-0.3l2.9-0.3
	l-0.9,1.8l-0.6,3.4l2,0.2l1.7,4.1l2.2,2.1l-4.9-1.4l-1,2.2h2.8l1.9,1.8l5.5,0.1L112,37.2z M100.7,20.5l-2.5,3.2l-1.6-4.3L100.7,20.5
	z"/>
<path class="st0" d="M105.3,26.6l3.7,4l3.4,0.9l1,2.2l-1.4,3.6l-2.3,1.2l-5.6-0.1l-1.9-1.8h-2.8l1-2.2l4.9,1.4l-2.2-2.1l-1.6-4
	L105.3,26.6z M101.8,24.9l1.3-0.3L101.8,24.9z M104.8,24.2l-1,0.6L104.8,24.2z"/>
<path class="st0" d="M131.1,48.9l-1.5,2.7l2.1,1.5l-4.6-1.2l-1.5,4.2l-0.9,0.3l-2.1,0l-1.4-2.4l0.5-2l4.5-1.7l-2.2-2.4l-6.3-2.1
	l4.5-1.8l-4.6-1.1l-2.6,0.6l-2.9-1.4l0.9-4.6l0.2-2.1l2.8-2.9l0.1-4.6l2-1.3l2.1-0.4l1.1,3.3l5,3.8l4,1.7l-1.1,2.6l-0.5,6.6l0.7,3.5
	L131.1,48.9z"/>
<path class="st0" d="M578,191.4l1.9,3.4l-0.5,2.1l3-0.9l-1,1.9l-3.4,9.2l-2.2-2.2l-2.4,1.8l-2-1.3l-1.1,1.8l-5-0.5l0.2,1.4l-3.2-0.7
	l-2.5,1.1l-0.5-0.4h-1.8l-3.5-2.5l-1.2-2.3l4.1-2.4l-0.9-9.4l3-0.9l-1.5-3.8l1.2-6.5l1.9-1.6l1.2-0.6l1,0.4l4.1-4.7l1.9,3.8
	l-0.2,3.9l4.1-2l6.4,1.3l-0.9,5.6l1.6-1L578,191.4z M557.7,183.8l-2.1,0.7l-0.1-3.9l4.6-1.5l-1.6,1.1L557.7,183.8z"/>
<path class="st0" d="M557.3,186.9l1.5,3.8l-3,0.9l0.9,9.4l-4.1,2.4l-3.1,0.5l-4.1-0.7l0.9-3.4l-2.2-0.2l-1.5-4.5l1-2.6l2.1-0.8
	l4.5,3.9l2.9-1.3l1.4-2.8l-1.3-2.8l1.6-3.9L557.3,186.9z M552.9,193l0.2,1.2l-3.4,1.3l-3-2.2l0.9-3l2.5-0.7L552.9,193z"/>
<path class="st0" d="M584.7,168.8l1.7-0.3l1.5,1.2l-0.9,5l0.5,5.6l-2.3,1.9l0.1,3.2l1.4,0.4l-2,1.3l-0.2,3.7l-2.2-2.7l-4.3,3.3
	l1.7-6l-1.6,1l0.8-5.6l-6.4-1.3l-4.1,2l0.2-3.9l3.9-3.1l-1.1-1.4l-0.4-5.2l5.7-2.6l2,3.7L584.7,168.8z"/>
<path class="st0" d="M476.6,113.2l-0.6,3l-3.3-0.8l-0.2-2.6l1.1-1.9l-2.4,0.2v-0.2l-4,1.3l-0.8,0.5l-4.1-1.1l-0.5-8.3l1.8-3
	l-3.3-0.9l-1.4-2.7l1.6-0.5l-0.3-3.7l4-0.2l0.1,1.3l4.4-0.3l-1,2.6l2.1,1.4l0.3,4.1l2.4-0.2l-2.1,4.4l3.5,3L476.6,113.2z"/>
<path class="st0" d="M479.9,114.4l-1.1,1l-2.2-2.2l-2.8-4.7l-3.5-3l2.1-4.4l-2.4,0.2l-0.3-4.1l-2.1-1.4l1-2.6l1.2-0.1l-0.3-3.8
	l-3-2.8l1.6-0.1l-0.3-3.3l4.8,1.2l-0.4-5.1l5.5-0.6l1.2,9.7l3.7,0.9l-3.4,6.7l0.2,2.7l-2.4,0.5l-1.5,6.1l2.7-1.2l1.7-3.6l1.9-0.8
	l2.8-4.9l-0.7,5.2l-2.4,4.9l0.2,6.3L479.9,114.4z"/>
<path class="st0" d="M432.8,114.3l-0.9-2l1.7,1.1l2-1.2L435,109l5.3,1.1l0.2,3.8h6.9l-0.2-2.7l4.1,1.2l-1.1,2.2l0.4,5.8l-1.6,0.7
	l-2,7.1l-3.5,4.5l1.8,3.1l-2.9-0.8l-1-2.4l-1.2,1.5l-2.5-1.2l-1.1,2.8l-2.9,0.1l-3-1.3l1.6-1.4l-1.4-2.7l-0.2-5.3l1.2,0l0.6-4.1
	l-0.6-4.1L432.8,114.3z"/>
<path class="st0" d="M469.5,121.7l1.4,1.8l-0.1,4.1l-1.1,2.1l1.9,3.5l-2.4,1.8l-0.5,4l-7.9,0.5l-2.4,1.6l-2.2-1.3H453l-1.2,0.2
	l0.6-3.5l-2.2-2.3l-4,2.6l-0.9-1l-1.8-3.1l3.5-4.5l2-7.1l1.6-0.7l-0.4-5.8l1.1-2.2l1.3,1.3l4-0.3l1.8,2.6l2.4-0.2l-1,2.7l1,2.7
	l2-1.3l1.7,1.2L469.5,121.7z"/>
<path class="st0" d="M433.7,88.4l1.2,1.4l2.8-0.1l0.3-2.6l3.9-1.8l-0.1-2.7l3.9-0.2l-0.1-1.2l4.7-0.3l-0.1-1.6l6.4,1.4l1.4,3.7
	l-0.2,3.2l-4.6,1.8l0.3-2l-3.4,2.4l-0.3,2.1l2,0.8l0.4,5.7l2.3,5.2l-1.1,1.6l5.6-0.4l2.7-1.5l0.6,8.3l-2.3,1.9l1,2.4l-2.4,0.2
	l-1.8-2.6l-4,0.3l-1.3-1.3l-4.1-1.2l0.2,2.7h-6.9l-0.2-3.8l2.7-1.9l-0.5-2.3h-2l1.1-2.8l-6,0.4l-0.1-2.5l2.7-2l-1.4-3.9l-4,0.6
	l-1.7-2.7l-0.1-2.8L433.7,88.4z"/>
<path class="st0" d="M480.6,141.1l-1.9,1.8l-2.5-4.6l-1.6,0.1l-5.8,0.5l0.5-4l2.4-1.8l-2-3.5l1.1-2.1l0.1-4.1l-1.4-1.8l-0.4-5l2-0.2
	l1.5-1.1l3.3,0.8l0.6-3l2.2,2.2l1.1-1l0.1,5.3l-1.6,4.7l0.5,5.2l1.7,5.6L480.6,141.1z"/>
<path class="st0" d="M460.9,115.8l-1-2.4l2.3-1.9l4.1,1.1l3.8,1.9l1,1.9l-2,0.2l0.4,5l-5-0.5l-1.7-1.2l-2,1.3l-1-2.7L460.9,115.8z
	 M467.2,112.2l4-1.3l-0.5,3.9L467.2,112.2z M471.2,111.1l2.4-0.2l-1.1,1.9L471.2,111.1z"/>
<path class="st0" d="M461.7,103.3l-2.7,1.5l-5.6,0.4l1.1-1.6l-2.4-5.1l-0.4-5.7l-2-0.8l0.3-2.1l3.4-2.4l-0.3,2l4.6-1.8l0.2-3.2
	l-1.4-3.7l1.8-3.1l1.6-0.1l-0.2-2.8l1.9-0.5l-0.5,4.4l1.6-0.1l0.5,7.1l3.2,0.9l3,2.8l0.3,3.8l-1.2,0.1l-4.4,0.3l-0.1-1.3l-4,0.2
	l0.3,3.7l-1.6,0.5l1.4,2.7l3.3,0.9L461.7,103.3z"/>
<path class="st0" d="M68.9,404.7v0.6l-1-0.1l0.3-0.9L68.9,404.7z M65.7,405.1l0.4,0.8l1-0.4l0.2,1.4l-1.4,0.3l-0.9,0.9l-1-0.2
	l-2.2,0.7v-0.7l2.1-0.3l0.5-1l-0.2-0.7L65.7,405.1z M60.2,408.2l-1.2,1l-2,0.7l1.8-2l0.8,0.2v-0.9l1.4-0.5l0.7,0.5l-0.3,0.7
	L60.2,408.2z M54,409l0.8,0.1l-0.1,0.6L54,409z M0.3,388.3l0-1.1l1.3,0.8l0.6,1.2l-1.8-0.5L0.3,388.3z M50.6,409.8l0.9-0.6l0.1,0.6
	L50.6,409.8z M1.8,391.3v0.8l-1-0.8L1.8,391.3z M44.3,409.8l1.1-0.4l-0.2,0.6L44.3,409.8z M41,409.4l1.6,0.9l-1.5-0.2l-1.3-0.6
	L41,409.4z M157.3,379l1.1-0.2l0.4-0.6l1.2,0.5l1.6,0.2l0.3,1.1l0.9,1.6l-0.6,0.4l-2.2-0.8l0.8,1.1l-0.8,0.7l-2.2-1.9l-0.6-0.3
	l-0.2-0.8L157.3,379z M162.3,377.9l1.1-0.3l1.4,1.4l0.3,0.9l-1.5-1.5l-0.3,0.2l2.2,2.4v1l-1,1.9l-0.8-1l0.3-1l-1.3-1.5l-0.7-2
	l-1-1.5L162.3,377.9z M101.8,398.4l0.3,1l-1.1-0.3L101.8,398.4z M175.2,389.9l0.7,0.2l-0.4,0.8L175.2,389.9z M86.5,400.7l-0.1,1.2
	l-1-0.5l0.2-0.9L86.5,400.7z M176,390.2l0.6,0.2l0.5,1l-0.7,0.3L176,390.2z M87.8,401.8l0.8-0.1l-1.2,1L87.8,401.8z M171.3,390.9
	l-1.5-0.7l0.6-1.2l-0.6-1l-0.4,0.8l-1.2,0l0.4-1.3l-0.4-1l1.3-0.2l0.8,0.9l1.6,0.7l0.9,1.2l1,0.6h-1.1l2.3,1.1l0.9,2.9l-0.9,0.2
	l-0.6-0.9h-0.9l-0.3-1.2l-2.2,0.2L171.3,390.9z M70,404.2l-0.4,1l-0.3-0.7L70,404.2z M160.6,383.3l0.4,0.2l0.2,1.3l-1-1.6
	L160.6,383.3z M111.5,387.9l-0.1,1.2l1-0.1l-0.6,1.1l-1.8-0.4l1.2,0.7l-0.4,0.6l-1.5,0.4l1,0.4l-1.2,0.8l-0.9-0.5l0.1,0.7l-1.2,1.2
	h-0.7l1-1.2l-0.1-0.9l-1.3,1.5l-0.8-0.8v-1.2l-0.8-0.8l0.9-1.2l1-0.5l1.2,0.4l-0.3-1.2l0.5-0.4l0.6,1l0.5-0.5l0.2-1l1.5,0.5l0.9-0.4
	L111.5,387.9z M170.8,384.3l-0.6,0.8l-0.8,0.1l-1.5,1l-0.7-2l-1.4-0.7l0.3-0.5l2.5-0.2l0.7,0.8L170.8,384.3z M169.8,385.6l1.1-0.3
	l0.2,0.8l-1.2,0.1L169.8,385.6L169.8,385.6z M160.8,382.1l0.4-0.4l1.6,0.4l0.2,0.8l1.7,3l0.7,2.3h-0.6l-1.2-1.3l-0.1-0.6l-1.4-0.7
	l0.1-0.5l-0.6-1.2l-1.1-0.9L160.8,382.1z M167.1,388.6l-0.3,0.1l-0.6-2.1h0.7l-1.5-1l-0.4-0.9l1.1-0.5l1,0.4l0.4,1l-0.5,0.6
	L167.1,388.6z M69.5,353l1.2,0.5l-0.3,0.6l-1.5-0.2l-0.8,1l-0.3-0.9l-0.9-1.4l-1.6-1.2l-1,0.4l-0.8-1.2l0.9-0.9l1.5,1.1l1.1-0.4
	l0.8,0.7l0.1,0.8L69.5,353z M124.2,371.8l-0.4,2.4l-0.4-0.3l0.2-1.4L124.2,371.8z M75,372.1l0.2,1.4l-1.3,0.1l-0.5,0.6l-2.9-2.4
	l0.2-0.9l1,0.4l1.5-0.8l1.9,0.9L75,372.1z M121.8,375.5h-1.6l-0.2,0.6l-0.3-1.4l-0.9,2.8l-0.6-0.1l-1.2,1.6l-0.1-0.3l-1.6,1.3h-1.3
	l-0.7,0.4l-0.7-0.5l0.3-1l2.1-1.1l0.2-1.1l-1.2,1l-1-0.5l0.2-1.5l1.1-2.1l-0.4-1.9l1-0.4l1.7-1.5l0.9,0.7l0.5-0.3l2.1,0.4l-1.8-0.7
	l-0.9-0.7l0.2-0.6l-2,0.1l-0.8,0.5l-0.3,0.8l-1.6,1l-0.2,0.8l-1.3,1.3l0.4,0.6l-1.5,1.2l0.6,0.5l-0.4,1l-0.9,0.5l-0.1,0.8l-2,0.8
	l0.1,0.6l-1.1,0.4v1.9l0.2-0.3l1.6,0.4l0.7,0.9l-1.1,1.3h-0.7l-0.2,1.2l-0.6,1.4l-0.8-0.1l-0.3,0.7l-1.3,0.1l-0.1,0.7l-1.6,0.5
	l-0.4,1.4l-0.8-0.1l-1.8,1.5l0.8-0.2l0.1,0.9l-0.9,0.9l-1.1,0.3l-0.9,1l-0.4-0.5l-1.2,1l-0.5,1.1l-1.2-0.2l-0.5,0.5l0.7,0.5
	l-0.6,1.6l-3.5,0.5l-0.1,1l-0.8,0.5l0.4-1.2l-0.4-0.3l-1.2,1l-0.9-0.1l-0.4,1l-1.1-0.4l-1.1,0.8l-0.9-0.2L84,399l-0.9-0.1l-0.5,1
	l-0.9,1.6l-1.6,0.2l-0.3-1.5l-0.2,1.7l-0.9,0.2l-0.4-1.1v0.9l-1.2,0.7l0.9,0.8l-1.1-0.5l-0.7,0.5l-1.5-0.2l-1.3,0.8l-1.5-0.2l-0.1-1
	l0.8-0.2l1.1-1.3l0.3,0.2L76,401l0.7,0.1l0.7,1.1l0.2-1.3l1.4-0.3l0.1-0.4l1.1-0.3l0.1-0.6l1.2-1.2l1.3-0.8l1.7-0.3l0.6,0.3l0.8,1.2
	l0.1-0.7l1.7,0.2l-0.8-0.5l0.6-1.8l1.9-1.3l1.5-0.6l1.3-1l0.8,0.4l0.1-1.5l0.9-1.1l2.1-1.5l1-5.2l1.2-1.1l-0.1-0.9l-3,1.2l-1.3-1.2
	l0.4-1.2l-0.8,0.9l-0.3,1.3l0.2,0.8l-1,0.3l-1-2.2l-0.8-0.8L90,382l-1-0.8l-0.3-0.9l-2.7,1.5l-1.3,0.9l0.1-2.8l-0.6-1.2l1.2-1.2
	l-0.8-2.7l-0.5-1.3l0.7-2.5l-1.2,2.1l-0.1,1.3l-3.1,0.7l-1.5-0.5l0.1-1l-1-1.7l-0.6-0.1l-0.8-1.7l0.9-0.7l0.2-1.8l-0.6-0.8l-0.8,0.3
	v-2l-0.8-1.1l1-0.1l-0.7-0.9h1.1l0.1-1.4l1.9-2l1-0.2l-0.1-1.4l1.5-1.9l1-0.1l1.5,1.5l1.7-0.8l1.3-1.6l0.5,0.6h2.1l1-1.3l-0.1-2.5
	l-1.2-1.8l1.1,0.2l0.7-1.1l-0.8-1.2l-0.6,0.8l-0.6-0.1l-1.4,0.5l-1.7,1.6v-0.9l-0.7,0.4l-0.7-0.8l-1.8-0.5l-1.5,0.5l-3-1.3l-0.3-0.9
	l0.3-0.8l-0.8-1.4l1.3-0.8l-2.3-1.2l-1.3-1.3L75,341l2-0.7l1.3-0.7l2.7-1.2l3.1-0.7H85l0.6,0.7l-0.8,1.5l0.3,0.8l2.3,0.1l2,0.6
	l0.8-1.1l1.3,0.2l-1.1-1l-0.9,0.2l0.1-0.9l-1.3-2.1l0.8-0.4l0.2,1.4l0.9,1.5l0.8-0.2l-1.3-1.2l0.7-1.4l-0.3-0.5h-2.2l-1.8-1
	l-0.2-2.3l-2.5-3.2l-1-0.5l-0.2-0.7l-1.1-0.8l1.2-1l0.3-1.7l1.7,0.4h2.2l1.6-0.9l1-1.1l0.5-2l1.2-1.1l1.3-1.5l1.1,0.4l1.6-0.9
	l1.7-1.8l0.7,0.2l2.8-0.3l0.8-0.6l1.2-1.6l2.2,0.7l-0.8,1.1v0.9l0.9-0.3l0.9-1.5l0.9,0.9l-0.1,0.9l0.7,0.3l0.5-0.6l1.5-0.3l1.6,0.4
	l-0.4,1.2l1.4,0.3l-0.3,0.6h1.3l2.4-0.5l2.5,0.3l1.6,0.9l3.8-0.1l1.3,0.8h1l1.3-1.1l2.2,0.1l2.4,1.1l0.6,0.6l0.7-0.2l10,50.5
	l1.2,0.2v-0.5l1.6,0.4l0.6-1l1.5-0.4l0.1,1.5l1.5,0.7l0.3,0.6l3.5,2.3l0.9,1.7l1.3-1.8l0.7-0.2l-0.1-1.7l0.2-1l1.9-1.6l1.5,0.9
	l0.6,1.5l1.5,0.4l1.1,1.2l1.2,0.4l1.9,1.2l-0.2,0.3l1.7,1.7l3.7,3.4l-0.1,0.8l0.9-0.1l0.1,1l0.9,0.1l0.5,1l0.7-0.3l1.7,0.7l2.1,0.1
	l0.2,0.5l1-0.2l0.7,0.9l-0.1,0.8l0.5,1.4l0.9,1l-0.2,2l-0.7,1.3l-0.9,0.2l-1.2-1.8l0.5-0.9l-0.5-1.5l-0.7-0.9l-1.1-0.7l1.5,1.4
	l0.4,1.5l-0.3,1.2l-1.2-0.1l-1.2-0.6l0.3-0.5l-0.6-1.1l0.7-0.4l-0.6-0.7l-0.3,2.6l-1.3-0.9l0.5-1.7l-0.4-0.9l-0.1,1.4l-0.7,0.6
	l-1.4-1.5l0.5-1l0.1-1.7l-2-0.6l-0.5-0.6l-2.3-0.2l0.2-1l-1.3-1.7l1.5,0.1l-1.7-0.5l-1.6-1.4l-0.1-0.6l-1.6,0.4l-2.3-2.7l-1.3-2.3
	l-0.5,0.1l1.1,2.1l1,1.3l0.9,2.2l-2-0.8l-0.8,0.5l-0.2-1.2l-0.8-0.7l-2.4-0.6l-0.2,0.4l1.4,0l1.1,0.8l1,1.3l-1.3,0.8l-0.3,0.6
	l-4.2-2.1l-0.1-0.6l-1.2-0.7l-3.2-0.9l-1.8-0.7l0.8-0.5L146,372l-0.2,0.6l-1.1,1.1l-1.7,0.1l-1.7-0.5l0.1-0.7l-0.9,0.4l-2.8-0.2
	l-3.1,1.1l-0.7-0.5l-2.4-0.7l0.2-0.9l-1.4,0.8l-0.6-0.5l-1.1,0.1l0.5-1.2l-1.5,0.4l0.3-0.6l-1.4,0.4l0.9-0.7l-1.3,0.1l0.3-1.8
	l-0.7,1.1l-1.2,0.5l-0.7-1.1l0.1,1.3l-1.5,0.5l0.4-1.6l-1.7,2l1-0.2l0.1,1.5l0.2-0.6l0.6,0.9l-0.7,0.5l0.8,0.8L121.8,375.5z
	 M39,408.1l0.7-0.6l0.4,0.8l-0.7,0.2l0.1,0.8h-1.3l-2.2-0.7l1.5,0.1L39,408.1z M12.8,399.6l-0.1,0.4l-1.5-0.3L12.8,399.6z
	 M28.2,407.6l0.7-1l0.6,0.5l-0.8,0.8L28.2,407.6z M26.8,406.8l-0.8,0.6l0.3-0.8l-0.8-0.8l1,0L26.8,406.8z M30.2,407.5l1.8,0.6
	l-0.2,0.7l-0.9-0.3l-1.2,0.4l0.1-1.1L30.2,407.5z M112.1,385.5l-0.1,0.6l-0.9,0.1l-0.6,0.7l-1.9-0.4l1-1.3l0.6,0.2l0.5-1.7l0.9-0.3
	l-0.4,1.2l1.5,0.4l-0.3,1.1L112.1,385.5z M57.6,367.4l-1-0.6v-0.6L57.6,367.4z M127,373.4l-0.5-0.6l0.5-0.8l1.2,0.5L127,373.4z
	 M123.8,376.4l-0.1-0.4l1.7-2.5l0.7-0.4l-1,1.6l-0.3,1L123.8,376.4z M86.5,382.8l0.2-0.8l1.1-0.5l-0.5,1.2L86.5,382.8z M173.7,394.6
	l-1.9-1l-0.7-1.4l0.3-0.3L173.7,394.6z"/>
<path class="st0" d="M202,357.8l1.1,0.1v3.9l-1.1,1.5l-3.2-0.5l-2.2-2.6l3.7-2.6L202,357.8z M222.1,366.9l1.1-1l2.1,3.8l2.6,2.4
	l-6.4,0.2l-3.2-4.4L222.1,366.9z M233.8,373.6l8.5,1.5l-3.2,1.2l-6.4-0.9L233.8,373.6z M238,378.1l2.7,1.2l-2.7,1.6V378.1z
	 M243.4,376.6l1.6,2l3.2-0.8l4.8,2.5l-0.5,2l-5.9,1.2l-0.5-3.2l-3.2-1.2L243.4,376.6z M255.7,388.9l3.2,1.8l4.3,1.4l2.7,2.5v2.4
	l4.3,2.9l-1.6,2.7l-4.8,1.4l-4.3,2.3l-1.6,3.4l-3.8-2.5v-4.7l-2.2-6.4l3.2-3.1l-1.1-3.7L255.7,388.9z"/>
<path class="st0" d="M434.2,176l-4.7,0.2l-0.2-4.8l-10.2,0.6l-1.7,1.8h-3v-1.7l-15.4,0.4l0.8-2.4l-0.1-5.5l1.7-1.3l-0.1-5.6l-4.2,0
	l-0.6-8.8l-1.7-2.4l0.8-2.8h3.3l-0.4-2.9l2.5,0l-2.5-4.1v-1.4l10.7-0.2l0.1,3.3l2.5,2.2l2.9-0.1v-1.4h4.1l0.5,4l1.3,1.4l4.2-0.1
	l0.1,2.8l2.5,1.3l1.5,5.5L428,157l0.2,5.4l-2.5,0.1l0.1,4.2l5.5-0.2l0.1,2.8l2.6,1.8L434.2,176z"/>
<path class="st0" d="M410.2,237.2l-0.4-17.1h1.8l-0.1-2.8h-3.1l-1.4-4.6h2.6v2.3l7.1,1.2l0.8-4.2h4.4l0.1,2.6l5.3-0.1l2.6-1l1.8,1.4
	l-1.6,2.4l2.3,1.6l4-0.2l1.3-1.6l1.1,4.5l1.4,1.8l6.3,0.7l1.5,2.3l-2.2,0.2l-0.2,4.9l1.4,0.9l0.2,3.7l-3.6,0.2l-1.6,4l-2.3-0.2
	l0.8-2.8l-3.1,0.3l-1.2,2.8l-2.2,0.5l0.1,2.8l-2.7-0.4l0.1,3l-1.8,0.2l-0.1-2.7h-3.6l-0.6-5.6l3.2,0.2l-0.1-1.6l-3.6,0.2l-8.1,0.1
	l-1.3,3.1l-2.3,0l0.4-4.2L410.2,237.2z"/>
<path class="st0" d="M449.5,291.3h3.3l2.7-1.6l-0.1-2.7l-0.9,0l-0.3-5.6l1.4-0.1l-0.3-5.8l2.9,1.2l0.1,1.3l4.2-0.2l0.1,2.1l4.2-0.1
	l0.1,1.7l3.7-1.3l2.5,2.4l1.8-1l1.7,3.7l3.8-0.3l0.4,5.7l-7.1,0.4l0.8,11.3l0.3,4.7l-3.2,2.3l-0.8,2.5l-2.4,0.9l0.6,2.5l1.9-0.1
	l0.5,6.7l-1,0.1l-8.2,0.5l-6.8,0.4l1.1-5.6l-5.3,0.8l-1-0.7l-3.8,1.4l-1.4,1.7l1.8-3.1l-1.2-4.1l1.9,0.2l0.3-3.8l1.9-0.8l2.2-3.7
	l0.7-4.6l-2.4-1l0.6-6.5L449.5,291.3z M450.7,303.9l-5.7,0.5l1.7-3.7l-0.1-2.7l3.3-0.4l1.9-0.2l-1.3,2.4l1.5,0.6l0.6,3.4
	L450.7,303.9z M445.9,313.7l0.2,5.4l-1.7,4.6v-0.2l-1-0.7l0.8-3.1l-3-1.4l1.3-3.3L445.9,313.7z"/>
<path class="st0" d="M442.3,201l-0.5-0.1l-0.2-4l1.7-0.1l1.1-4l-3-0.1l-0.6-3.6l4.7-1l3.2,3l9.2,1l-0.3,2l2.3,1.3l5.2-0.9l4,0.2
	l0.2,2.8l5.7-0.4l0.2,3.4l2.7,0.5l0.3,4.2l-2.6,0.9l0.6,7.8l-4.4,0.5l-0.2,2.7l-2.2,0.2l-0.4-5.7l-3.1,0.1l0.6,2.7l-2.2,0.7l-1-1.5
	l-0.9-0.4l-0.5-0.5l-0.3,2.2l-3.4,2.3l0.6,2.3l-1.8,0.3l1.3,6.1l1.8,0.2l-0.2,3.6l1,2.4l2.7-0.1l1.5,2.5l-1.8,0.3l-3.5,1.9l-0.5-1
	l0,0l0,0l-3.7-0.2l-0.3,3.3l-3.2-0.1l-0.6-3l-4.5,0.3l-0.2-3.7l-1.4-0.9l0.2-4.9l2.2-0.2l-1.5-2.3l-6.3-0.7l-1.4-1.8l-1.1-4.5
	l-1.3,1.6l-4,0.2l-2.2-1.5l1.7-2.4l-1.8-1.4v-1.1l4.4-0.1l2.1-2.4h4l-0.2-4.8l2.1-1.3L442.3,201z"/>
<path class="st0" d="M445.6,188.1l-1.4-1.4l-1.4-0.9l1.2-1.6l-2.6,0.1l-2-5.9l0.3-1.9l1.2-2.2l-0.2-3.3l1.2-0.7l7.2-0.3l2.6-0.1
	l1,2.7h1.7l0.7,4.2l3.2-4.2l0.6,2.1l3.5,0.8l2.9-1.5l1,1.4l4.2-1.2l1.4,0.8l0.8,5l4.8,0.1l0.3,3.6l-1.3,0.1l0.3,3.3l-1.1,2.7l7.1,1
	l-2.6,0.4l1.9,1.5l-0.6,3.6l-1.3-0.1l0.4,4.7l-2.6,0.1l-2.7-0.6l-0.3-3.4l-5.7,0.4l-0.2-2.8l-4-0.2l-5.2,0.9l-2.2-1.2l0.3-1.9
	l-9.2-1L445.6,188.1z M440.6,182.7l-2.2-0.5l-0.8,2l-5.6,0.1l2.5-1.4l-0.2-4.6l2.1-1.8l3.4-0.1L440.6,182.7z"/>
<path class="st0" d="M294.4,122.2l1.2-13.9l-2-4.4h-4.8l-0.2,1.7l-4.2-3.2l1.3-4.9l1.5-11.8l6.3,0.6l1.4,2.8l2.3,0.8l0.5-6.2
	l5.1,0.4l-0.2,2.7l2.7,0.9l0.4,5.6l3.5,1.5l-0.1,1.4l4,0.3l-1.8,2.6l8,0.5l0.4-5.6l5.9,0.6l-0.8,6l4,0.1l-0.6-3l6.9-2.2l0.1-1.8
	l2.8,0.1l1,3.5l-1.9,5.5l-1.7,2.1l-2-1.2l-4.9,1l-4.2,2.5h-2l1.5,2.8l-1.7,1.7l-3.6-0.5l-0.3,4.8l10.9,0.6l0.1-2.7l2.8,0.1l-0.7,6.2
	l-1.2-0.6l-0.3,6.6l-3.3-0.2l-0.4,6.2l-2.5-0.1l0.2,3.4l-2.1,1.3l-0.7,4.1l3.3,0.2l0.9,5.6l-7.5-0.5l-2.1-0.1v-6.9l-2.5-0.2
	l-0.2,2.7l-4.6,0.9l-0.6-3.9l-2.5-0.2l0.2-2.7l-1.6-0.1l-1.4,2.7h-2.9l0.2-7.8l-6.2-0.4L294.4,122.2z"/>
<path class="st0" d="M376.8,138.8l-4.9-2.6l-7-0.2l-2.1,1.6l-0.4-0.3l-0.4-0.3v-0.1l-0.4-0.3l0,0l-2-1l-2-1.9l-4.1-0.1l-4.7,3
	l-4.1,0.2l-0.7-3.4l-6.2-0.3l-11.5-0.6l0.3-6.2l3.3,0.2l0.3-6.6l1.2,0.6l0.7-6.3l-2.8-0.1l-0.1,2.7l-10.9-0.6l0.3-4.8l3.6,0.5
	l1.7-1.7l-1.5-2.8l6.2-2.5l5.2,0.4l0.7,2.5l2.6-4.8l1.9-5.5l4.4,0.2l-0.1,2.9l2.8,0.2l1.7-2.9l0.1-4.1l4-1.3l0.2-5.4l1.3-2.6
	l8.3,0.2l-0.5,2.7l3.2,0.1l-0.1,5.5l5.5,0.1l2.8-0.9l0,4.2l1.6-1.4l3.6-0.5v-0.1l3.2,0.1l2.8,1.5v3l2,1l0,0l2,2l-2.8,0.8l1.6,2.7
	v2.9l1.6,1.2l4,0.1v4.8l8.1,3.3l0.4,2.7h-1.6l0,4.2l3.3,1.2v2.5h1.6V126h2.5v2.5l-1.6,2.9l-4.9,0.1l-1.1,4v1.4l-5.8,0v-4.1h-2.1
	l-0.4-2.9l-5.3,0.1l-2.9,1.4l-1.2,4.1h-4.1L376.8,138.8z M366,136.6l5.8-0.3l2.5,1.5l-1.3,2.3l-1.3,1.3l-7-0.1L366,136.6z"/>
<path class="st0" d="M299,162.4l0.5-6.2l-8-0.6l0.4-5l0.5-6.1l-6.8-3.1l0.5-5.7l2.5,0.2l1.4-6.7l-6.1-0.6l0.7-7.3l9.8,0.9l-0.7,8
	l6.2,0.4l-0.2,7.8h2.9l1.5-2.6l1.6,0.1l-0.2,2.7l2.5,0.2l0.6,3.9l4.6-0.9l0.2-2.7l2.5,0.2v6.9l2.1,0.1l-0.3,5.6l5.4,0.3l-0.3,5.6
	l1.7,0.1l-0.4,6.7l3-0.3l-1.5,4.7l-3-0.1l-0.2,3.4l3,0.8l-0.1,1.4l3.9,0.2l0.3-5.6l4.2,0.2l-0.3,5.6l-1.3-0.1l-0.2,4.2l3.9-1.2
	l0.3,2.7l-0.3,7l-3.5-0.2l0.1-1.4l-3.5-0.2v8.5l-3-0.2l-0.3,5.4l-2.2-0.1l0.1-2.8l-2.2-0.1l0.1-2.7l-7.4-0.4l-1.5,1.2l-13.5-0.8
	l-0.1,1.6l-3.9-0.3l-0.2,3l-3-0.2l0.7-8.2l-5.2-0.6l-1.1-1.9l-2.4,2.4l-6-1.4l-1,2.3l0,0l-4.3-0.4l0.2-2.2l-2.5-0.9l-5,5.8L261,190
	l-3.6,0.5l-4.7-1l-1.4-3.4l1.5-1.6l6.2,3.5l1.2-3.1l-2.1-1.1l0.3-2.6l-2-5.3l-2.5-0.7l0.6-4.8l-14-1.7l-3.8-0.5v-3l-5.2-2.6l1-7.4
	l8.8,1.1l4.2,0.5l0.2-1.2l8.6-0.5l-1.6,2.5l5.5,0.6l1.9,2.1l-0.4,4l3,0.2l-0.9,4.4l5.5,0.6l2.3-1.6l1.3,3.7l-1.4,4.9l6,1.1l2.2-0.7
	l0.2-2.7l2.2-0.4l3.4,0.7l0.9,4.1l3.9,0.3l0.1-1.7l5.6,0.4l-0.6,7l19.9,1.4l0.5-6.9l2.6,0.2l-0.5-5.5l-1.7-0.1l0.7-10.5L299,162.4z"
	/>
<path class="st0" d="M285.4,260l-3.6-1.1l0.5-5.3l-2.7-0.2l2.1-2.5l-0.2-3l2.1,1.8l3.3-0.6l-1.9-5.2l3.6,0.3l2.1-3.8l5.4,1.1l1-1.9
	l-2.3-0.2l0.2-2.8l2.2,1.1l1.3-11.3l12.1,1l0.4-6.3l6.2,0.4l-0.4,6.3l2.2,0.1l-0.2,3l1.3,1.7l4.5,0.1l6.7,1.9l0.1-3l4.5,0.4
	l-0.2,4.5l-4.5-0.2l0.7,4.3l-3.2,0.2l-0.1,2.5l6.8,0.3l-1,23.8l-1,11.6l-4.2,1l-2.3-1.3l0.8-7.6l-5.6-0.3l0.4-6.9l-6.9-0.4l-0.2,3.7
	l-2.8,1l-4.1-0.4l0.3-4.7l-5.5-0.2l-1.2,3.4l-2.8-0.1l-4-2.3l0.9-11.6l-4.1-0.5l-2.7,5.4l1.6,3.6L285.4,260z"/>
<path class="st0" d="M214.9,217.1l2.4-3.9l3.5,0.5l-0.5-3l4.2,2l1.1-8.3l9.7,1.1l5.1,2.4l3.8-2.2l-0.5,8.4l4.4,0.5l5.7,1.1l-0.3,2.6
	l2.2,4.1l30.3,3l12.5,0.8l-1.3,11.3l-2.2-1.1l-0.2,2.8l2.3,0.2l-1,1.9l-5.4-1.1l-2.1,3.8l-3.6-0.3l1.9,5.2l-3.3,0.6l-2.1-1.8l0.2,3
	l-2.1,2.5l2.7,0.2l-0.5,5.3l3.6,1.1l0.2,3.6l-1.8-0.1l-0.7,8.3l1.4,0.1l-0.3,4.1l1.1,4.1l2,4l-2.8-0.5l-1.5,12.9l-4.2-1l-1.5,1.1
	l-2.2-2.3l-5.8,1.1l-6.6-0.6l1.2-7.6l-7-0.7l0.8-3.4l-1.1-2.9l-6.5-0.7l0.1-1.3l-20.5-2.4l-0.6,4.3l1.9,0.2l-0.4,3.4l1.5,3.5
	l-0.3,2.5l-3,1.4l-3.8-0.5l-1.5,11.5l-0.9,7l-11-1.5l5.3-38.5l2.4-17.1l-1.5,0.6l-8.6-1.4l1.9-13.1l-2.3-0.3l0.6-4.3l-7.2-3.8
	l2.4-0.6l2.4-4l4.4,0.8l4.1-3L214.9,217.1z M252.4,244.1l3.3-0.6l-1.6-2.6l2.1-2.5l-13.1-1.5l-1.3,10.9l2.2,1.3l2.5-1.3l1.1,2.2
	l1.5-5.1l-2.3-0.3v-4.3h1.8l-0.3,2.6L252.4,244.1z"/>
<path class="st0" d="M276.7,200.2l13.5,1.2l-0.9,5.7l-1.3,0.1l-0.6,7l2.8-1.7l2,3.1l-1.8,5.1l-5.5,1.7l-2.9-2.3l-0.7-2.7l-3.1-0.7
	l-6.1,2.7l0.1-5.2l-3.6,0.3l1.3-4.1l-4.2-7.1l10.5,1.1L276.7,200.2z"/>
<path class="st0" d="M248.1,214.8l1-8.1h1.8l0.9-7.5l8.7,1l-1.4-3.7l1.8-4.1l-3.3-1.7l3.6-0.5l4.1,2.7l5-5.8l2.5,0.9l-0.2,2.2
	l4.3,0.4l0.8,5.5l0.5-5.4l-1.3-0.1l1.1-2.3l6,1.4l2.4-2.4l1.1,1.9l5.2,0.6l-0.7,8.2l3,0.2l0.2-3l3.9,0.3l0.1-1.6l13.3,0.7l1.4-1.2
	l1.1,2.8l-0.3,4.2l-2.7,1.1l-4.4-0.3l0.1,5.5l4,0.3l-0.9,14l-0.4,6.3l-12.1-1l-12.5-0.8l-30.3-3l-2.3-4l0.3-2.6L248.1,214.8z
	 M276.7,200.2l-0.4,4.2l-10.5-1.1l4.2,7.1l-1.3,4.1l3.6-0.3l-0.1,5.2l6.1-2.6l3.1,0.7l0.7,2.7l2.9,2.3l5.5-1.7l1.8-5.1l-2-3.1
	l-2.8,1.7l0.6-7l1.3-0.1l0.9-5.7L276.7,200.2z"/>
<path class="st0" d="M240.5,168.8l14,1.7l-0.6,4.8l2.5,0.7l2,5.3l-0.3,2.6l2.1,1.1l-1.2,3.1l-6.2-3.5l-1.5,1.6l1.4,3.4l4.7,1
	l3.3,1.7l-1.8,4.1l1.4,3.7l-8.7-1l-0.9,7.5H249l-1,8.1l-4.4-0.5l0.6-8.4l-3.8,2.2l-5.1-2.4l-9.6-1l2.5-18h-1.3l-2.8,3.9l-4.5,3.3
	l0,0l-4.3-0.6l-0.7-7.2l3-8l10.7,1.5l1.3-2.9l6,0.9l-0.5-3.1l1.3-3l3.9-0.2L240.5,168.8z"/>
<path class="st0" d="M288.5,105.6l0.2-1.7h4.8l2,4.4l-1.2,13.9l-9.8-0.9l-0.7,7.3l6.1,0.6l-1.3,6.7l-2.5-0.2l-0.5,5.7l6.8,3.1
	l-0.5,6.1l-8,0.2l-6.3-0.7l1.2-12.3l-1.5,2.2l-2.5-0.4l0.6-2.1l-6.2-0.6l-0.3,2.5l-2.1,0.5l-2,3.2l3.3,4.2l-5.4,2.8l2.2,3l-0.2,2.3
	l-2.6,0l-2.8-2.1l-5.6,0.3l0.2,1.5l-8.6,0.5l-0.2,1.2l-4.2-0.5l-1.3-3l-0.7-7.7l2.1,0.4l-1.3-3.2l0.9-6.8l-5.8-0.8l0.5-6.9l-5-5.8
	l-1-7.4l-3.2-0.5l1.3-8.6l2.3,3.6l2.8-2l2.5,2.7l2.8,0.2l3.8-3.7l2.8,0.4l1.5,3.9l7,2.7l0.4,3.7l5.7,0.7l1.5-13l-2-4l7.2,0.6
	l-0.4-3.6h4l0.3-2.7l2.8,0.3l0.5,2.6l-2,3.5l2.3,0.9l-1.8,16.8l10.6,1.1l1.4-15L288.5,105.6z"/>
<path class="st0" d="M534.8,135.4l-1.4-0.9l-1-1.4l2.5-0.5l-1-6.9l1.1-0.9l-0.5-3.4l0.8-2.9l3.3-2.8l1.1,4.9l1.7,2.9l-0.4,5.9
	l-3.4-0.1l-1,4.9L534.8,135.4z"/>
<path class="st0" d="M484.8,150.1l-0.3,0.9l-2.2-1.4l-1.5-3.3l2.4-1L484.8,150.1z M527.8,101.7v0.3V101.7z"/>
<path class="st0" d="M94.4,159.8l-2.1-0.5l-3.5,3l6.5,1l0.4-3.2l0.9-0.2l1.3,2l0.7-2.5l0.8,0.2l-1.5,4l-2.3,1.8l-0.8,3l-3.1,1.4
	l-3.3-1.2l-5.8,1.6l-2.3,1.8l-2.7-0.5l-2.2-1.9l-0.1,0.4l-3.5-0.5h0.5l0.2-7.4l-1.7-0.3l-1.1-5.7l-1.1-4l0.7-2.3l2.9,0.9l0.8-2.6
	l1.2,0.4l3.7-0.4l2.3,1.4l-0.9,1.7l5.3-1.5l1,2.8l1.6-2.7l0.6-0.5l4.9,0.3v0.1l-1.4,1.9l-0.6,4l4.4,2L94.4,159.8z M95.7,165.4
	l-5-1.5l1.9,3.1L95.7,165.4z"/>
<path class="st0" d="M108.9,202.6l-0.5-1.9l0.7-3.1l-1.9-3.5l-0.8-0.3v-5.6l-2.7-2.2l-0.3-2.4l-2.2-0.5l1.1-2.6l-0.2-2.7l-2.9-2.8
	l0.1-2.3l1.5-4.1l-4.1-1.5l-1-1.6l2.3-1.8l1.5-3.9l-0.8-0.2l0.9-1.7l-2.1-0.5l-0.7,2.7l-0.9,0.2l-1.3-0.2l0.6-2.3l-4.4-2l0.6-4
	l8.2,2.8l1.1-4.4l-1.9,0.5l-0.6,2.3l-2.9-2.7l-2.5-0.5v-0.1l-1.9-2.9v-0.2l-2.4-4.2l2.4-0.5h2.2l3.3,4.5l3.3,0.9l-0.4-3.5l-4.4-4.9
	l-1.9,0.5l-1.5-1.2l-0.8-0.5l3.7-0.7l-0.2-2.5l1.8-1.6l2.6,1.7l-0.3,2.8l1.9-0.5l-0.2,2.5l3.5,0.1l3.1-11.9l-2-0.9l-0.3-2.1l-4-1.1
	l-2.1-2l0.7-0.9l5-2.5h2.2l1.8-3.5l9.3,2.4l13,3.2l13.4,3.1l-3,13.2l-0.5,2.3l5,1.1l-2.6,11.7l-1,2.8l4.2,0.7l2.4-2.8l0.3,2.6
	l2.5,0.5l-2.1,9.7l-1,0.5l-1,4.8l9.1,9.7l-2,9.8l-10.8-2.2l-1.1,5.1l-3.9-0.8l-0.7-2.9l-9.5-2.2l-0.9,2l-2.8,12.1l-1.4-1.7l-2.4,0.3
	l-2.1,5.2l-7.3-2.3L108.9,202.6z M101.6,132.4l-4.1-2.6l4.1-0.4l2.1,2.1L101.6,132.4z"/>
<path class="st0" d="M177.1,17.4l-2.6,12.1l3.8,0.4l1.1,4.1l-4.3,0.1l-0.3,1.2l2.2,6.4l-1.7,0.5l3.6,3.4l3.5,6.1l-0.3,1.5l2.5,3.2
	l3.4,0.7l-3.9,9.8l0.7,2.6l-1.6,0.1l-0.1,2.6l-4.2,2.7l1.6,2.3l-0.8,1.8l-9.8-2l1.4-2.8l-5.8-3.3l-1.9,1.3l-0.3-2.2l-3.4,0.5
	l-2.2,2.5l-1.4,2.7l-5.1-1.1l-3.4-4.9l-0.7-5.9l1.8-2.3l-2.7-0.6l-1.2,1.7l-5.2-1.9l-1.5-4l-2.3-0.5l0.6-2.5l-2.6-2.4l1-3.8
	l-2.2-3.9l-4.2,0.6l0.5-6.6l1.1-2.6l-4-1.7l-5-3.8l-1.1-3.3l1.6-6.9l1.6-0.1l0.9-6.1l3.9,0.2l2.7-1.5l5.8,0.1l1.3-3.7l28.9,7.1
	L177.1,17.4z M131.1,48.9l3.3,1.3l2,3.1l0.2,2.5l-4.2,0.6l0,0h-1.2l0.4-3.3l-2.1-1.5L131.1,48.9z"/>
<path class="st0" d="M129.9,119.9l3-14.3l4.9-20.7l-3.2-0.7l5.7-10.1l1.4-2.4l3.4,3l3-0.7l3.1,0.7l5.1,1.1l1.4-2.7l2.2-2.5l3.4-0.5
	l0.3,2.2l1.9-1.3l5.8,3.3L170,77l9.8,2l-2.5,8.2l2.1,1.6l-0.6,7l-2,3.9l1.3-0.2l3.5,3.3l1.3-0.3l1.4,3.4l1.6,0.5l-0.2,3.2l3.2,0.6
	l-0.2,1.2l4,0.7l-0.5,2.7l-2.8-0.5l-1.4,7.6l-2.3-1l2-8.3l-3.2-0.7l-1,5.5l-3.1,0.9l-0.7,3.5l-0.4,0.1l-1.6,1.6l-2-0.4l-1.3,6.5
	l-4.5-0.9l-3.1,7.2l-4.2-0.3l-2-2.7l0.4-4.2l-4.8,2.2l-1.2,1.6l-3.1,0.4l-0.5,2.5l-2,1.4l-6.8-1.2l-2.3,0.5l3-13.2L129.9,119.9z
	 M149.2,96.9l3.5,6.8l1.5,0.7l1.4,3.1l3.2,0.7l1.1-5.3l-1.5,1l-4.6,0.1L149.2,96.9z"/>
<path class="st0" d="M197.7,150.1l-2.2-4.5h-2.6l-0.2-3.8l-2.3-1.5l0.8-2.3l-3.8-0.3l-1.1,5.9l2.7,1.8l-1.4,2.8l-13.3-2.5l3-15.5
	l21,3.7l1.2,2.8l-1.9,1l1.8,1.9l1,4.3l4.6,0.5l2.2,2.1l0.1,2.3l-3.9,0.4l-0.4,5L197.7,150.1z"/>
<path class="st0" d="M203.1,156.3V156l3.5,2.4l3.2-1.3l-1.9,12.3l-2.1-0.3l-1.3-2.5l0.1-3.5l-3.3-3.4l-1.8,0.6l1.8,2.3l-0.6,3.6
	l-1.8,3l5.1,0.8l-0.9,5.4l-1.3-0.2l-1.8,10.9l-2.3-2l-2.2-0.1l-5.4-2.1l-0.6,3.3l-3.1,0.1l-1.9,3.2l1.9,2l-1,3.2l-4.4-0.7l1.6-6.7
	l-15.5-2.9l2.9-15.2l16.6,2.9l0.8-2.1l2.8-1.1l0.5-2.3l2.3-0.6l1.2-7.2l3.3,0.7L203.1,156.3z M198.8,161.1l-2.6,2.8h2.6L198.8,161.1
	z"/>
<path class="st0" d="M109.2,208.9l0.6-2.5l-1-3.8l2-0.6l7.3,2.3l2.1-5.2l2.4-0.3l1.4,1.8l2.8-12.1l0.9-2l9.5,2.2l0.7,2.9l3.9,0.8
	l1.1-5.1l10.8,2.2l2,1.4l-1.5,7.3l-3.1,4.1l-1.2,5.8l11,2.3l-1.1,10.3l-1.9,2.5l-2.3-2.4l-5-0.2l0.1,4.4l-1.2,6.1l0.6,4.2l1.3,0.4
	l1.3,2.7l4.1,0.6l3.8,2l-0.2,3.4l-3.9-2l-6.7,0.6l0.1,4.3l1,2.1l-2.4,0.2l-0.6,3.3l-11.5-2l-1.2-5.8l-1.9-2.4l1.7-5.8l-6.3,0.9
	l1-4.5l4.2,0.3l2.5-3l-1.7-2.9l0.1-2.8l2.6,1l2.5-0.9l-2.4-2.1l-17.8-3.9l0.4-5.7l-2-3.5l-2.7-0.3l-2.4-1.6L109.2,208.9z"/>
<path class="st0" d="M107.2,258.4l3-2.6l-2.9-2l1.3-3.8l4.3,4.1l2.1-0.8l-0.2,5.1l3.6-1.1l6,1.3l-1.3-2.8l2.1-3l-2.8-4.5l14.1,2.9
	l0.1-0.3l11.5,2l-1.3,1.8l-0.2,3.6l-2.5,0.6l-1.6,3.3l-12.4-2.5l3.1,3.5l2.3,5.1l-2.5,2.9l1.6,1.5l-25.6-3l0.6-2.4h-2l1.2-5.4
	L107.2,258.4z M128.1,264l0.8,0.9l2.1-3.2l-3.5-4l-2.2,1.6L128.1,264z"/>
<path class="st0" d="M355,402.3l-9.1-5.1l-4.1-0.5l-0.9-2.8l3.2-3.3l7.6,0.2l6.1,0.2l0.5,2.6l-1.1,5.4L355,402.3z"/>
<path class="st0" d="M365.4,394L365.4,394l-7.1-0.3l-0.5-2.6l-6.1-0.2l0.1-4.3l-1.4-4.6l-4-0.3l0.3-11l6.5,0.2l0.2-8.3l2.5,0.1
	l-1-1.8l2-1.4l1,1.5l3.5,0.5l1,2.1l4.5,2.4l-2.6,3.6l5.5,0.7l2,1.1l-2,3.2l-2.5-0.6l1,3.1l-1.6,5.2l-3.6,1.7l2.5,0.5l-0.1,3.7
	l-1.5-0.5v3L365.4,394z M366.2,375.3L366.2,375.3z M371.3,368.9l-1-1l4.5-0.7l-2,3.1L371.3,368.9z"/>
<path class="st0" d="M371.3,368.9l-1.5,1.4l-5.5-0.7l2.6-3.6l-4.5-2.4l-1-2.1l2.5-2.2l-2.4-3.2l2-1.6l-1.4-2.7l2-1l2,1.8l3.5-3.8
	l4.9,2.6v3l2.5-2.2l4.9,4.7l-0.5,4.5h-1l-0.5-0.5l-2,0.1l-1-0.1l-4,1.8l2.5,2.8l-0.5,1.5l-4.5,0.7L371.3,368.9z M374.3,371.1l0.5-2
	l5-2.2L374.3,371.1z M375.9,365.7l2,0.8L375.9,365.7z"/>
<path class="st0" d="M408.5,347.5l-5.4,0.6l0.4-4.1l-3.9,2l1.5,2.7v2.8l-3.4,2l0.5,2l-6.9,4.7l-8.5,2.4l-2.5-1h1l0.5-4.5l-4.9-4.7
	l-2.5,2.2v-3l-4.9-2.6l1-2.6l-2.4-2.4l4-4.1l2.5-1v-3.1l1.5-0.1l1.5,0.4l6.4-1.5l1,2.3h2.9l1-1.8l-2.4-4.5l-0.5-3.2l5.3-1.4l5.3-4.3
	l-0.5-3.6l1.9-0.6l-2-3.3l2.4-0.2l1.9-2.5h2.4l1.9-3v0.8l5.7-0.2l2.4,2l2.4,1.3l0.1,3.6l1.5,0.5l1.6,5.4l-5.3,0.6l-8.7,2.2l1.6,8.2
	h-2.4l-0.4,5.3l1.6,4.4l3.9-0.1l-1.4,3.3L408.5,347.5z M376.9,361.1l3.5,4.3l-2.5,1.1l-2-0.8h-0.5l-2.5-2.8L376.9,361.1z
	 M377.9,361.2l2-0.1L377.9,361.2z"/>
<path class="st0" d="M376.1,335.6l-1.9-1.8l-1.4-2l4.9-2.7l-2.9-5.9l6.8-3.9l2.4,2.2l1.9-2.2l3.9-0.6l-0.4,4.8l1.9,2.6l-5.3,1.4
	l0.5,3.2l2.4,4.5l-1,1.8h-2.9l-1-2.3l-6.4,1.5L376.1,335.6z"/>
<path class="st0" d="M385.4,308.9l-5.8,3.3l-3.4-0.2l-4.7-7.3l-1.4-2.4l1.9-2.3l1-1.4v-0.8l0,0l-0.4-2.8l-5.2-2.2l0.5-1.8l-5.2-0.1
	l0.4,2l-2.3-0.8v-1.8l0.1-4.2l4.2,0.1l-2.3-2.7l1.4-0.8l-4.2-1.2l0.5-3.2l0.9,1.4l2.8-2.1l2.8,2.6l3.8-0.9l-0.5,2l3.8-3.1l0.5,1.7
	l3.7-0.6v-3.5h1.9l0.5-2.5l1.9-0.2l2.8,2h9.3l3.7-1.8l-0.4,3l1.9,0.7l-0.4,2.7l2.8,2.4l0.1,6l-1-0.8l-6.1,0.1v6.6l-6.6-0.2l0.5,3.6
	l-0.9,2.2l-3.3,0.8v3.2l5.2-0.3l-0.5,2l2.9,0.7L391,308L385.4,308.9z M372.1,299.7L372.1,299.7z M366.2,375.3L366.2,375.3z"/>
<path class="st0" d="M349.8,266l-2.3,0.5l-2.9,4.8l-6.5-1l-3.6-3.1l1-23.8l-6.8-0.3l0.1-2.5l3.2-0.2l-0.7-4.3l4.5,0.2l0.2-4.6
	l-4.5-0.4l-0.1,3l-6.7-1.9l2.8-2.3l0.1-2.2l23.3,0.9l1.7,2.6l3.1,0.4l1.4-1.5l4,0.3l1.4-1.6l13.9,0.2v3.4l-1.8,3l-1.4,1.4l-3.1-1.5
	v2.6l2.2,1.4l-0.5,3h-2.7v2.4l2.7,0.9v2.8l3.6-0.5v-2h2.7v4.7h1.8l0.4,5.6h4.1l-0.9,1.8l2.3,0.1l-3.2,3.9l-1.9,5.7l0.9,2.4l7-2.7
	h3.7l1.4-1.4h0.9l0.9,1.5l2.8-0.4l0.5,1.5l-0.4,3.8l-3.7,1.8h-9.3l-2.8-2l-1.9,0.2l-0.5,2.5h-1.9v3.5l-3.7,0.6l-0.5-1.7l-3.8,3.1
	l0.5-2l-3.8,0.9l-2.8-2.6l-1.3-4.9h2.8l-0.8-6.2l-6-0.1l0.1-2.8l-2.3,0l2.4-2.5l0.1-4.7l-1.8,0.2l-0.1,2.8l-3.3,2.3l0.6-5.2
	l-2.3-0.1l-0.1,2.8l-2.8-0.1l0.8,4.2L349.8,266z"/>
<path class="st0" d="M395.3,229.5h-1.8l-0.4,2.8l5.4,1.4l0.1,7.6l1.4-0.4l1.4,2l0,4.1l3.6,0v2.3l0.5,1.8l-8.2,0.1l0.5,3.8l-2.3,2.2
	l-3.2-0.6l-1.8,4.9l1.9,2.5l3.2-0.9l2.8,0.9v3.7l-2.8,0.4l-0.9-1.5h-0.9l-1.4,1.4h-3.7l-6.9,2.7l-0.9-2.4l1.9-5.7l3.2-3.9l-2.3-0.1
	l0.9-1.8h-4.1l-0.4-5.6h-1.8v-4.7h-2.7v2l-3.6,0.5v-2.8l-2.7-0.9v-2.4h2.7l0.5-3l-2.2-1.4v-2.6l3.1,1.5l1.4-1.4l1.8-3v-3.4h5.4
	l1.4-4.8l3.1,0.2v2.7h3.6v-1.2l5.4,1.4L395.3,229.5L395.3,229.5z"/>
<path class="st0" d="M396.9,83.5h1.2l1.1-5.5h3.1l0.1,3.6l-2.7,0.6l0.1,6.8l1.2,1.1l7.1-0.9l2.7-1.5l0.2,8.4l-4.4,1.1v1.2l-6.8,0.1
	v-2.6l-5.6,0.1l-2.4,4h-2.8l-1.6-2.7l-2.8-1.3h5.6V89l1.2,1.4h4L397,89L396.9,83.5z"/>
<path class="st0" d="M352.1,48.8l-3-0.1l0.1-2.7l-6.8-0.3l0.1-2.6l2.3,0.1l0.6-4.4l20.3,0.5l27.5,0.3l1.1,1.9l2.6-1.6l3,2.1v1.6
	l4.6,1.3l4.2,0.3l-6,4.1l-3.4-0.9v-3.4l-6.1-0.9v2.8h-3h-2.6V44l-2.7,1.4l-2.6-1.4v2.6h-3l0.4,5.1l1.5,4.1h4.2v3.1l1.5,2.8h-1.5v2.7
	l-5.5-1.3v-1.4h-5.4l-1.6,1.4v-2.8L358.9,60l-0.3-13.6l-3.8-0.3l-0.1,2.8L352.1,48.8z M394.9,37.2v-3.4l2.2,0.5v1.9L394.9,37.2z"/>
<path class="st0" d="M177.1,17.4l20.3,4.2l0.6,2.9l2.3,0.2l-0.7,3.5l3.2,1.5l1.2,6.2l2.5,1.1l0.6,2.9l-2.4,0.2L203,51.6l2.7,0.5
	l-1,5.4l0.8,0.1l-1.9,1.7l-0.7,3.7l3.4,1.2l-0.6,3.6l0.8,2.2l3.8-1.4l0.7,2.9l4,0.2l-0.6,3.5l-3.8-1.1l-1.5,3.9l2,2.6l-1,5.9
	l0.2,5.8l3.2,0.5l-0.9,2.2l-3.7,0.1l-5.9-1.4l-0.2,1.4l-4.7-1l-0.6,3.6l-6.8-1.3l-1.3,4.7l-3.3-2.4l-1.3-3.8l-3.2,3.7l-3.5,0.9
	l-1.3,0.2l2-3.9l0.6-7l-2.1-1.6l2.5-8.2l0.8-1.8l-1.6-2.3l4.2-2.7l0.1-2.6l1.6-0.1l-0.7-2.6l3.9-9.8l-3.4-0.7l-2.5-3.2l0.3-1.5
	l-3.5-6.1l-3.6-3.4l1.7-0.5l-2.2-6.4l0.3-1.2l4.3-0.1l-1.1-4.1l-3.8-0.4L177.1,17.4z M193,38.4l-0.2,3.2l1.6-0.1l0.7-3.9L193,38.4z"
	/>
<path class="st0" d="M269.1,32.6l-1.2,4l-4.1-0.7l-1.5,2.6l4.1,0.9l0.7,3.9l-1.7,1.3l-1.5,9.2l-2.2-0.7l-2.5,1.5l-1.8-1.3h-3.5
	l-3.7-1.3l-1.7-2l1.3-9.4l-7.2-0.4l-1.2,8.5h-2.7l-0.4,2.7l-1.9,2.1v2.6l-1.7,3.4l-6.4-1.8l-0.1,3.4l-3.4-3.2l-6.1-0.9l-2.2,6
	l-0.1,0.5l-2.7-2.7l-1.3-4l-3.2-2.1l-1,3.3l-2.7-0.5l-0.8-0.1l1-5.4l-2.7-0.5l1.7-11.5l2.4-0.2l-0.6-2.9l-2.5-1.1l-1.2-6.2l-3.2-1.5
	l0.7-3.5l-2.3-0.2l-0.6-2.9l19.6,3.6l17.4,2.8l17.1,2.5L269.1,32.6z"/>
<path class="st0" d="M345.2,38.8l-0.6,4.4l-2.3-0.1l-0.1,2.6l6.8,0.3l-0.1,2.7l3,0.1l-0.1,2.8l-2.7-0.1l-0.1,2.7l1.5,0.1l0,2.7
	l-9.6-0.4l-0.1,2.7l-10.4-0.5l-2.8,1.7l-4.3,0.7l-4.5-2.2l0.2-2.7l-4.2-1l1.3-2.6l-2.1-2.2l-5-0.1l-2.8,1.4l-1.4-1.8l-2.1,2.2
	l-2.6-0.5l-5.9-2.8l-1-1.7l1.7-2.1l5.7,0.5l0.8-9.5l14.2,1.2L345.2,38.8z M305.6,58.5l-1.3-2.9l-1.5-0.1l0.3-3.7l2.4-1.4l0.3,1.6
	L305.6,58.5z"/>
<path class="st0" d="M297.7,83.7l1.8-21.7l4.2,0.4l1.9-3.8l0.1-6.5l3.5-1.3h4.6l2.1,2.3l-1,2.7l3.8,1.2l-0.1,2.3l4.5,2.4l4.7-1.1
	l2.8-1.7l10.4,0.5l0.1-2.7l9.6,0.4l-1.2,2.8l-6.5-0.3l-0.1,2.7l2.7,0.1l-1.3,2.7l6.9,0.3l-0.2,5.4l-2.3-0.2l-0.1,2.9l4.3,0.1l0,2.6
	l-6.6-0.2l1.5,3.1l5.5-0.1l2.7,1.5l-2.4,1.3l-0.1,2.8l-1.3,2.6l-0.2,5.4l-4,1.3l-0.1,4.1l-1.7,2.9l-2.8-0.2l0.1-2.9l-4.4-0.2l-1-3.5
	l-2.8-0.1l-0.1,1.8l-6.9,2.2l0.6,3l-4-0.1l0.8-6l-5.9-0.6l-0.4,5.6l-8-0.5l1.8-2.6l-4-0.3l0.1-1.4l-3.5-1.5l-0.4-5.6l-2.7-0.9
	l0.2-2.7L297.7,83.7z"/>
<path class="st0" d="M297.7,83.7l-0.5,6.2l-2.3-0.8l-1.4-2.8l-6.3-0.6l-1.5,11.8l-1.3,4.8l4.1,3.1l-4.5,0.7l-1.4,15l-10.6-1.1
	l1.8-16.7l-2.3-0.9l2-3.5l-0.5-2.5l-2.8-0.3l-0.3,2.7h-4l0.4,3.6l-7.2-0.6l2,4l-1.5,13l-5.7-0.7l-0.4-3.7l-7-2.7l-1.5-3.9l-2.8-0.4
	l-3.8,3.7l-2.8-0.2l-2.5-2.7l-2.8,2l-2.3-3.6l0.3-1.9l-11.2-1.7l2.2-13.6l-1.7,8l-3-4.9l-0.9,0.5l-3.2-0.5l-0.2-5.8l1-5.9l-2-2.6
	l1.5-3.9l3.8,1.1l0.6-3.5l-4-0.2l-0.7-2.9l-3.8,1.4l-0.8-2.2l0.6-3.6l-3.4-1.2l0.7-3.7l1.9-1.7l2.7,0.5l1-3.3l3.2,2.1l1.3,4l2.7,2.7
	l0.1-0.5l2.2-6l6.1,0.9l3.4,3.2l0.1-3.4l6.4,1.8l1.7-3.4v-2.6l1.9-2.1l0.4-2.7h2.7l1.2-8.5l7.2,0.4l-1.3,9.4l1.7,2l3.7,1.3h3.5
	l1.8,1.3l2.5-1.5l2.2,0.7l1.5-9.2l1.7-1.3l-0.7-3.9l-4.1-0.9l1.5-2.6l4.1,0.7l1.2-4l11.2,1.3l21.3,2l-0.8,9.5l-5.7-0.5l-1.7,2.1
	l1,1.7l5.9,2.8l2.7,0.2l-0.3,3.7l1.5,0.1l1.3,2.9l-1.9,3.8l-4.2-0.4L297.7,83.7z"/>
<path class="st0" d="M216.8,102.7l11.2,1.7l-0.3,1.9l-1.3,8.6l3.2,0.5l1,7.4l5,5.8l-0.5,6.9l5.8,0.8l-0.9,6.8l1.3,3.2l-2.1-0.4
	l0.7,7.7l1.3,2.9l-8.8-1.2l-1,7.4l5.2,2.6v3l3.8,0.5l-0.3,2.2l-3.9,0.2l-1.3,3l0.5,3.1l-6-0.9l-1.2,3l-10.7-1.5l-2.6,5.7l-0.6,3.9
	l1.1,4.8v6.2l-3.7,3.8l-3.1-0.4l-1.5,3.8l-1.4,0.5l-2.9,4l-0.8-0.5l-1.9,3.3l-5.6,1l-7.5-1.2l-1.2,4.2l3.2,2.7l-2,3.8l-0.1,3.3
	l-1.1,1.2l-4.6-2.5l-0.6-1.6l-4.4-1.4H172l-3.5,1.6l-0.8,4.6l-1.5,0.7l-2.9-2l-0.8-3.3l-2.6-3.2l1.1-10.3l-11-2.3l1.2-5.8l3.1-4.1
	l1.5-7.3l-2-1.4l2-9.8l-9.1-9.7l1-4.8l1-0.5l2.1-9.7l-2.5-0.5l-0.3-2.6l-2.4,2.8l-4.2-0.7l1-2.8l2.6-11.7l-5-1.1l0.5-2.3l2.3-0.5
	l6.7,1.2l2-1.4l0.5-2.5l3.1-0.4l1.2-1.6l4.8-2.2l-0.4,4.2l2,2.7l4.2,0.3l3.1-7.2l4.5,0.9l1.3-6.5l2,0.4l1.6-1.6l4.1,0.6l0.8-1.8
	l4,1.2l1.4-7.6l2.8,0.5l3.8,2v0.1l14.2,2.6l0.2-1.6l3.8-0.2L216.8,102.7z M203.9,170l4.3,0.7l-0.2-1.3l1.9-12.3l-3.2,1.3l-3.5-2.4
	v0.2l-5.6,2.3l-3.3-0.7l-1.2,7.2l-2.3,0.6l-0.4,2.4l-2.8,1.1l-0.8,2.1l-16.6-2.9l-2.9,15.2l15.5,2.9l-1.6,6.7l4.4,0.7l1-3.2l-1.9-2
	l1.9-3.2l3.1-0.1l0.6-3.3l5.4,2.1l2.2,0.1l2.3,2l1.7-10.9l1.3,0.2L203.9,170z M187.7,148.1l1,3.8l3.9,2.4l3.8-1.9l1.3-2.4l5.3,4.2
	l0.4-5l3.9-0.4l-0.1-2.3l-2.2-2.2l-4.6-0.5l-1-4.3l-1.7-1.9l1.9-1l-1.2-2.8l-21-3.7l-3,15.5L187.7,148.1z M207.3,135.4l1.5,1.3
	l0.6-4L207.3,135.4z M194.2,118.4l2.6-0.3l-1.8-1.5L194.2,118.4z M214.9,217.1l-17.3-2.6l-0.2-1.3l2.7-0.1l4-5.2l3.5-2.2l1-3.7
	l3.1,0.4l2.2-2.7l3.4-2l2.4-4l4.5-3.3l2.8-3.9h1.3l-2.5,18l-1.1,8.3l-4.2-2l0.5,3l-3.5-0.5L214.9,217.1z M179.7,121.8l0.7-3.5
	l3.1-0.9l1-5.5l3.2,0.7l-2,8.3l-2.4,1.6L179.7,121.8z M215.3,193l4.3,0.6l-4.2,4.5L215.3,193z M197.6,214.5l-0.9-0.1L197.6,214.5z"
	/>
<path class="st0" d="M98.1,23.7l-0.2,0.6l-3.7,0.3L93,28.6h-1.6l-5.2-3l-0.4-5.4l0.6-4.5l-1.2-6.6l2.4-5.2l4.5,4.9l8.5,3.4l4.8,1.1
	l-0.4,4.4l-2,0.2l-2.4,2.7l-4.1-1.1L98.1,23.7z M105.3,26.6l0.8-0.1l0.6-3.6l1.8-4.8l2,2.6l5.5,1.5l-1.6,2.7l3.6,1.6l-2,1.3
	l-0.1,4.6l-2.7,2.9l-0.2,2.1l-1.1-0.3l1.4-3.6l-1-2.2l-3.4-0.9L105.3,26.6z M115.4,7.8l-5.1-1.4l-1.5-3l0.5-3.1l7.6,2.2L115.4,7.8z
	 M104.8,24.2l-1,0.6l-0.7-0.2l-1.3,0.3l-1.9,1l0.9-1.8l-2.3-0.2l2.8-2.7l5.8-3.5l-2,2.7L104.8,24.2z M91,28.5L91,28.5l2,0.1
	l-1.6,2.6l-3.8-0.9h-2.4l0.6-2l3.9-0.7L91,28.5z M91,28.5L91,28.5z"/>
</svg>
