<?xml version="1.0" encoding="utf-8"?>
<!-- Generator: Adobe Illustrator 19.2.1, SVG Export Plug-In . SVG Version: 6.00 Build 0)  -->
<svg version="1.1" id="Layer_1" xmlns="http://www.w3.org/2000/svg" xmlns:xlink="http://www.w3.org/1999/xlink" x="0px" y="0px"
	 viewBox="0 0 69 69" enable-background="new 0 0 69 69" xml:space="preserve">
<path fill="#006aa9" d="M34.5,29.2c1.3,0,2.6,0.5,3.5,1.4c0.9,0.9,1.4,2.1,1.4,3.3v19.1c0,1.2-0.5,2.5-1.4,3.4
	c-0.9,0.9-2.2,1.4-3.5,1.4c-1.3,0-2.5-0.5-3.4-1.4c-0.9-0.9-1.4-2.1-1.4-3.3V33.9c0-1.2,0.5-2.5,1.4-3.3
	C31.9,29.7,33.2,29.2,34.5,29.2L34.5,29.2z M34.5,13.2c2.9,0,5.3,2.4,5.3,5.3c0,2.9-2.4,5.3-5.3,5.3c-2.9,0-5.3-2.4-5.3-5.3
	C29.2,15.5,31.6,13.2,34.5,13.2z M34.5,0.8C15.9,0.8,0.8,15.9,0.8,34.5c0,18.6,15.1,33.8,33.7,33.8c18.6,0,33.8-15.1,33.8-33.8
	C68.2,15.9,53.1,0.8,34.5,0.8z"/>
</svg>
