<?xml version="1.0" encoding="utf-8"?>
<!-- Generator: Adobe Illustrator 18.1.1, SVG Export Plug-In . SVG Version: 6.00 Build 0)  -->
<svg version="1.1" id="Layer_1" xmlns="http://www.w3.org/2000/svg" xmlns:xlink="http://www.w3.org/1999/xlink" x="0px" y="0px"
	 viewBox="0 0 75 75" enable-background="new 0 0 75 75" xml:space="preserve">
<path fill="#006aa9" fill-rule="evenodd" clip-rule="evenodd" d="M60.9,30.5c0-9.1-7.3-16.4-16.4-16.4c-9.1,0-16.4,7.3-16.4,16.4
	c0,9.1,7.3,16.4,16.4,16.4C53.6,46.9,60.9,39.5,60.9,30.5z M18.8,30.5c0-14.2,11.5-25.8,25.8-25.8c14.2,0,25.8,11.5,25.8,25.8
	c0,14.2-11.5,25.8-25.8,25.8c-4.7,0-9.1-1.3-12.9-3.5L14.1,70.3c-5.2,0-9.4-4.2-9.4-9.4l17.5-17.5C20,39.6,18.8,35.2,18.8,30.5z"/>
</svg>
