<?xml version="1.0" encoding="utf-8"?>
<!-- Generator: Adobe Illustrator 18.1.1, SVG Export Plug-In . SVG Version: 6.00 Build 0)  -->
<svg version="1.1" id="Layer_1" xmlns="http://www.w3.org/2000/svg" xmlns:xlink="http://www.w3.org/1999/xlink" x="0px" y="0px"
	 viewBox="0 0 610 400" enable-background="new 0 0 610 400" xml:space="preserve">
<g>
	<polygon fill="#FFFFFF" stroke="#5E5E5E" stroke-width="0.75" stroke-miterlimit="10" points="573,115.3 573,115.3 574.7,116.4 
		572.5,117.1 571.9,117.1 572.3,116 	"/>
	<polygon fill="#FFFFFF" stroke="#5E5E5E" stroke-width="0.75" stroke-miterlimit="10" points="578.1,116.2 578.1,116.2 
		578.5,115.1 579.4,116.2 579,116.6 578.1,116.8 	"/>
	<polygon fill="#FFFFFF" stroke="#5E5E5E" stroke-width="0.75" stroke-miterlimit="10" points="545.2,106 545.2,106 552.6,104.4 
		562.8,102.2 563.7,101.6 563.4,100.9 564.5,100.5 564.5,99.6 565.4,99.1 566.5,99.1 567.4,101.1 568.3,101.3 568.8,100.9 
		569,101.3 567.4,102.9 567.2,104.2 566.5,105.1 566.5,106 567,106.7 567.6,106 569,106.4 570.5,108 570.8,109.5 571.9,109.8 
		572.3,111.1 573.2,111.5 574.7,111.5 577,110.2 576.5,108.4 576.3,108.9 575.9,107.5 576.1,107.3 577.9,109.8 578.3,111.3 
		577.6,111.5 575.6,112.6 574.5,112.9 573.6,114.2 572.3,114.6 571.6,112.6 571,112.4 571,113.7 569.6,114.4 569.6,115.7 
		568.3,116.2 567.6,114.4 567,114.2 566.8,114 565.4,113.3 565,112 564.8,112.2 564.3,110.6 560.6,111.8 560.6,111.5 552.6,113.3 
		551.5,114.2 551.5,113.7 545.5,115.1 545,114.6 	"/>
	<polygon fill="#FFFFFF" stroke="#5E5E5E" stroke-width="0.75" stroke-miterlimit="10" points="544.6,132.3 544.6,132.3 
		544.8,129.9 544.8,128.6 540.6,127.3 536.6,125.9 535.9,125 534.6,125.3 533.7,125 532.4,123.7 532.8,123.5 532.2,121.7 
		531.5,120.8 530.2,120.8 529.5,119.7 528.8,119.5 520,121.3 516.4,122.2 497.1,125.9 489.1,127.3 488.7,123.9 491.3,121.5 
		491.8,120.6 493.6,119.5 494,117.7 495.6,116.2 494.7,114.2 493.8,114 493.6,113.1 493.1,112.9 493.1,112.2 492.7,110.6 
		496.2,108.9 497.6,108.4 502,107.5 504,107.5 506.4,108.4 507.5,107.8 510,107.1 511.3,106.9 513.5,105.6 514,104.7 515.5,102.9 
		517.1,102.4 517.1,100.9 516.4,99.1 515.7,98.9 516.2,98.2 517.1,97.8 516.2,96.5 515.7,97.1 515.1,96.3 514.4,95.8 514.6,94.5 
		515.7,93.8 515.7,93.4 517.7,91.8 518.4,90.7 518.6,89.6 520.4,87 522.2,84.5 523.5,83.4 524.2,82.5 525.3,81.9 526.6,81.6 
		531.3,80.7 537.9,79 538.4,80.1 538.1,81 538.8,81.6 538.6,82.3 538.8,84.1 539.9,85 539.9,86.5 540.4,87.6 539.9,88.9 540.1,90.7 
		541.7,93.8 541.3,95.8 542.4,95.6 543.2,96.7 545,105.1 545.2,106 545,114.6 545.5,115.1 547,124.4 547.9,125 546.1,127 547,128.1 
		546.4,129.2 546.1,130.4 546.4,130.8 546.8,129.7 548.6,128.8 548.8,128.4 551.2,128.4 551.9,127.3 552.6,127.3 555,126.6 
		556.6,125.7 558.8,123.1 559.4,124.4 560.3,124.1 561,125 558.8,126.8 555.7,129 553.5,130.8 552.1,131.5 551,131.7 549,133 
		547,133.2 545.7,134.1 544.6,133.5 	"/>
	<polygon fill="#FFFFFF" stroke="#5E5E5E" stroke-width="0.75" stroke-miterlimit="10" points="543.9,134.8 543.9,134.8 
		543.2,134.6 543,133.7 544.1,133.2 544.6,133.7 	"/>
	<polygon fill="#FFFFFF" stroke="#5E5E5E" stroke-width="0.75" stroke-miterlimit="10" points="567,114.2 567,114.2 567.6,114.4 
		568.3,116.2 567.2,116.6 566.3,116.6 566.5,115.3 	"/>
	<polygon fill="#FFFFFF" stroke="#5E5E5E" stroke-width="0.75" stroke-miterlimit="10" points="562.1,120.2 562.1,120.2 
		562.1,119.1 562.6,118.8 561.9,116 560.6,111.8 564.3,110.6 564.8,112.2 565,112 565.4,113.3 566.8,114 566.5,114.9 565.9,114 
		565.2,115.1 565,116.2 565.6,117.3 565.4,118.8 565,118.6 562.3,120.4 	"/>
	<polygon fill="#FFFFFF" stroke="#5E5E5E" stroke-width="0.75" stroke-miterlimit="10" points="122,31.4 122,31.4 121.3,31.2 
		120.7,31.6 121.1,32.5 120.9,33.4 121.6,33.6 122.2,34.7 122.2,35.8 121.6,36 121.3,34.9 120.5,34.3 120.7,32.7 120.2,32.5 
		119.8,31.6 121.8,29.6 	"/>
	<polygon fill="#FFFFFF" stroke="#5E5E5E" stroke-width="0.75" stroke-miterlimit="10" points="161.3,70.6 161.3,70.6 157.7,69.7 
		143.7,66.4 142.4,66.8 141.3,66.6 139.1,66.4 138.6,65.9 137.5,66.6 135.1,66.4 133.1,66.6 132.7,67 130,66.8 129.1,65.9 
		127.1,66.1 125.1,65.9 124,66.4 124,65.5 123.1,64.8 122.5,64.8 121.6,64.1 119.8,63.9 119.1,63.7 116.2,64.4 114.9,64.4 
		111.6,62.6 111.1,61.9 111.4,60.4 111.6,58.2 111.4,56.6 109.8,54.8 108.5,54.8 107.4,54.2 107.1,53.1 106.7,52.9 105.6,52.4 
		105.4,52 103.8,52.4 103.2,51.3 102.3,51.1 102.9,50.2 103.6,47.5 104,49.3 104.7,48.9 104.5,47.5 105.6,46.9 105.6,46.2 
		104.5,46.6 103.8,45.8 104.3,44.4 105.8,43.6 105.4,42.7 104.3,42.4 104.3,43.3 103.8,43.6 104.5,41.6 104.7,39.1 104.3,38 
		104.7,35.8 104.7,33.1 104.5,32.3 103.6,30.9 103.6,30 104,27.4 105.1,25.8 105.8,25.4 107.1,26.9 109.1,28.5 109.4,28.9 
		110.3,29.6 112,30 112.9,30.7 114,30.9 114.5,31.4 115.6,31.6 116.5,31.4 117.1,32.7 118.2,33.1 118.9,32.5 119.6,32.5 119.6,33.4 
		120,33.1 119.6,35.1 119.6,36 118.5,36.7 118,37.8 117.6,37.6 116,38.2 116,38.7 117.1,38.2 118,38 118.2,37.6 119.8,36.2 
		120.7,36.2 120.5,37.8 119.8,39.8 119.1,40.5 118.7,42.2 118,43.6 116.9,43.6 116,44.7 116.7,44.9 117.6,44.4 118.7,43.1 
		119.1,43.6 119.6,43.1 120.5,42.9 120.5,40.9 120.7,39.8 120.7,39.1 121.3,38.2 121.3,37.3 122,36.9 122.7,35.8 123.3,35.8 
		123.6,35.1 122.7,33.6 122.9,32.5 122.2,32.3 122,33.4 121.6,33.1 121.8,31.8 122.9,32 123.1,31.6 122.5,30.5 122.2,29.6 
		121.3,29.6 121.1,28.7 121.3,28.5 122.5,28.7 123.1,29.4 123.3,28.3 123.8,27.8 123.3,27.2 123.8,26.1 122.7,25.4 122,23.6 
		122.5,22.5 130.4,24.7 135.5,26.1 163.7,33.1 168.4,34.3 165.9,44.7 161.3,65 161,65.9 161.5,66.8 161.7,68.4 161,69.2 	"/>
	<polygon fill="#FFFFFF" stroke="#5E5E5E" stroke-width="0.75" stroke-miterlimit="10" points="120,26.9 120,26.9 119.6,26.7 
		119.6,25.6 120.5,25.4 121.6,26.5 	"/>
	<polygon fill="#FFFFFF" stroke="#5E5E5E" stroke-width="0.75" stroke-miterlimit="10" points="119.6,28.9 119.6,28.9 119.3,28 
		120,27.2 120.2,27.6 	"/>
	<polygon fill="#FFFFFF" stroke="#5E5E5E" stroke-width="0.75" stroke-miterlimit="10" points="118.9,28.5 118.9,28.5 117.8,27.4 
		117.8,25.8 119.1,27.4 	"/>
	<polygon fill="#FFFFFF" stroke="#5E5E5E" stroke-width="0.75" stroke-miterlimit="10" points="385.5,79.4 385.5,79.4 386.9,78.1 
		387.1,78.5 	"/>
	<polygon fill="#FFFFFF" stroke="#5E5E5E" stroke-width="0.75" stroke-miterlimit="10" points="419.9,94.3 419.9,94.3 419.9,93.6 
		420.8,93.6 420.1,94.9 	"/>
	<polygon fill="#FFFFFF" stroke="#5E5E5E" stroke-width="0.75" stroke-miterlimit="10" points="389.7,132.1 389.7,132.1 
		388.9,130.6 386.6,130.1 385.8,129.7 385.3,127.7 384.9,127.5 384.4,124.6 385.3,123.1 384.9,122.4 384,121.7 383.8,120.2 
		383.3,118.8 383.3,116.8 382.9,116 381.5,114 380.2,113.7 379.1,112.6 377.5,111.8 377.1,110.4 375.8,109.3 374.4,108.9 
		373.1,107.5 371.3,107.3 371.1,106.9 368.9,105.3 369.3,102.9 368.9,101.1 369.3,100.9 369.1,98.5 370,97.1 370.2,96.7 368.9,95.1 
		368,94.9 368,93.1 368.7,92.7 369.3,90.9 370,90.5 371.3,90.1 371.6,89.4 372.4,89.4 372.9,88.7 372.7,81.4 373.3,81.6 373.6,80.7 
		374.2,80.3 374.9,80.7 375.5,81.2 376.7,81 378.7,79.9 379.3,79.9 381.5,78.5 383.1,78.1 383.8,77.4 384.9,77.2 385.8,78.1 
		384.6,79.6 384.9,80.3 384.2,81.6 384.6,81.9 385.8,81 386,80.3 387.3,81.4 388.6,81.9 388.9,82.3 390.4,82.5 391.5,84.5 
		400.4,86.3 403.3,87.6 404.6,87.8 405.5,87.4 407.5,88.1 407.9,88.1 409.3,88.3 409.5,88.9 409,89.6 409.7,90.1 410.4,89.8 
		412.1,91.2 412.4,93.4 411.7,94.3 411.7,95.1 412.8,95.1 413.3,94.7 413.7,95.1 413,96.9 413.9,98 414.6,98.2 414.4,99.8 
		412.6,100 412.6,100.9 411.5,103.1 411,105.1 412.1,105.3 412.6,104.4 413.5,104 413.7,102.9 414.6,101.3 415.7,100.9 416.4,100.5 
		416.6,99.4 417.5,98 417.5,96.9 419.2,96.3 419.2,97.8 418.6,98.2 418.1,99.4 418.1,100.7 417.5,101.6 416.8,103.6 416.1,104.7 
		415.7,107.8 416.1,109.3 415,110.4 414.6,113.3 415,114.6 415,115.7 414.4,117.3 414.6,118.2 413.9,119.5 413.7,121.3 414.1,123.5 
		414.1,124.4 414.6,125 414.8,126.4 415.7,127 415.3,128.8 415.5,130.6 412.6,130.8 406.6,131.2 398.6,131.7 	"/>
	<polygon fill="#FFFFFF" stroke="#5E5E5E" stroke-width="0.75" stroke-miterlimit="10" points="533.7,170 533.7,170 533.3,170.2 
		533,169.1 533.7,169.1 	"/>
	<polygon fill="#FFFFFF" stroke="#5E5E5E" stroke-width="0.75" stroke-miterlimit="10" points="521.3,164 521.3,164 521.1,163.3 
		522,162.7 521.7,161.8 522.6,160.2 521.1,159.4 520.6,160.2 519.3,159.8 519.3,159.4 518.2,159.1 517.1,159.1 516.2,158.5 
		516.6,157.4 515.5,156.5 514,156.7 513.5,155.4 512.4,154.7 512,154 510.6,153.8 509.5,152.9 508.9,152.9 508.2,154 507.3,153.8 
		506.6,155.6 504.6,155.6 503.5,155.2 503.1,155.4 502.2,157.4 500.9,157.4 499.6,158.9 499.3,159.6 497.8,161.1 496.7,154.7 
		500.7,154 515.5,151.2 531.1,148.1 531.3,148.7 535.3,163.1 541.3,162 540.8,166.7 540.6,167.6 537,168.9 536.8,169.3 535.7,169.3 
		534.8,170.2 534.6,168.9 533.9,166.5 532.6,165.6 531.1,166.5 530.2,166 529.1,164.2 529.7,164 529.3,162.7 530.4,162 529.3,160.9 
		528.6,161.1 528.6,160 529.5,159.8 529.3,158.5 528.4,159.1 527.7,158.7 527.9,157.6 528.4,158 528.6,156.9 527.9,156 528.4,153.8 
		528.8,152.9 529.9,152.7 529.7,150.5 528.6,150.9 528.8,152.1 527.5,154 526.6,154.3 526.2,155.8 526.6,157.6 527.3,158 
		526.6,158.5 526.8,159.4 526.4,161.1 526.6,161.6 527.3,164 528.8,165.6 529.1,167.1 530.2,168.4 529.9,169.5 528.8,168.7 
		528.2,168.9 527.3,168 525.3,168.2 524,167.8 522.8,166 521.3,167.6 520.6,167.3 520.2,166.2 520.4,165.1 	"/>
	<polygon fill="#FFFFFF" stroke="#5E5E5E" stroke-width="0.75" stroke-miterlimit="10" points="281.5,200.6 281.5,200.6 272,199.7 
		258.9,198.8 242.7,197.2 234.3,196.3 234,196.1 213,193.5 215,179.1 215,177.7 215.6,172.2 216.5,167.1 219.8,144.1 238.7,146.3 
		246,147.2 258.4,148.5 266,149.2 284.6,150.5 283.7,162.9 281.9,191.9 	"/>
	<polygon fill="#FFFFFF" stroke="#5E5E5E" stroke-width="0.75" stroke-miterlimit="10" points="547,128.1 547,128.1 546.1,127 
		547.9,125 547,124.4 545.5,115.1 551.5,113.7 551.5,114.2 552.6,113.3 560.6,111.5 560.6,111.8 561.9,116 562.6,118.8 562.1,119.1 
		562.1,120.2 561,120.4 557.7,122.2 557,121.9 554.3,122.8 553.2,123.5 553,123.1 551.2,125 550.8,125 550.1,125.7 549.2,126.1 
		548.8,126.8 	"/>
	<polygon fill="#FFFFFF" stroke="#5E5E5E" stroke-width="0.75" stroke-miterlimit="10" points="342.9,157.6 342.9,157.6 
		342.7,156.7 341.8,155.8 342.3,155.2 342.3,154 342.5,153.8 342.1,151.6 341.8,150.3 341.6,149.8 341.8,148.5 341.4,147.8 
		341.4,146.5 340.7,146.5 340.1,145.6 339.8,143.6 340.3,142.5 339.4,141.2 339.6,140.3 338.7,139.9 338.5,138.5 337.6,137.9 
		337.8,137 337.2,135.7 337.4,133.9 336.7,133.9 336.1,132.1 335.2,131 335.2,130.4 336.1,128.8 336.3,126.8 337,125.9 336.5,124.6 
		335.8,124.6 335.6,123.7 336.1,123.7 336.1,122.6 335.4,121.7 335.6,121.5 336.7,121.3 369.6,120.8 382.4,120.2 383.8,120.2 
		384,121.7 384.9,122.4 385.3,123.1 384.4,124.6 384.9,127.5 385.3,127.7 385.8,129.7 386.6,130.1 388.9,130.6 389.7,132.1 
		389.5,132.6 391.3,133.7 391.7,134.3 392.2,135.7 394.4,136.8 394.6,138.3 394.4,140.8 393.1,141.6 393.1,143.4 392,144.3 
		390.9,144.5 390.2,145.2 388.4,145.4 386.6,146.1 386.2,148.3 387.8,149.8 387.8,152.1 386.6,153.6 386.4,155.4 385.8,155.8 
		384.4,156.3 383.8,156.9 384.2,157.4 384.2,158.9 383.8,159.1 382.9,158.7 382.9,158 382,157.6 380.9,156.3 378.7,156.5 
		366.5,157.1 354.5,157.6 	"/>
	<polygon fill="#FFFFFF" stroke="#5E5E5E" stroke-width="0.75" stroke-miterlimit="10" points="382.4,120.2 382.4,120.2 
		369.6,120.8 336.7,121.3 337,98.9 336.5,98.2 335,97.4 333.4,95.1 333.6,94.7 335.2,93.4 335.8,92.5 336.1,90.9 336.1,89.2 
		335.6,87.6 335.6,86.1 335.2,85.6 334.5,84.3 334.3,83 334.1,81.9 334.1,80.1 334.3,79.2 333.9,78.3 333.9,76.5 333.6,72.3 
		333.6,70.3 332.1,66.1 331.9,64.8 331.2,63.5 331.4,62.2 331.2,61 331.4,59.9 331.2,58.8 331.6,57.1 331,55.5 330.5,53.7 
		330.7,53.3 347.8,53.3 347.8,48.6 348.5,49.1 349.4,48.6 350.5,49.5 351.1,53.3 351.4,53.3 351.8,54.6 351.6,56 352.5,56.6 
		353.8,57.1 355.4,56.8 355.4,57.5 358.7,57.7 359.1,59 360.5,59 362,58.6 362,58.2 364,57.3 364.2,57.5 366,57.5 368,58.4 
		368.9,58.4 368.7,59.7 370,59.5 370.2,60.6 371.1,62.4 371.8,61.7 372,60.6 373.8,60.4 374.2,61.7 375.3,62.4 376.7,62.4 
		376.7,63.5 378,63.7 378,64.1 379.1,64.1 380.7,63.5 382.9,61.7 384,61.5 384.9,63.3 386.2,62.8 386.4,63 390,62.6 390.9,63 
		391.3,63.7 392.2,64.1 392.6,63.7 394.4,63.7 394.2,64.4 391.5,66.1 387.8,67.5 385.3,69 382.9,71 381.8,72.3 380.2,74.3 
		379.3,75.4 378.4,75.9 377.5,77 374.2,79.9 374.9,80.7 374.2,80.3 373.6,80.7 373.3,81.6 372.7,81.4 372.9,88.7 372.4,89.4 
		371.6,89.4 371.3,90.1 370,90.5 369.3,90.9 368.7,92.7 368,93.1 368,94.9 368.9,95.1 370.2,96.7 370,97.1 369.1,98.5 369.3,100.9 
		368.9,101.1 369.3,102.9 368.9,105.3 371.1,106.9 371.3,107.3 373.1,107.5 374.4,108.9 375.8,109.3 377.1,110.4 377.5,111.8 
		379.1,112.6 380.2,113.7 381.5,114 382.9,116 383.3,116.8 383.3,118.8 383.8,120.2 	"/>
	<polygon fill="#FFFFFF" stroke="#5E5E5E" stroke-width="0.75" stroke-miterlimit="10" points="552.6,104.4 552.6,104.4 
		551.5,103.8 551.2,102 551.7,101.1 551.2,99.6 550.6,94 551,93.8 550.8,92.5 551.7,90.9 551.5,90.3 551.9,89.4 551.7,88.5 
		552.1,87.4 551.7,86.5 551.2,85 551.2,84.3 553.2,83.4 553,83.2 554.1,82.1 554.8,80.1 553.5,78.3 553.7,77.7 554.1,76.1 
		553.5,75.2 553.7,75 553.5,74.3 553.9,72.1 554.6,71 555.2,71.4 556.1,71.2 556.3,70.6 558.8,78.1 561.9,88.3 562.8,90.9 
		563.2,91.2 563.2,92.9 563.7,93.8 565.2,94.7 565.6,96 566.8,96.5 566.5,99.1 565.4,99.1 564.5,99.6 564.5,100.5 563.4,100.9 
		563.7,101.6 562.8,102.2 	"/>
	<polygon fill="#FFFFFF" stroke="#5E5E5E" stroke-width="0.75" stroke-miterlimit="10" points="551.7,86.5 551.7,86.5 552.1,87.4 
		551.7,88.5 551.9,89.4 551.5,90.3 551.7,90.9 550.8,92.5 551,93.8 550.6,94 551.2,99.6 551.7,101.1 551.2,102 551.5,103.8 
		552.6,104.4 545.2,106 545,105.1 543.2,96.7 542.4,95.6 541.3,95.8 541.7,93.8 540.1,90.7 539.9,88.9 540.4,87.6 539.9,86.5 
		539.9,85 538.8,84.1 538.6,82.3 538.8,81.6 538.1,81 538.4,80.1 537.9,79 542.1,77.9 546.8,76.8 553.7,75 553.5,75.2 554.1,76.1 
		553.7,77.7 553.5,78.3 554.8,80.1 554.1,82.1 553,83.2 553.2,83.4 551.2,84.3 551.2,85 	"/>
	<polygon fill="#FFFFFF" stroke="#5E5E5E" stroke-width="0.75" stroke-miterlimit="10" points="65.4,269.6 65.4,269.6 68.5,271.4 
		70.5,271.6 72.5,272.5 75,274.7 75,276.1 76.1,276.1 76.3,277.4 78.5,278.7 76.5,281.2 73.8,282.3 72.7,282.3 69.6,284.7 69,286 
		68.1,286.9 65.6,285.4 65.2,284.3 65.4,281.4 64.3,278.1 63.2,276.3 64.8,275 65.9,272.7 64.8,270.5 	"/>
	<polygon fill="#FFFFFF" stroke="#5E5E5E" stroke-width="0.75" stroke-miterlimit="10" points="56.1,260.1 56.1,260.1 57.7,261.9 
		59.4,261.2 60.5,261.2 62.1,262.6 63.4,263 63.6,264.1 63,264.8 59,265.9 58.1,265.4 57.9,263.7 55.9,263 55,262.1 55.2,260.6 	"/>
	<polygon fill="#FFFFFF" stroke="#5E5E5E" stroke-width="0.75" stroke-miterlimit="10" points="39,251.9 39,251.9 40.8,253.9 
		41,255 42.1,255.5 42.8,256.6 41.5,257.7 39.5,256.8 37.7,257.2 36.1,254.8 36.1,254.1 37.5,253.5 	"/>
	<polygon fill="#FFFFFF" stroke="#5E5E5E" stroke-width="0.75" stroke-miterlimit="10" points="21.9,245.5 21.9,245.5 23.3,246.8 
		22.8,249 21.5,250.2 19.5,249.9 17.7,248.8 17.3,247.7 17.9,246.6 19.7,245.7 	"/>
	<polygon fill="#FFFFFF" stroke="#5E5E5E" stroke-width="0.75" stroke-miterlimit="10" points="51,258.3 51,258.3 53.9,258.3 
		52.8,260.1 50.1,259.2 47.7,259.5 48.1,257.9 	"/>
	<polygon fill="#FFFFFF" stroke="#5E5E5E" stroke-width="0.75" stroke-miterlimit="10" points="51.4,261.5 51.4,261.5 52.6,261.7 
		53.7,263 51.7,264.1 50.6,262.1 	"/>
	<polygon fill="#9AB8CC" stroke="#5E5E5E" stroke-width="0.75" stroke-miterlimit="10" points="577.9,77.7 577.9,77.7 577.9,76.3 
		578.3,76.3 	"/>
	<polygon fill="#9AB8CC" stroke="#5E5E5E" stroke-width="0.75" stroke-miterlimit="10" points="580.1,77 580.1,77 581.2,77.9 
		580.7,78.8 580.3,78.3 	"/>
	<polygon fill="#9AB8CC" stroke="#5E5E5E" stroke-width="0.75" stroke-miterlimit="10" points="582.3,77.4 582.3,77.4 583.2,77.7 
		582.7,78.3 	"/>
	<polygon fill="#9AB8CC" stroke="#5E5E5E" stroke-width="0.75" stroke-miterlimit="10" points="580.1,79.9 580.1,79.9 579.2,80.5 
		578.5,79.2 579.2,78.5 	"/>
	<polygon fill="#9AB8CC" stroke="#5E5E5E" stroke-width="0.75" stroke-miterlimit="10" points="566.8,96.5 566.8,96.5 565.6,96 
		565.2,94.7 563.7,93.8 563.2,92.9 563.2,91.2 562.8,90.9 561.9,88.3 558.8,78.1 556.3,70.6 557.2,69.9 558.6,70.8 558.6,69.9 
		558.1,68.8 558.6,68.4 559.9,68.6 558.8,67 559,65.9 559.7,64.8 560.8,63.7 560.3,63 561.2,61.7 561.2,60.8 560.6,60.8 560.3,60.2 
		560.6,58.4 560.1,58.2 560.3,56.4 561.2,54.8 560.8,51.5 564.5,40.5 566.1,40.5 566.8,42.7 568.1,43.1 569.4,42 570.3,41.8 
		570.3,41.1 572.1,40.7 572.1,39.6 573.2,39.6 575.9,40.7 576.7,41.6 577.6,41.8 581.8,54.8 582.5,58.2 583.4,57.9 584.1,58.6 
		586.1,58.4 586.3,59.3 585.6,59.7 586.7,60.6 586.5,62.2 587.6,63.3 588.3,63.5 588.5,62.6 589.8,62.6 590.7,63.5 591.6,64.8 
		592.3,65 592.7,66.4 592.1,67 591.4,68.8 590.1,69.5 589.8,69.9 588.7,69.7 588.5,70.1 588.7,71.2 587.6,71.4 586.3,71.4 
		586.3,73.2 585.4,73.7 585.4,74.8 584.5,74.1 584.1,73.2 583,73.4 583.4,74.3 584.3,75 583.4,76.1 583.4,76.8 582.5,76.5 
		582.1,75.9 582.5,74.8 582.1,74.3 581,75.7 580.7,76.8 579.6,76.5 578.7,77 578.3,75.2 577,75.9 577.6,76.8 577.4,77.7 577.2,79.6 
		577.6,80.7 576.5,82.7 575.6,82.3 574.7,82.5 574.7,83.9 574.3,84.3 573,85 572.8,85.8 572.1,86.7 571.6,85.8 570.8,86.7 
		570.5,86.1 569.9,85.8 569,86.7 568.8,88.1 569.6,89.2 568.3,90.1 568.5,91.2 568.3,92.3 567.4,92.7 567.4,94.3 567.2,96.3 	"/>
	<polygon fill="#9AB8CC" stroke="#5E5E5E" stroke-width="0.75" stroke-miterlimit="10" points="533.7,147.8 533.7,147.8 
		534.2,146.3 534.8,145.6 536.4,144.8 536.4,143.9 537.9,142.1 539.7,140.5 537.3,138.8 536.8,138.1 535.9,138.1 535.5,136.6 
		534.2,136.6 533.7,135 534.6,132.6 533.7,131.2 534.4,130.4 534.6,129.5 535.3,128.6 535.5,127.3 536.6,125.9 540.6,127.3 
		544.8,128.6 544.8,129.9 544.6,132.3 544.1,133 543,133.7 543,135.9 544.1,135.7 545.5,135.9 546.1,137.2 546.1,139.4 546.6,144.1 
		545.5,148.1 544.8,149.6 543.2,151.4 542.1,154.9 541.7,155.6 540.8,155.8 540.8,153.2 539.3,152.7 538.4,153.4 537.9,152.7 
		535.9,151.8 534.8,150.9 534.2,150.7 533.9,149.2 533.5,149 533.3,148.7 	"/>
	<polygon fill="#9AB8CC" stroke="#5E5E5E" stroke-width="0.75" stroke-miterlimit="10" points="534.2,146.3 534.2,146.3 
		533.5,146.1 532.4,146.3 531.7,147 531.1,148.1 515.5,151.2 500.7,154 496.7,154.7 486.9,156.5 485.1,145.2 482.5,128.6 
		485.1,126.8 485.8,125.7 486.2,125.9 488.7,123.9 489.1,127.3 497.1,125.9 516.4,122.2 520,121.3 528.8,119.5 529.5,119.7 
		530.2,120.8 531.5,120.8 532.2,121.7 532.8,123.5 532.4,123.7 533.7,125 534.6,125.3 535.9,125 536.6,125.9 535.5,127.3 
		535.3,128.6 534.6,129.5 534.4,130.4 533.7,131.2 534.6,132.6 533.7,135 534.2,136.6 535.5,136.6 535.9,138.1 536.8,138.1 
		537.3,138.8 539.7,140.5 537.9,142.1 536.4,143.9 536.4,144.8 534.8,145.6 	"/>
	<polygon fill="#9AB8CC" stroke="#5E5E5E" stroke-width="0.75" stroke-miterlimit="10" points="164.4,185.5 164.4,185.5 
		165.7,178.2 172.4,143.9 175.9,125.7 176.1,124.4 177.5,124.6 188.1,126.4 194.5,127.5 203.2,129 201.4,141.4 208.7,142.5 
		219.8,144.1 216.5,167.1 215.6,172.2 215,177.7 215,179.1 213,193.5 199,191.5 198.8,191.5 189.9,190.1 	"/>
	<polygon fill="#9AB8CC" stroke="#5E5E5E" stroke-width="0.75" stroke-miterlimit="10" points="100.3,208.7 100.3,208.7 
		100.5,210.1 98.9,209.4 99.2,208.7 	"/>
	<polygon fill="#9AB8CC" stroke="#5E5E5E" stroke-width="0.75" stroke-miterlimit="10" points="95.4,208.3 95.4,208.3 97.6,208.3 
		98.1,209.6 96.3,209.9 	"/>
	<polygon fill="#9AB8CC" stroke="#5E5E5E" stroke-width="0.75" stroke-miterlimit="10" points="111.1,219.2 111.1,219.2 112.2,220 
		112.5,221.6 111.1,220.9 	"/>
	<polygon fill="#9AB8CC" stroke="#5E5E5E" stroke-width="0.75" stroke-miterlimit="10" points="109.4,225.8 109.4,225.8 
		109.8,225.6 110.7,226.9 110,227.3 	"/>
	<polygon fill="#9AB8CC" stroke="#5E5E5E" stroke-width="0.75" stroke-miterlimit="10" points="93.4,207.2 93.4,207.2 94.5,207 
		94.3,207.9 	"/>
	<polygon fill="#9AB8CC" stroke="#5E5E5E" stroke-width="0.75" stroke-miterlimit="10" points="85.6,101.8 85.6,101.8 93.2,104 
		101.8,106.4 113.6,110 122.9,112.4 116.5,137 114,145.9 113.4,148.5 121.1,159.8 128.9,171.5 135.5,181.5 139.3,187.3 145.7,196.6 
		153.7,209 153.5,210.5 154.2,211.8 154.8,212.7 155.3,215.2 155.1,216 155.5,216.3 156.8,217.8 157.1,218.9 155.5,219.6 154,220.3 
		153.1,221.4 152.2,222.3 152,225.1 151.7,225.3 151.5,226.9 150,228 149.1,228.2 148.6,229.3 149.1,230 148.4,232 148.6,232.7 
		150.2,233.1 150.4,234.6 150.2,235.5 149.5,236.4 147.3,236.6 133.5,234.9 122.5,233.5 122.7,232.4 122.2,231.6 121.6,231.8 
		122,229.1 122.2,227.3 122,226 120.9,222.9 119.8,221.4 119.1,220.9 118.7,219.8 117.3,218.7 116,216.9 115.1,216.3 115.1,216.7 
		114.2,216.7 112.9,216 113.4,214.7 112.7,212.3 110.5,211.6 109.8,211.8 106.7,209.9 106,209.2 105.8,207.6 104.3,205.9 103.6,205 
		102,205 100.3,204.3 99.2,203.4 98.1,202.8 94.7,202.3 94.5,201.2 93.4,200.3 94.1,199 94.1,198.1 94.5,197.2 94.1,196.3 
		94.9,194.6 95.2,193.7 94.7,193 94.1,193 92.9,191.5 93.8,189.7 93.6,189 92.7,188.8 91.6,186.2 90.7,185.5 90.5,183.9 89.6,182.4 
		89.6,180.8 89,180.4 88.3,178 87.4,177.3 86.7,176.2 87,174 87.4,173.1 87,172.6 87.6,172 88.1,172.6 88.7,172.2 89.6,170.4 
		89.4,168.9 88.7,168 87.2,167.8 86.3,166.9 85,164.2 85.6,162.2 85.6,160.7 85.2,160 85.9,158 86.1,156.7 87.2,156.7 87.4,157.8 
		87,158 86.7,159.4 87.6,160 88.3,161.1 89,161.1 89,159.1 88.5,158 87.8,157.4 88.3,155.8 87.6,155.2 88.3,154.5 89.4,154.3 
		89.2,153.4 88.3,152.7 87.4,152.9 87,154 87.4,154.5 86.7,155.2 86.3,156.3 85.2,154.9 84.7,154.9 83.9,153.4 83,152.7 83.4,149.8 
		82.7,149.2 82.7,147.2 81.2,145.2 80.7,143.4 79.2,141 78.8,139.9 79.6,138.3 79.4,135.4 79.6,134.3 80.7,132.1 81,130.6 81,128.6 
		79.6,124.6 79,124.1 77.9,122.2 78.3,121.5 78.1,119.9 79.6,118 82.1,115.3 83,113.7 82.7,113.3 83,112.2 83.6,111.3 85,108.9 
		85.2,107.5 85.2,105.1 84.5,104.2 85,103.6 	"/>
	<polygon fill="#9AB8CC" stroke="#5E5E5E" stroke-width="0.75" stroke-miterlimit="10" points="541.3,162 541.3,162 535.3,163.1 
		531.3,148.7 531.1,148.1 531.7,147 532.4,146.3 533.5,146.1 534.2,146.3 533.7,147.8 533,149.2 533.5,149.6 533.5,150.9 
		535.3,152.3 536.1,153.6 536.4,155.4 537.3,156 537.5,156.9 539,158 539.9,157.8 	"/>
	<polygon fill="#9AB8CC" stroke="#5E5E5E" stroke-width="0.75" stroke-miterlimit="10" points="521.7,161.8 521.7,161.8 
		521.7,161.1 520.6,160.2 521.1,159.4 522.6,160.2 	"/>
	<polygon fill="#9AB8CC" stroke="#5E5E5E" stroke-width="0.75" stroke-miterlimit="10" points="342.9,157.6 342.9,157.6 
		343.2,158.3 343.6,158.3 343.6,158.9 344.5,160.9 345.8,162 345.8,162.5 346.5,163.3 346.3,164.2 347.4,164.9 320.1,164.7 
		304.8,164 283.7,162.9 284.6,150.5 266,149.2 268,124.4 287.9,125.9 289.3,125.9 300.4,126.6 318.3,127.3 318.5,127.7 321.6,129.5 
		322.3,130.1 323.2,130.1 324.3,129 325.4,129.2 326.3,129 327.9,129.2 329,129 329.9,129.2 330.5,130.1 331.9,130.4 333.4,131.2 
		333.6,131.5 334.5,131.9 334.3,132.1 335.4,133.7 336.7,133.9 337.4,133.9 337.2,135.7 337.8,137 337.6,137.9 338.5,138.5 
		338.7,139.9 339.6,140.3 339.4,141.2 340.3,142.5 339.8,143.6 340.1,145.6 340.7,146.5 341.4,146.5 341.4,147.8 341.8,148.5 
		341.6,149.8 341.8,150.3 342.1,151.6 342.5,153.8 342.3,154 342.3,155.2 341.8,155.8 342.7,156.7 	"/>
	<polygon fill="#9AB8CC" stroke="#5E5E5E" stroke-width="0.75" stroke-miterlimit="10" points="336.1,90.9 336.1,90.9 319.9,90.7 
		302.4,90.1 271.3,88.1 272.6,70.8 273.3,64.4 274.4,50.4 289.5,51.7 330.7,53.3 330.5,53.7 331,55.5 331.6,57.1 331.2,58.8 
		331.4,59.9 331.2,61 331.4,62.2 331.2,63.5 331.9,64.8 332.1,66.1 333.6,70.3 333.6,72.3 333.9,76.5 333.9,78.3 334.3,79.2 
		334.1,80.1 334.1,81.9 334.3,83 334.5,84.3 335.2,85.6 335.6,86.1 335.6,87.6 336.1,89.2 	"/>
	<polygon fill="#9AB8CC" stroke="#5E5E5E" stroke-width="0.75" stroke-miterlimit="10" points="154,90.3 154,90.3 154.4,90.9 
		154.8,90.9 155.3,91.6 155.9,91.6 156.4,92.7 155.5,93.4 155.7,94.3 154.8,96 154.4,96.5 149.3,118.6 136.2,115.7 134.4,115.3 
		124.7,112.9 122.9,112.4 113.6,110 101.8,106.4 93.2,104 85.6,101.8 85,100.2 85,97.4 85.4,96 86.3,94.5 86.3,93.4 85.6,92.3 
		85.9,90.9 87.2,89.2 88.7,86.3 91.2,83.2 92.5,80.3 94.1,77 94.7,75 95.6,73.4 96.7,70.6 96.9,69.2 98.9,65 99.8,62.6 101.2,59 
		101.2,57.7 101.6,56.8 101.8,55.5 102.3,55.3 102.7,54.2 102.7,52.9 103.8,53.3 104,53.1 106.3,53.1 106.7,52.9 107.1,53.1 
		107.4,54.2 108.5,54.8 109.8,54.8 111.4,56.6 111.6,58.2 111.4,60.4 111.1,61.9 111.6,62.6 114.9,64.4 116.2,64.4 119.1,63.7 
		119.8,63.9 121.6,64.1 122.5,64.8 123.1,64.8 124,65.5 124,66.4 125.1,65.9 127.1,66.1 129.1,65.9 130,66.8 132.7,67 133.1,66.6 
		135.1,66.4 137.5,66.6 138.6,65.9 139.1,66.4 141.3,66.6 142.4,66.8 143.7,66.4 157.7,69.7 161.3,70.6 161.9,72.8 163.7,74.1 
		163.9,76.1 163,77 161.5,79 160.4,81.2 159.3,82.3 159,83.4 157.7,85.2 156.8,85.4 155.3,87.6 154.4,88.3 154.2,89.2 154.4,90.1 	
		"/>
	<polygon fill="#9AB8CC" stroke="#5E5E5E" stroke-width="0.75" stroke-miterlimit="10" points="336.7,133.9 336.7,133.9 
		335.4,133.7 334.3,132.1 334.5,131.9 333.6,131.5 333.4,131.2 331.9,130.4 330.5,130.1 329.9,129.2 329,129 327.9,129.2 326.3,129 
		325.4,129.2 324.3,129 323.2,130.1 322.3,130.1 321.6,129.5 318.5,127.7 318.3,127.3 300.4,126.6 289.3,125.9 287.9,125.9 
		268,124.4 270.2,99.6 271.3,88.1 302.4,90.1 319.9,90.7 336.1,90.9 335.8,92.5 335.2,93.4 333.6,94.7 333.4,95.1 335,97.4 
		336.5,98.2 337,98.9 336.7,121.3 335.6,121.5 335.4,121.7 336.1,122.6 336.1,123.7 335.6,123.7 335.8,124.6 336.5,124.6 337,125.9 
		336.3,126.8 336.1,128.8 335.2,130.4 335.2,131 336.1,132.1 	"/>
	<polygon fill="#9AB8CC" stroke="#5E5E5E" stroke-width="0.75" stroke-miterlimit="10" points="536.8,169.3 536.8,169.3 537,168.9 
		540.6,167.6 539.7,170 539,170 538.8,170.9 538.4,173.5 538.6,174 537.7,177.1 537.3,177.7 537.5,178.9 536.8,180 536.4,180.2 
		535.5,179.3 535,177.7 535.5,174 535.9,172 536.8,170.7 536.4,169.8 	"/>
	<polygon fill="#9AB8CC" stroke="#5E5E5E" stroke-width="0.75" stroke-miterlimit="10" points="472.3,190.6 472.3,190.6 
		474.3,189.5 477.4,185.5 477.1,186.4 477.8,186.6 478,187.5 478.9,188.4 479.8,188.4 480.7,189.3 482,189 483.1,187.9 483.6,187 
		485.1,188.2 486.2,187.5 488.2,186.6 488.7,186.2 491.6,183.9 492,184.6 493.6,183.3 493.1,182.6 493.6,181.5 493.3,181.1 
		494,178.6 495.3,176.9 495.8,175.3 495.6,175.1 496.7,172.6 497.6,171.1 497.3,170.4 497.6,168.9 498.7,169.3 499.3,170.2 
		501.1,170.7 501.8,169.3 502.2,167.3 503.1,164.7 504.4,165.6 505.1,163.8 505.5,163.6 508,159.8 507.5,158.7 508.2,157.4 
		507.8,156 513.5,159.1 514,156.7 515.5,156.5 516.6,157.4 516.2,158.5 517.1,159.1 518.2,159.1 519.3,159.4 519.3,159.8 
		520.6,160.2 521.7,161.1 521.7,161.8 522,162.7 521.1,163.3 521.3,164 520.2,164.7 520,166.7 520.6,167.8 521.1,167.8 523.1,166.9 
		523.1,167.8 524,168.7 525.1,169.1 527.3,168.9 528.6,170.2 531.5,171.3 531.1,172.4 531.5,174 531.1,175.1 529.9,174.4 
		529.5,174.9 528.6,173.5 528.4,173.8 529.1,174.9 530.6,175.5 531.7,175.5 532.8,177.5 532.6,178.4 531.1,177.7 531.1,178.2 
		531.7,179.1 531.9,180.6 532.4,180.4 533.3,181.3 533.3,182.4 532.4,183.1 531.5,182.4 529.9,181.5 529.3,180.4 528.4,180.8 
		529.5,181.7 529.5,182.4 530.4,182.6 531.5,183.3 531.7,183.9 533.3,183.3 533,182.8 535.5,183.1 536.4,182.6 537.3,184.6 
		538.6,186.8 528.4,189 520.4,190.6 513.1,192.1 503.3,193.9 495.6,195.2 491.6,195.7 490.2,195.9 482,196.8 479.6,196.8 479.6,197 
		466.5,199 462.5,199.4 463.6,198.3 464.7,198.3 466.9,197 467.4,197 467.8,195.5 468.5,195.5 469.6,194.8 469.6,193.7 470.9,192.6 
		470.9,191.7 	"/>
	<polygon fill="#367199" stroke="#5E5E5E" stroke-width="0.75" stroke-miterlimit="10" points="402.2,61.7 402.2,61.7 403.3,61 
		403.9,61 402.4,63 400.4,63.9 399.3,65.3 398.2,65.5 397.5,65 398.2,64.4 	"/>
	<polygon fill="#367199" stroke="#5E5E5E" stroke-width="0.75" stroke-miterlimit="10" points="431.2,88.3 431.2,88.3 431.9,88.3 
		432.1,90.1 431.7,90.5 431,90.3 	"/>
	<polygon fill="#367199" stroke="#5E5E5E" stroke-width="0.75" stroke-miterlimit="10" points="414.6,98.2 414.6,98.2 413.9,98 
		413,96.9 413.7,95.1 413.3,94.7 412.8,95.1 411.7,95.1 411.7,94.3 412.4,93.4 412.1,91.2 410.4,89.8 409.7,90.1 409,89.6 
		409.5,88.9 409.3,88.3 407.9,88.1 407.5,88.1 405.5,87.4 404.6,87.8 403.3,87.6 400.4,86.3 391.5,84.5 390.4,82.5 388.9,82.3 
		388.6,81.9 390.9,80.7 392,80.3 393.3,78.8 394.9,78.1 395.3,78.3 396.8,77.9 398.4,77 399.5,75.9 401.1,75.4 401.3,74.3 
		403.3,72.8 403.9,72.3 405.1,70.8 407,69.5 408.6,69.2 410.2,69 410.2,70.1 409,70.3 409,70.8 408.2,71.4 407,72.6 405.7,75 
		405.3,75.7 405.1,77.4 405.5,77.9 407,76.1 407.5,76.3 408.4,76.1 409.9,76.1 411.3,76.5 412.4,77 412.8,78.1 414.1,79.4 
		414.6,79.6 414.8,80.3 415.9,80.7 417,80.5 417.9,79.9 419.2,81 419.9,80.5 420.8,81 420.6,79.6 421,79.4 421,80.3 421.7,80.5 
		422.6,79.4 423.5,79 425.2,77.7 425.5,77.7 427.5,77.2 429.9,77 430.8,77 432.6,75.7 434.1,75.4 434.6,76.1 434.6,78.3 435,78.8 
		435.7,78.5 437,79 438.3,78.3 439,79.2 439.9,78.8 440.1,77.9 441.4,77.9 442.5,77.4 442.5,78.8 443,79.9 443.2,81.6 443.6,81.9 
		443.6,82.7 445.4,83.6 445.2,84.1 443.4,84.1 441.7,84.5 441.4,85 438.8,83.6 438.3,85 438.5,86.3 437.4,86.1 435.9,84.7 
		434.1,84.3 432.8,83.9 431.2,84.1 430.1,85.8 429,85.6 427.9,86.5 426.8,86.3 425.7,86.3 424.6,87.2 424.4,88.5 423,89.2 
		422.6,89.8 422.1,90.9 421.5,90.3 421.9,89.8 422.1,88.9 422.6,88.9 422.8,88.1 422.4,87.4 421.9,88.3 420.6,88.1 420.8,88.7 
		420.4,89.8 419.2,90.3 419,88.9 418.4,88.9 418.4,90.1 417.5,90.9 415.5,95.8 414.6,97.4 	"/>
	<polygon fill="#367199" stroke="#5E5E5E" stroke-width="0.75" stroke-miterlimit="10" points="428.1,96 428.1,96 428.6,96.3 
		428.6,97.1 427.9,96.7 	"/>
	<polygon fill="#367199" stroke="#5E5E5E" stroke-width="0.75" stroke-miterlimit="10" points="456.1,135.7 456.1,135.7 
		443.9,137.7 443.6,136.8 425.2,138.8 427,137 427.9,134.1 428.8,132.3 429.7,129.2 429.7,126.4 429.2,123.1 428.8,121.9 
		427.2,119.1 425.5,115.5 425.7,114.9 426.1,113.1 425.7,111.1 425.2,110 425.9,109.3 427,106.2 427.2,103.6 426.8,102.7 427,101.8 
		428.1,101.3 428.1,99.4 428.8,99.1 429.2,98.2 430.3,98.5 430.6,97.1 431.7,96 432.1,98.5 431.9,99.8 433,100.7 433.9,98.2 
		433.9,96 433.7,94 435,92.9 436.6,92.5 436.3,91.8 435.4,90.1 435.7,89.4 436.8,88.3 436.8,87.6 437.9,87.6 438.1,87.2 441,88.5 
		442.1,88.1 443.2,88.3 443.9,89.2 444.3,89.8 446.1,89.8 447,90.7 447.9,90.5 449,91.2 449.9,90.9 451,92 450.7,92.3 451.6,93.6 
		452.3,94.9 451.2,94.5 450.7,94.9 451,95.8 452.1,96.7 452.7,98.7 452.7,100 453,103.3 452.3,104.2 451.4,104.4 451.2,104.9 
		451.2,107.1 450.5,107.3 450.5,108 449.2,108.2 448.5,109.3 448.3,111.3 449,112.2 451.2,112.9 452.3,111.3 453,110.6 452.5,110.2 
		453.6,109.1 454.1,107.8 455.9,106.9 457,106.2 458.7,106.9 459.8,108.4 460.7,111.5 461.4,113.5 462.1,116 462.5,117.5 
		463.4,119.1 463.2,119.7 463.4,121.7 463.2,123.7 462.5,124.6 461.8,124.4 461.4,122.8 460.5,123.5 460.7,124.4 460.1,125.3 
		460.3,126.1 459.8,127.3 458.7,127.9 458.3,129 458.5,130.8 458.3,131.7 457.2,132.8 456.1,135 	"/>
	<polygon fill="#367199" stroke="#5E5E5E" stroke-width="0.75" stroke-miterlimit="10" points="448.3,84.3 448.3,84.3 447.4,84.1 
		446.5,84.3 445.4,83.9 445.6,83.2 446.3,83.6 447,83 447.4,82.1 447.9,82.1 448.5,83 449,83.4 	"/>
	<polygon fill="#367199" stroke="#5E5E5E" stroke-width="0.75" stroke-miterlimit="10" points="441.2,87.6 441.2,87.6 440.5,87.4 
		439.9,86.7 440.3,86.5 	"/>
	<polygon fill="#367199" stroke="#5E5E5E" stroke-width="0.75" stroke-miterlimit="10" points="270.2,99.6 270.2,99.6 253.8,98 
		253.8,98.2 243.6,96.9 241.4,96.7 226.3,94.7 226,94.7 212.1,92.7 209.2,92 208.1,98.7 207.4,98.2 206.7,97.1 207,96.5 206.3,95.1 
		205.6,94.7 204.7,95.1 204.7,95.6 203.4,96.9 202.5,96.7 201.4,97.1 201.2,96.3 199,96.5 197.4,95.6 196.8,96 196.3,96.9 
		195.7,96.5 193,95.8 191.9,96.9 191,96 191,94.9 190.5,91.8 189.7,91.2 188.8,91.4 187.9,90.3 187.9,89.2 188.3,89.2 188.6,87.8 
		187.7,86.7 187.4,86.1 186.6,84.1 186.8,83.4 186.6,82.5 186.8,81.6 186.3,81.6 186.8,80.7 185.9,79.4 185,79.2 185,79.9 
		183.7,80.7 182.8,80.7 181.9,81.6 181,80.1 180.4,79.9 180.4,79 181,78.8 180.6,77.4 181.5,76.5 182.1,76.8 182.3,75.4 181.9,74.1 
		182.3,73.7 181.9,72.6 182.6,72.8 183.2,70.1 183.9,69.5 184.8,67.2 184.6,66.8 183.5,67 182.3,66.8 182.3,65.9 180.4,64.4 
		179.9,63.5 180.4,62.8 179.5,62.2 179.2,61 178.8,59.9 177.9,59 177.9,58.2 176.4,57.3 176.1,56.6 175,55.5 175.5,55.1 175,53.7 
		175.7,53.5 175.7,52.2 175,51.3 173.7,48.2 176.4,36 192.3,39.1 209.2,42.2 213.2,42.9 229.6,45.3 267.5,50 274.4,50.4 273.3,64.4 
		272.6,70.8 271.3,88.1 	"/>
	<polygon fill="#367199" stroke="#5E5E5E" stroke-width="0.75" stroke-miterlimit="10" points="482,196.8 482,196.8 490.2,195.9 
		491.6,195.7 495.6,195.2 503.3,193.9 513.1,192.1 520.4,190.6 528.4,189 538.6,186.8 539.5,189 541.3,191.9 541.9,193 541.5,193.2 
		540.8,191.5 539.5,189.9 539,188.6 538.4,187.9 537.3,188.2 538.6,189.3 540.4,192.1 539.7,192.1 539,191 538.1,191.7 537.7,192.4 
		536.4,193.2 535.3,193 534.2,194.6 533,195 532.2,194.8 532.4,196.1 533.7,195.7 534.8,194.8 535.5,195.2 537,194.3 538.1,194.1 
		539.3,195.2 540.4,193.9 541,194.1 541.9,195.7 542.4,197 542.1,198.6 540.8,199 540.1,200.3 540.1,201.2 539,202.3 535.5,202.5 
		534.2,200.8 533.7,201.2 534.8,202.5 536.1,203.9 535.5,206.1 533.5,208.3 533.9,208.7 535,207.6 536.4,207 536.4,206.1 
		537.5,207.2 539,206.5 539.3,207.4 540.4,205.2 540.8,205.4 538.1,209.6 537.3,211.2 536.8,211.6 535.5,211.2 534.6,211.4 
		531.9,212.3 530.4,213.4 527.1,216.7 526,218.5 525.3,220 524.6,223.4 524.6,224.2 524,223.8 522.4,223.6 520.4,224.2 518.8,225.1 
		505.3,215.6 494,217.2 494,215.8 492.2,213.8 491.3,214.9 490.9,213.6 478.7,214.7 477.8,215.2 477.4,214.7 475.4,216 473.8,217.2 
		473.8,216.9 470.7,218.5 465.6,219.4 458.5,220 458.5,217.2 459.2,216.5 460.3,216.7 461,216 461,214.5 462.1,213.2 463.2,212.3 
		465.8,212.1 468.1,209.6 469.6,208.5 470.5,208.7 471.2,207.4 471.2,206.5 471.8,206.7 472.3,205.6 473.6,204.5 474,205.9 
		474.5,205.9 475.4,205 475.8,204.1 477.4,203 478.5,203.4 479.4,203.2 480.3,200.6 481.4,199.9 482,199.9 481.8,199 482,198.3 	"/>
	<polygon fill="#367199" stroke="#5E5E5E" stroke-width="0.75" stroke-miterlimit="10" points="542.1,194.1 542.1,194.1 
		542.8,194.8 542.6,195.2 	"/>
	<polygon fill="#367199" stroke="#5E5E5E" stroke-width="0.75" stroke-miterlimit="10" points="469.8,175.5 469.8,175.5 
		469.4,174.9 468.3,174 467.2,173.8 466.3,171.8 465.2,172.2 464.3,173.5 462.7,174.2 462.1,173.5 460.5,173.1 459.6,173.5 
		459.2,174.2 458.1,174 457.2,172.9 455.9,172.6 455.2,173.1 453.6,172.6 453.4,171.8 452.5,170.4 451.2,169.8 451,169.1 449.4,170 
		448.1,169.1 447.4,169.8 446.5,160.9 445.9,154.7 445.2,148.7 443.9,137.7 456.1,135.7 457,136.1 457.4,135.9 458.3,136.6 
		459.8,136.8 461.2,137.7 462.1,136.6 464.3,138.3 465.6,138.8 466.7,138.1 467.6,137.7 469.6,136.6 470.5,136.6 472.3,136.6 
		473.4,135.2 474.5,133.7 478.3,130.8 479.1,130.6 482.5,128.6 485.1,145.2 484,145.4 483.8,146.1 484.7,147.2 484.9,149.2 
		484.2,152.3 484.2,154.5 483.6,156.5 484,156.9 483.8,158.3 482.5,159.1 480.9,161.6 480,162.2 478.7,161.6 478,162.7 478,163.6 
		476.9,163.6 476.5,164.9 476.7,166 476,166.2 476.7,166.9 476.5,167.6 475.6,168.9 475.1,167.6 474.3,167.1 473.6,168 473.4,169.5 
		472.7,170.2 473.1,171.3 473.4,172.6 472.5,173.1 472.3,174.6 470.5,175.5 	"/>
	<polygon fill="#367199" stroke="#5E5E5E" stroke-width="0.75" stroke-miterlimit="10" points="213,193.5 213,193.5 205.6,245.5 
		203.2,263.4 181.9,260.3 169,252.8 161.9,248.8 155.7,245.1 146,239.1 146.2,237.5 147.3,236.6 149.5,236.4 150.2,235.5 
		150.4,234.6 150.2,233.1 148.6,232.7 148.4,232 149.1,230 148.6,229.3 149.1,228.2 150,228 151.5,226.9 151.7,225.3 152,225.1 
		152.2,222.3 153.1,221.4 154,220.3 155.5,219.6 157.1,218.9 156.8,217.8 155.5,216.3 155.1,216 155.3,215.2 154.8,212.7 
		154.2,211.8 153.5,210.5 153.7,209 154.2,208.1 154,207.6 154.8,207.4 155.1,205 154.6,202.8 155.1,201.4 154.8,200.8 155.1,198.8 
		155.5,197.9 155.1,197.2 155.5,195.2 157.3,195 157.7,195.2 159,195.5 160.2,197.2 161,197.2 162.4,195.5 164.4,185.5 189.9,190.1 
		198.8,191.5 199,191.5 	"/>
	<polygon fill="#367199" stroke="#5E5E5E" stroke-width="0.75" stroke-miterlimit="10" points="203.2,129 203.2,129 194.5,127.5 
		188.1,126.4 177.5,124.6 176.1,124.4 154,119.7 149.3,118.6 154.4,96.5 154.8,96 155.7,94.3 155.5,93.4 156.4,92.7 155.9,91.6 
		155.3,91.6 154.8,90.9 154.4,90.9 154,90.3 154.4,90.1 154.2,89.2 154.4,88.3 155.3,87.6 156.8,85.4 157.7,85.2 159,83.4 
		159.3,82.3 160.4,81.2 161.5,79 163,77 163.9,76.1 163.7,74.1 161.9,72.8 161.3,70.6 161,69.2 161.7,68.4 161.5,66.8 161,65.9 
		161.3,65 165.9,44.7 168.4,34.3 176.4,36 173.7,48.2 175,51.3 175.7,52.2 175.7,53.5 175,53.7 175.5,55.1 175,55.5 176.1,56.6 
		176.4,57.3 177.9,58.2 177.9,59 178.8,59.9 179.2,61 179.5,62.2 180.4,62.8 179.9,63.5 180.4,64.4 182.3,65.9 182.3,66.8 183.5,67 
		184.6,66.8 184.8,67.2 183.9,69.5 183.2,70.1 182.6,72.8 181.9,72.6 182.3,73.7 181.9,74.1 182.3,75.4 182.1,76.8 181.5,76.5 
		180.6,77.4 181,78.8 180.4,79 180.4,79.9 181,80.1 181.9,81.6 182.8,80.7 183.7,80.7 185,79.9 185,79.2 185.9,79.4 186.8,80.7 
		186.3,81.6 186.8,81.6 186.6,82.5 186.8,83.4 186.6,84.1 187.4,86.1 187.7,86.7 188.6,87.8 188.3,89.2 187.9,89.2 187.9,90.3 
		188.8,91.4 189.7,91.2 190.5,91.8 191,94.9 191,96 191.9,96.9 193,95.8 195.7,96.5 196.3,96.9 196.8,96 197.4,95.6 199,96.5 
		201.2,96.3 201.4,97.1 202.5,96.7 203.4,96.9 204.7,95.6 204.7,95.1 205.6,94.7 206.3,95.1 207,96.5 206.7,97.1 207.4,98.2 
		208.1,98.7 204.7,120.2 	"/>
	<polygon fill="#367199" stroke="#5E5E5E" stroke-width="0.75" stroke-miterlimit="10" points="418.4,189 418.4,189 417.3,190.8 
		417.5,191.9 418.4,193 416.1,193.5 415.5,194.1 414.4,194.6 414.1,195.9 415.3,197.4 414.8,198.6 413.9,198.6 410.2,197 409,197 
		407.7,199.4 408.4,200.1 407.7,199.7 406.8,200.1 405.9,199.4 405.9,199 404.4,196.6 405.1,195.7 405.1,194.8 404.2,193.5 
		403.9,191.7 403.3,191.2 401.7,189.7 400.6,189 399.7,189.5 399.1,188.4 397.7,187.3 396.6,186.8 395.5,185.5 395.3,184.6 
		395.3,183.5 396,182.8 396.2,181.5 396.6,180.6 396.4,179.3 397.3,178.2 397.3,177.5 396,176.6 394,176.2 393.1,177.3 392,176.9 
		391.3,175.1 391.7,174.9 391.1,172.9 390.4,172 388,170.4 387.3,169.5 386.9,169.3 384.6,167.1 384.6,166.5 383.8,165.3 
		384.2,164.9 383.3,163.3 383.1,160.9 383.8,159.1 384.2,158.9 384.2,157.4 383.8,156.9 384.4,156.3 385.8,155.8 386.4,155.4 
		386.6,153.6 387.8,152.1 387.8,149.8 386.2,148.3 386.6,146.1 388.4,145.4 390.2,145.2 390.9,144.5 392,144.3 393.1,143.4 
		393.1,141.6 394.4,140.8 394.6,138.3 394.4,136.8 392.2,135.7 391.7,134.3 391.3,133.7 389.5,132.6 389.7,132.1 398.6,131.7 
		406.6,131.2 412.6,130.8 415.5,130.6 415.5,133 415.9,134.1 417,135.7 418.1,138.8 418.8,140.1 420.1,155.2 420.8,162.7 
		421.5,169.3 421,169.5 420.8,170.4 421.2,171.1 420.6,171.8 421.5,173.1 421.5,174 422.1,174.2 421.7,175.5 422.4,176.4 
		422.4,177.5 421.5,178.2 421.2,180 420.6,180.8 419.7,182.8 418.8,182.8 418.4,183.9 419,184.6 418.4,185.3 418.4,187 417.9,188.2 
			"/>
	<polygon fill="#367199" stroke="#5E5E5E" stroke-width="0.75" stroke-miterlimit="10" points="354.5,202.1 354.5,202.1 
		350.7,202.3 324.1,202.1 305,201.7 299.5,201.4 281.5,200.6 281.9,191.9 283.7,162.9 304.8,164 320.1,164.7 347.4,164.9 348.3,166 
		350,166.5 350.9,166.2 351.1,167.8 350,168.9 349.4,170.7 351.1,172.4 351.4,173.5 352,174.6 352.9,175.1 354.3,175.3 354.3,175.7 
		354.3,192.6 	"/>
	<polygon fill="#367199" stroke="#5E5E5E" stroke-width="0.75" stroke-miterlimit="10" points="404.8,206.3 404.8,206.3 
		405.1,207.9 405.1,209.2 404.6,209.6 404.6,211 403.7,211.6 403.3,212.7 396.8,213.2 397.5,211.6 399.7,209.2 399.7,208.1 
		398.8,207.6 398.6,206.7 383.8,207.6 376.9,207.9 354.5,208.3 354.5,202.1 354.3,192.6 354.3,175.7 354.3,175.3 352.9,175.1 
		352,174.6 351.4,173.5 351.1,172.4 349.4,170.7 350,168.9 351.1,167.8 350.9,166.2 350,166.5 348.3,166 347.4,164.9 346.3,164.2 
		346.5,163.3 345.8,162.5 345.8,162 344.5,160.9 343.6,158.9 343.6,158.3 343.2,158.3 342.9,157.6 354.5,157.6 366.5,157.1 
		378.7,156.5 380.9,156.3 382,157.6 382.9,158 382.9,158.7 383.8,159.1 383.1,160.9 383.3,163.3 384.2,164.9 383.8,165.3 
		384.6,166.5 384.6,167.1 386.9,169.3 387.3,169.5 388,170.4 390.4,172 391.1,172.9 391.7,174.9 391.3,175.1 392,176.9 393.1,177.3 
		394,176.2 396,176.6 397.3,177.5 397.3,178.2 396.4,179.3 396.6,180.6 396.2,181.5 396,182.8 395.3,183.5 395.3,184.6 395.5,185.5 
		396.6,186.8 397.7,187.3 399.1,188.4 399.7,189.5 400.6,189 401.7,189.7 403.3,191.2 403.9,191.7 404.2,193.5 405.1,194.8 
		405.1,195.7 404.4,196.6 405.9,199 405.9,199.4 406.8,200.1 407.7,199.7 408.4,200.1 408.6,200.3 408.2,203 407.9,203.4 
		408.4,204.1 407.7,205.2 406.8,204.5 406.4,204.8 405.9,206.3 405.3,206.3 405.3,205.4 404.4,205.9 	"/>
	<polygon fill="#367199" stroke="#5E5E5E" stroke-width="0.75" stroke-miterlimit="10" points="203.2,263.4 203.2,263.4 
		205.6,245.5 213,193.5 234,196.1 234.3,196.3 242.7,197.2 258.9,198.8 272,199.7 271.5,205.9 271.3,205.9 270.9,211.6 268.9,236.9 
		267.7,249.5 266.9,261.9 229.6,258.3 229.1,259.4 229.6,260.3 230.3,261 212.7,259 212.1,264.5 	"/>
	<polygon fill="#367199" stroke="#5E5E5E" stroke-width="0.75" stroke-miterlimit="10" points="477.4,185.5 477.4,185.5 
		475.8,185.5 475.6,185 474,184.4 473.4,183.1 472.5,181.7 471.6,181.3 471.8,180.6 469.8,179.1 470.3,177.3 469.8,175.5 
		470.5,175.5 472.3,174.6 472.5,173.1 473.4,172.6 473.1,171.3 472.7,170.2 473.4,169.5 473.6,168 474.3,167.1 475.1,167.6 
		475.6,168.9 476.5,167.6 476.7,166.9 476,166.2 476.7,166 476.5,164.9 476.9,163.6 478,163.6 478,162.7 478.7,161.6 480,162.2 
		480.9,161.6 482.5,159.1 483.8,158.3 484,156.9 483.6,156.5 484.2,154.5 484.2,152.3 484.9,149.2 484.7,147.2 483.8,146.1 
		484,145.4 485.1,145.2 486.9,156.5 496.7,154.7 497.8,161.1 499.3,159.6 499.6,158.9 500.9,157.4 502.2,157.4 503.1,155.4 
		503.5,155.2 504.6,155.6 506.6,155.6 507.3,153.8 508.2,154 508.9,152.9 509.5,152.9 510.6,153.8 512,154 512.4,154.7 513.5,155.4 
		514,156.7 513.5,159.1 507.8,156 508.2,157.4 507.5,158.7 508,159.8 505.5,163.6 505.1,163.8 504.4,165.6 503.1,164.7 502.2,167.3 
		501.8,169.3 501.1,170.7 499.3,170.2 498.7,169.3 497.6,168.9 497.3,170.4 497.6,171.1 496.7,172.6 495.6,175.1 495.8,175.3 
		495.3,176.9 494,178.6 493.3,181.1 493.6,181.5 493.1,182.6 493.6,183.3 492,184.6 491.6,183.9 488.7,186.2 488.2,186.6 
		486.2,187.5 485.1,188.2 483.6,187 483.1,187.9 482,189 480.7,189.3 479.8,188.4 478.9,188.4 478,187.5 477.8,186.6 477.1,186.4 	
		"/>
	<polygon fill="#367199" stroke="#5E5E5E" stroke-width="0.75" stroke-miterlimit="10" points="219.8,144.1 219.8,144.1 
		208.7,142.5 201.4,141.4 203.2,129 204.7,120.2 208.1,98.7 209.2,92 212.1,92.7 226,94.7 226.3,94.7 241.4,96.7 243.6,96.9 
		253.8,98.2 253.8,98 270.2,99.6 268,124.4 266,149.2 258.4,148.5 246,147.2 238.7,146.3 	"/>
	<polygon fill="#367199" stroke="#5E5E5E" stroke-width="0.75" stroke-miterlimit="10" points="174.5,306.8 174.5,306.8 
		182.5,335.9 184.1,335.2 186.1,336.5 186.5,334.7 188.5,334.1 188.7,336.7 191.6,339.4 195.8,340.7 197.4,342.7 199,342.1 
		198.7,340.5 200.3,339.6 199.6,337.6 202.5,336.7 209.8,340.1 216.5,344.9 218.7,346 220,348.7 227.8,349.8 230,351.6 230.5,354 
		232.2,355.8 232.2,358.7 228.9,360.2 223.1,362 220.2,360.7 216.3,358.2 213.8,356 210.7,354.7 205.8,350.2 202.3,347.6 199,346.9 
		196.1,345.6 193,343.2 188.5,342.1 189.2,340.3 183.6,340.9 179.2,339.2 177,339 172.8,340.7 168.8,338.3 165.7,338.1 164.1,335.9 
		163,336.1 160.1,334.5 159,335.9 159.2,342.3 154.4,342.9 153,344.5 149.5,347.1 146.4,347.1 146.2,344.7 148.2,342.1 149,339.2 
		153.9,335.9 151.3,334.3 148.4,336.7 147,336.7 145.9,339.6 139.1,349.6 139.5,350.9 141.5,350.5 141.7,352.2 139.7,352.7 
		138.8,354.2 132.4,357.8 128.9,361.8 126.6,362.4 125.8,364.2 118,369.1 113.1,370.2 105.8,371.1 98.9,373.1 96.5,371.7 98,370.4 
		103.1,368.2 106.5,368 111.3,366.4 112.9,365.3 115.1,365.7 117.8,363.1 122.2,361.3 127.1,355.1 127.3,352 125.5,350.9 122.2,352 
		121.5,349.6 120.4,348.5 113.5,348.7 110.4,350 112.2,346.9 112.4,344.9 110,342.1 104.7,342.7 104.2,339.6 102,337.6 103.1,333.9 
		102,332.3 100,332.1 99.6,329.9 100.5,329.4 101.6,326.6 103.6,325.4 104.5,323.5 106.5,321.9 108,321.9 108.7,323.5 110.9,325 
		114,321.2 115.3,322.6 116.7,320.8 117.5,315 117.3,313.3 115.3,313.9 114.2,315.7 111.3,316.4 110.9,315.3 108,314.2 105.8,315.3 
		102.5,313 101.6,309.5 98,308 100,305.5 107.1,303.3 110.4,301.5 111.1,302 110.4,305.3 113.8,305.3 114.7,306 118.7,304 
		116,301.1 114.7,298.7 111.1,298 107.3,294.9 105.6,292 106.9,289.4 107.6,289.8 111.3,289.6 113.5,287.6 116,283.2 118,282.3 
		120.2,282.7 122.4,281.6 125.1,278.5 127.3,279.2 129.3,278.5 131.3,276.5 135.3,279.8 135.7,281.6 140.6,282.7 149.3,282.9 
		157,283.6 161.7,282.7 163.2,281.4 165.5,284 168.6,285.6 	"/>
	<polygon fill="#367199" stroke="#5E5E5E" stroke-width="0.75" stroke-miterlimit="10" points="146.6,350.2 146.6,350.2 
		147.9,352.9 146.2,354.5 146.4,358.4 147.3,360.4 145,361.5 140.4,362.6 138,358.4 140.4,356.9 142.2,354.5 145.5,352.2 	"/>
	<polygon fill="#367199" stroke="#5E5E5E" stroke-width="0.75" stroke-miterlimit="10" points="98.9,337.8 98.9,337.8 100.2,340.3 
		99.1,342.7 96.7,343.2 95.6,340.3 	"/>
	<polygon fill="#367199" stroke="#5E5E5E" stroke-width="0.75" stroke-miterlimit="10" points="85.8,315 85.8,315 85.8,316.8 
		89.6,316.6 88.3,319.7 84.9,317.7 	"/>
	<polygon fill="#367199" stroke="#5E5E5E" stroke-width="0.75" stroke-miterlimit="10" points="59.6,374.8 59.6,374.8 60.1,377.3 
		58.5,377.5 	"/>
	<polygon fill="#367199" stroke="#5E5E5E" stroke-width="0.75" stroke-miterlimit="10" points="162.1,337.8 162.1,337.8 
		162.8,341.2 161.7,346.5 160.8,343.8 161.7,343.2 	"/>
	<polygon fill="#034D7F" stroke="#5E5E5E" stroke-width="0.75" stroke-miterlimit="10" points="164.4,185.5 164.4,185.5 
		162.4,195.5 161,197.2 160.2,197.2 159,195.5 157.7,195.2 157.3,195 155.5,195.2 155.1,197.2 155.5,197.9 155.1,198.8 154.8,200.8 
		155.1,201.4 154.6,202.8 155.1,205 154.8,207.4 154,207.6 154.2,208.1 153.7,209 145.7,196.6 139.3,187.3 135.5,181.5 128.9,171.5 
		121.1,159.8 113.4,148.5 114,145.9 116.5,137 122.9,112.4 124.7,112.9 134.4,115.3 136.2,115.7 149.3,118.6 154,119.7 176.1,124.4 
		175.9,125.7 172.4,143.9 165.7,178.2 	"/>
	<polygon fill="#034D7F" stroke="#5E5E5E" stroke-width="0.75" stroke-miterlimit="10" points="482,196.8 482,196.8 482,198.3 
		481.8,199 482,199.9 481.4,199.9 480.3,200.6 479.4,203.2 478.5,203.4 477.4,203 475.8,204.1 475.4,205 474.5,205.9 474,205.9 
		473.6,204.5 472.3,205.6 471.8,206.7 471.2,206.5 471.2,207.4 470.5,208.7 469.6,208.5 468.1,209.6 465.8,212.1 463.2,212.3 
		462.1,213.2 461,214.5 461,216 460.3,216.7 459.2,216.5 458.5,217.2 458.5,220 445.6,221.6 433,222.9 427.2,223.4 419.5,224 
		407,224.9 398.2,225.6 398.4,224.9 399.3,225.1 399.5,224 400.4,222.5 399.5,222 400.4,220.5 400,220.3 400.6,218.5 401.5,217.2 
		401.3,216 402.6,215.8 403.1,214.5 404.2,213.6 403.3,212.7 403.7,211.6 404.6,211 404.6,209.6 405.1,209.2 405.1,207.9 
		404.8,206.3 405.3,206.3 405.9,206.3 407,206.1 419.5,205.2 419.7,204.8 419,203 421.2,203 421.2,203.4 433.7,202.1 436.1,201.9 
		441.2,201.7 444.5,201.4 447.4,201 453.9,200.6 462.3,199.7 462.5,199.4 466.5,199 479.6,197 479.6,196.8 	"/>
	<polygon fill="#034D7F" stroke="#5E5E5E" stroke-width="0.75" stroke-miterlimit="10" points="331.4,313 331.4,313 329.9,315 
		327.9,317.9 326.1,321.9 325.4,324.8 325.6,327.2 325.9,329.4 326.8,331.6 326.1,331.6 325.4,328.3 325.4,324.1 325.6,321.7 
		327.9,317.2 329.2,315.9 329.9,314.1 	"/>
	<polygon fill="#034D7F" stroke="#5E5E5E" stroke-width="0.75" stroke-miterlimit="10" points="230.3,261 230.3,261 229.6,260.3 
		229.1,259.4 229.6,258.3 266.9,261.9 267.7,249.5 268.9,236.9 270.9,211.6 271.3,205.9 271.5,205.9 301.2,207.6 300.1,231.8 
		301.5,232 303.2,234.2 304.1,234.2 304.3,233.8 306.3,234.4 306.6,233.3 307.7,234 308.1,234.9 308.3,236.4 309.9,236.9 
		310.3,236.4 312.8,237.7 313.9,237.3 314.5,237.5 315.4,238.6 316.1,238.4 316.8,237.5 318.8,238 319.2,237.5 319.4,239.3 
		321,239.5 320.8,240.4 321.6,241.3 323.6,239.5 324.5,240.2 324.5,240.6 325.9,240.9 325.9,241.5 326.8,242 327.2,241.1 
		327.9,241.3 328.5,240.6 329,241.5 328.5,242.2 328.7,242.8 329.6,243.1 329.6,242.2 331.4,240.2 331.9,241.3 332.7,241.3 333,242 
		334.5,241.5 335.4,242 335.6,242.4 336.5,242.4 337.4,243.5 338.1,242.6 339.2,242.6 339,242 340.7,241.7 341.4,241.1 342.5,241.7 
		345.4,240.4 345.4,241.3 348,241.3 348.7,240.2 349.8,240.4 350.5,241.3 351.4,241.3 352.5,242.8 353.4,242.6 354,243.5 
		355.4,243.5 356,244.4 356.5,244.2 357.8,245.3 360.5,244.8 360.9,245.1 361.1,251.7 361.4,264.3 362.9,265.7 363.8,267 364,268.1 
		363.8,269.9 364.9,270.5 365.6,272.3 365.3,272.7 366,273.2 366.2,274.5 366.9,274.3 367.3,276.3 366.7,276.5 367.1,277.4 
		366.9,278.7 366.2,280.5 365.1,281.8 365.6,283.6 364.7,284.9 365.3,285.4 365.6,287.4 365.1,288.7 364.7,289.1 364,290.7 
		363.4,291.3 364.2,292.9 362.5,293.1 360.9,293.6 356,295.8 354.5,297.1 354.3,296.7 355.1,295.8 356,295.5 356.5,294.4 354,295.1 
		354.7,293.8 354.9,292.7 354.5,291.8 353.6,292.2 352.9,293.3 352,292.9 351.4,294.7 352.7,295.5 352.9,297.8 352.3,298 
		350.7,299.5 350,299.3 350.3,300.6 353.1,298 353.8,298.2 351.4,299.8 347.8,302.8 342.9,305.7 341,306.6 340.5,306 338.3,306.8 
		338.3,306.2 337.6,306.2 335.6,306.8 335.4,306.2 334.5,306 334.3,305.1 333.6,305.3 334.7,306.8 336.5,308.6 333.4,309.7 
		333.2,308.8 332.3,309.1 332.1,311.3 330.5,312.4 329.4,311.7 328.1,312.1 328.3,313.3 329.2,313.7 327.9,316.1 327,315.5 
		325.6,315.9 325.6,317 327,317.7 326.3,319.2 325.2,322.1 324.3,321.5 322.8,323.2 323.9,323.2 325,323 324.3,326.1 323.4,326.3 
		323.4,328.1 324.5,329.2 325,331.6 324.8,332.7 325.9,334.1 326.1,336.5 326.5,337.4 327.2,337.4 327.9,338.9 326.5,338.9 
		325.2,339.6 325.4,340.3 323.6,339.8 322.3,338.1 320.5,337.6 316.1,337.6 314.8,336.7 313.2,335.4 311.7,335 310.8,335.2 
		309.2,333.4 308.3,333.6 307.7,333.2 305.9,332.7 306.1,332.1 305.5,331.4 305,329 304.3,327.7 303.2,326.3 302.4,325.2 
		302.8,323.4 302.6,322.6 301.9,322.1 302.4,319.7 301.7,319.5 301.9,318.6 301,317.7 299.9,317.5 299.2,316.4 298.1,315.5 
		297.5,313.3 296.8,313 295.9,311.3 294.6,310.6 293.7,309.3 293.3,307.7 292.6,306.2 292.8,305.7 291.7,304.6 291.7,303.7 
		290.6,301.7 290.4,301.5 290.1,299.1 289,298.2 288.8,297.3 286.6,295.8 286.2,294.7 285,294.2 283.9,293.6 284.2,292.9 
		283.5,292.7 282.4,290.7 281.9,290.2 279.3,290.4 277.7,289.8 276.4,289.6 275.1,289.8 274.4,289.1 272.6,288.7 272,290 
		270.9,289.6 269.3,290.2 267.3,292.7 266.6,294.7 266,295.8 266.4,296.2 264.9,296.7 263.8,298 263.5,298.9 261.5,298.9 260.2,298 
		259.1,296.7 257.1,296 256,294.7 254.4,294.4 252.7,293.1 251.5,291.3 250.7,291.3 249.1,289.6 248.7,288 247.6,286 247.3,284.7 
		247.8,282.9 247.1,281.4 246.2,280 246,277.8 245.1,277.4 244.9,276.3 242.7,274.7 240.9,273.8 240.9,273.4 239.4,271.8 
		239.1,270.7 237.4,269.6 235.8,267 234.5,266.3 233.1,265.4 231.8,261.9 	"/>
	<polygon fill="#034D7F" stroke="#5E5E5E" stroke-width="0.75" stroke-miterlimit="10" points="457.4,270.1 457.4,270.1 447,271.4 
		434.8,272.5 429.9,273 429.7,274.7 431,276.1 432.3,276.9 432.6,277.4 432.1,278.9 432.6,279.6 432.1,281.1 431.7,281.8 
		430.1,282.3 429,281.8 427.5,280.5 427,279.6 427.2,278.9 426.8,277.6 425.9,277.2 425.2,279.6 425.2,281.1 425,281.8 423.5,281.1 
		422.1,281.6 419.9,262.8 419.9,255.9 420.4,240 420.6,225.3 419.5,224 427.2,223.4 433,222.9 445.6,221.6 447.9,229.8 453,247.5 
		453.6,248.4 454.5,250.8 455.2,251.5 455.9,252.6 455.4,253.9 456.7,254.4 455.2,256.4 455.4,257.9 454.7,260.1 455.2,261.9 
		455.9,262.8 456.3,263.7 455.9,267 456.1,268.3 457,269 	"/>
	<polygon fill="#034D7F" stroke="#5E5E5E" stroke-width="0.75" stroke-miterlimit="10" points="403.3,212.7 403.3,212.7 
		404.2,213.6 403.1,214.5 402.6,215.8 401.3,216 401.5,217.2 400.6,218.5 400,220.3 400.4,220.5 399.5,222 400.4,222.5 399.5,224 
		399.3,225.1 398.4,224.9 398.2,225.6 398.8,226.7 397.3,227.6 397.1,228.7 395.7,229.8 396.2,231.3 395.7,232 396.2,232.7 
		395.3,233.5 394.2,233.5 394.4,234.4 393.5,234.9 393.3,235.8 392.4,236.9 393.3,237.3 392.4,238.2 391.3,240 391.5,241.1 
		390.9,241.1 390.6,241.7 390,242.6 390,244 390.4,244.6 391.7,245.3 390.9,246.6 391.5,249 390.9,250.8 380,251.3 371.1,251.5 
		361.1,251.7 360.9,245.1 360.5,244.8 357.8,245.3 356.5,244.2 356.5,228.4 356.7,222.3 354.5,208.3 376.9,207.9 383.8,207.6 
		398.6,206.7 398.8,207.6 399.7,208.1 399.7,209.2 397.5,211.6 396.8,213.2 	"/>
	<polygon fill="#034D7F" stroke="#5E5E5E" stroke-width="0.75" stroke-miterlimit="10" points="431.7,281.8 431.7,281.8 
		432.1,281.1 432.6,279.6 432.1,278.9 432.6,277.4 432.3,276.9 431,276.1 429.7,274.7 429.9,273 434.8,272.5 447,271.4 457.4,270.1 
		458.3,271.6 458.7,273.2 459.2,273.6 473.8,272.5 487.6,271.6 487.8,273.4 488.5,274.3 489.8,273.8 489.6,271 489.1,270.3 
		489.1,269.2 490,268.1 492.5,268.7 495.6,268.7 496,271 496.7,272.5 496.9,273.8 499.1,279.6 500.7,282.3 503.5,286.9 507.1,291.3 
		508.9,293.1 509.5,294.7 509.1,295.3 509.1,296.4 510,299.1 512.6,303.1 514.6,307.3 516.2,309.3 517.3,311.3 518.4,313.9 
		518.8,316.6 519.1,322.6 519.3,326.3 519.1,327 518.2,327.2 517.7,330.5 518.2,331.4 517.5,333.2 513.7,335.2 513.1,335 512,335.4 
		510,336.1 508.9,335 509.1,333 508,331.6 507.3,330.3 506,329.2 505.8,328.1 504.9,327.7 503.3,327.4 502.2,327.7 502,328.3 
		501.3,327.7 500.2,325.4 499.6,323 498.2,321.7 496.7,320.8 496,321.2 495.3,319.5 496,319 496,317.2 495.8,316.4 494.5,316.1 
		495.1,317.7 493.8,318.1 493.3,317.2 491.3,314.8 489.6,312.1 487.8,310.6 487.6,309.7 488.2,309.5 490.5,305.3 490.2,304.4 
		488.9,305.1 488.5,304 487.1,303.7 486.7,304.4 487.8,304.8 488.5,305.7 488,307.3 486.9,307.3 485.4,305.3 485.8,304.4 
		485.8,301.1 486.5,298.4 486.2,296.4 486,295.3 485.4,295.1 485.1,293.3 485.4,292.9 484.5,291.8 483.8,290 481.6,289.8 
		481.1,290.4 480.5,288.9 479.6,288.7 478.9,287.1 476.7,286.2 476.5,284.5 474.9,284 473.6,282 473.1,281.6 470.3,280.7 469.2,280 
		466.5,280.3 465.6,280.9 466.1,282.9 464.9,282.7 464.1,283.1 462.7,284 460.7,285.4 460.1,285.1 459.4,286 458.3,286 456.5,286.7 
		456.1,286.5 455.9,285.4 454.7,283.8 453.9,283.6 452.5,282.7 451.4,282 449.2,280.9 446.8,280 444.5,279.6 441,279.6 438.1,280 
		435.4,280.9 433.9,281.1 	"/>
	<polygon fill="#034D7F" stroke="#5E5E5E" stroke-width="0.75" stroke-miterlimit="10" points="505.3,342.5 505.3,342.5 
		507.1,340.9 508.4,342 507.5,342.5 	"/>
	<polygon fill="#034D7F" stroke="#5E5E5E" stroke-width="0.75" stroke-miterlimit="10" points="495.6,268.7 495.6,268.7 
		492.5,268.7 490,268.1 489.1,269.2 489.1,270.3 489.6,271 489.8,273.8 488.5,274.3 487.8,273.4 487.6,271.6 473.8,272.5 
		459.2,273.6 458.7,273.2 458.3,271.6 457.4,270.1 457,269 456.1,268.3 455.9,267 456.3,263.7 455.9,262.8 455.2,261.9 454.7,260.1 
		455.4,257.9 455.2,256.4 456.7,254.4 455.4,253.9 455.9,252.6 455.2,251.5 454.5,250.8 453.6,248.4 453,247.5 447.9,229.8 
		445.6,221.6 458.5,220 465.6,219.4 470.7,218.5 470.7,219.2 469.6,220 468.9,221.4 468.9,222.7 470,223.4 470.7,223.4 471.8,224.5 
		474,224.7 474.5,225.8 475.6,226.9 476,228.4 477.6,229.6 478,230.7 480.9,232 481.6,232.7 482.2,234 483.8,234.6 485.4,236 
		485.4,237.1 486.5,238 488.2,239.5 489.1,239.7 490.7,240.6 490.7,241.5 491.6,242.6 492.2,245.3 493.6,245.7 494.7,246.8 
		494.7,247.3 495.6,248.2 495.6,249.5 496.2,250.8 497.3,250.8 498.7,251.5 499.1,252.4 498.2,252.6 498,253.9 496.9,256.1 
		496.7,258.3 496,260.3 496,262.3 495.1,263.4 495.1,265 495.6,266.1 495.3,267.4 	"/>
	<polygon fill="#034D7F" stroke="#5E5E5E" stroke-width="0.75" stroke-miterlimit="10" points="418.4,189 418.4,189 417.9,188.2 
		418.4,187 418.4,185.3 419,184.6 418.4,183.9 418.8,182.8 419.7,182.8 420.6,180.8 421.2,180 421.5,178.2 422.4,177.5 422.4,176.4 
		421.7,175.5 422.1,174.2 421.5,174 421.5,173.1 420.6,171.8 421.2,171.1 420.8,170.4 421,169.5 421.5,169.3 420.8,162.7 
		420.1,155.2 418.8,140.1 419.9,140.1 420.4,141 421.2,141 422.6,140.5 425.2,138.8 443.6,136.8 443.9,137.7 445.2,148.7 
		445.9,154.7 446.5,160.9 447.4,169.8 446.8,170.4 447.4,171.1 447.2,172 448.1,172.6 448.1,173.8 446.5,174 444.5,175.3 
		443.9,174.9 442.3,174.9 442.1,175.3 442.5,177.1 441.9,178.4 440.8,179.1 440.5,180.4 439.9,181.1 439.4,180.8 438.3,182.6 
		438.5,183.5 438.1,184.6 437.4,184.8 436.1,184.8 435,184.2 435,183.3 434.1,182.6 433.2,184.6 432.8,184.6 433,185.9 431,186.8 
		430.1,185.5 427.9,186.8 427.7,188.2 427,188.6 424.4,186.8 423.2,187.3 421.7,188.4 421.5,187.5 420.1,187.9 419.5,187.5 
		419,187.9 419.5,188.8 419.2,189.3 	"/>
	<polygon fill="#034D7F" stroke="#5E5E5E" stroke-width="0.75" stroke-miterlimit="10" points="462.5,199.4 462.5,199.4 
		462.3,199.7 453.9,200.6 447.4,201 444.5,201.4 441.2,201.7 436.1,201.9 433.7,202.1 421.2,203.4 421.2,203 419,203 419.7,204.8 
		419.5,205.2 407,206.1 405.9,206.3 406.4,204.8 406.8,204.5 407.7,205.2 408.4,204.1 407.9,203.4 408.2,203 408.6,200.3 
		408.4,200.1 407.7,199.4 409,197 410.2,197 413.9,198.6 414.8,198.6 415.3,197.4 414.1,195.9 414.4,194.6 415.5,194.1 416.1,193.5 
		418.4,193 417.5,191.9 417.3,190.8 418.4,189 419.2,189.3 419.5,188.8 419,187.9 419.5,187.5 420.1,187.9 421.5,187.5 421.7,188.4 
		423.2,187.3 424.4,186.8 427,188.6 427.7,188.2 427.9,186.8 430.1,185.5 431,186.8 433,185.9 432.8,184.6 433.2,184.6 434.1,182.6 
		435,183.3 435,184.2 436.1,184.8 437.4,184.8 438.1,184.6 438.5,183.5 438.3,182.6 439.4,180.8 439.9,181.1 440.5,180.4 
		440.8,179.1 441.9,178.4 442.5,177.1 442.1,175.3 442.3,174.9 443.9,174.9 444.5,175.3 446.5,174 448.1,173.8 448.1,172.6 
		447.2,172 447.4,171.1 446.8,170.4 447.4,169.8 448.1,169.1 449.4,170 451,169.1 451.2,169.8 452.5,170.4 453.4,171.8 453.6,172.6 
		455.2,173.1 455.9,172.6 457.2,172.9 458.1,174 459.2,174.2 459.6,173.5 460.5,173.1 462.1,173.5 462.7,174.2 464.3,173.5 
		465.2,172.2 466.3,171.8 467.2,173.8 468.3,174 469.4,174.9 469.8,175.5 470.3,177.3 469.8,179.1 471.8,180.6 471.6,181.3 
		472.5,181.7 473.4,183.1 474,184.4 475.6,185 475.8,185.5 477.4,185.5 474.3,189.5 472.3,190.6 470.9,191.7 470.9,192.6 
		469.6,193.7 469.6,194.8 468.5,195.5 467.8,195.5 467.4,197 466.9,197 464.7,198.3 463.6,198.3 	"/>
	<polygon fill="#034D7F" stroke="#5E5E5E" stroke-width="0.75" stroke-miterlimit="10" points="405.3,206.3 405.3,206.3 
		404.8,206.3 404.4,205.9 405.3,205.4 	"/>
	<polygon fill="#034D7F" stroke="#5E5E5E" stroke-width="0.75" stroke-miterlimit="10" points="364.2,292.9 364.2,292.9 
		363.4,291.3 364,290.7 364.7,289.1 365.1,288.7 365.6,287.4 365.3,285.4 364.7,284.9 365.6,283.6 365.1,281.8 366.2,280.5 
		366.9,278.7 367.1,277.4 366.7,276.5 367.3,276.3 366.9,274.3 366.2,274.5 366,273.2 365.3,272.7 365.6,272.3 364.9,270.5 
		363.8,269.9 364,268.1 363.8,267 362.9,265.7 361.4,264.3 361.1,251.7 371.1,251.5 380,251.3 390.9,250.8 390.4,251.9 391.1,252.1 
		391.3,251 391.7,251 392,252.1 391.3,252.8 391.3,255.2 392.2,256.4 392,257.5 393.3,257.9 393.1,258.6 394,259 393.3,260.6 
		392.6,260.1 391.5,260.8 391.5,261.7 392.6,261.7 392.4,263 391.3,263.7 391.5,264.3 389.7,265.2 389.3,267 389.3,268.7 
		388.2,269.2 388.2,270.3 388.6,271 388.2,272.3 387.1,272.5 387.5,273.4 387.3,274.5 388,275.4 387.3,275.8 407.3,274.7 407,275.4 
		406.4,278.9 407.3,280.7 408.4,281.6 409,282.9 408.8,283.6 409.7,284.7 410.4,284.7 409.3,285.1 408.6,286 407.3,286.7 407,287.8 
		407.7,288 408.8,288.7 409.7,288.5 409.7,287.1 410.8,286.5 412.8,287.8 413.3,286.9 413.7,287.1 412.1,288.9 411.7,290.7 
		410.6,290.2 409.3,290.2 409.7,291.3 409,291.8 409,292.9 410.2,294 410.6,293.6 411,294.4 413,294.4 414.1,295.3 414.6,294.7 
		415.7,296.4 416.8,296.7 415.3,298.6 414.1,298 412.8,299.8 412.6,299.8 413.5,298.4 413.3,297.5 412.6,297.8 411.5,296.7 
		408.8,295.8 407.5,295.8 407.7,294.9 407.5,293.8 405.5,294.4 405.7,296.2 404.8,296.4 405.3,297.1 404.8,297.8 403.7,298.6 
		402.6,297.8 402.4,296.4 401.7,296.9 399.7,296.4 399.1,297.5 399.1,298.4 398,298.6 396.8,299.3 395.5,298 394.2,298 392,297.3 
		391.3,296.7 392.4,295.8 392.2,294.4 390.2,293.8 389.3,294 388.9,292.7 388,292.4 388.2,291.6 386.9,291.3 385.5,292 385.3,291.6 
		385.8,290.4 384.2,290.4 384.2,290.9 382.2,291.8 382.9,293.1 382.4,293.8 380.7,294.2 376.9,293.8 373.6,292.2 370.7,291.6 
		369.6,291.8 368,291.8 365.1,292.2 	"/>
	<polygon fill="#034D7F" stroke="#5E5E5E" stroke-width="0.75" stroke-miterlimit="10" points="386,294.9 386,294.9 383.8,293.8 
		384.9,292.9 385.8,292.9 386.4,293.6 386.6,294.7 	"/>
	<polygon fill="#034D7F" stroke="#5E5E5E" stroke-width="0.75" stroke-miterlimit="10" points="410.4,284.7 410.4,284.7 
		409.7,284.7 408.8,283.6 409,282.9 408.4,281.6 407.3,280.7 406.4,278.9 407,275.4 407.3,274.7 387.3,275.8 388,275.4 387.3,274.5 
		387.5,273.4 387.1,272.5 388.2,272.3 388.6,271 388.2,270.3 388.2,269.2 389.3,268.7 389.3,267 389.7,265.2 391.5,264.3 
		391.3,263.7 392.4,263 392.6,261.7 391.5,261.7 391.5,260.8 392.6,260.1 393.3,260.6 394,259 393.1,258.6 393.3,257.9 392,257.5 
		392.2,256.4 391.3,255.2 391.3,252.8 392,252.1 391.7,251 391.3,251 391.1,252.1 390.4,251.9 390.9,250.8 391.5,249 390.9,246.6 
		391.7,245.3 390.4,244.6 390,244 390,242.6 390.6,241.7 390.9,241.1 391.5,241.1 391.3,240 392.4,238.2 393.3,237.3 392.4,236.9 
		393.3,235.8 393.5,234.9 394.4,234.4 394.2,233.5 395.3,233.5 396.2,232.7 395.7,232 396.2,231.3 395.7,229.8 397.1,228.7 
		397.3,227.6 398.8,226.7 398.2,225.6 407,224.9 419.5,224 420.6,225.3 420.4,240 419.9,255.9 419.9,262.8 422.1,281.6 421,282.3 
		419.2,281.8 418.4,282 417.3,281.4 415.5,281.8 411.3,283.8 411,284.7 	"/>
	<polygon fill="#034D7F" stroke="#5E5E5E" stroke-width="0.75" stroke-miterlimit="10" points="354.5,208.3 354.5,208.3 
		356.7,222.3 356.5,228.4 356.5,244.2 356,244.4 355.4,243.5 354,243.5 353.4,242.6 352.5,242.8 351.4,241.3 350.5,241.3 
		349.8,240.4 348.7,240.2 348,241.3 345.4,241.3 345.4,240.4 342.5,241.7 341.4,241.1 340.7,241.7 339,242 339.2,242.6 338.1,242.6 
		337.4,243.5 336.5,242.4 335.6,242.4 335.4,242 334.5,241.5 333,242 332.7,241.3 331.9,241.3 331.4,240.2 329.6,242.2 329.6,243.1 
		328.7,242.8 328.5,242.2 329,241.5 328.5,240.6 327.9,241.3 327.2,241.1 326.8,242 325.9,241.5 325.9,240.9 324.5,240.6 
		324.5,240.2 323.6,239.5 321.6,241.3 320.8,240.4 321,239.5 319.4,239.3 319.2,237.5 318.8,238 316.8,237.5 316.1,238.4 
		315.4,238.6 314.5,237.5 313.9,237.3 312.8,237.7 310.3,236.4 309.9,236.9 308.3,236.4 308.1,234.9 307.7,234 306.6,233.3 
		306.3,234.4 304.3,233.8 304.1,234.2 303.2,234.2 301.5,232 300.1,231.8 301.2,207.6 271.5,205.9 272,199.7 281.5,200.6 
		299.5,201.4 305,201.7 324.1,202.1 350.7,202.3 354.5,202.1 	"/>
	<polygon fill="#034D7F" stroke="#5E5E5E" stroke-width="0.75" stroke-miterlimit="10" points="498.7,251.5 498.7,251.5 
		497.3,250.8 496.2,250.8 495.6,249.5 495.6,248.2 494.7,247.3 494.7,246.8 493.6,245.7 492.2,245.3 491.6,242.6 490.7,241.5 
		490.7,240.6 489.1,239.7 488.2,239.5 486.5,238 485.4,237.1 485.4,236 483.8,234.6 482.2,234 481.6,232.7 480.9,232 478,230.7 
		477.6,229.6 476,228.4 475.6,226.9 474.5,225.8 474,224.7 471.8,224.5 470.7,223.4 470,223.4 468.9,222.7 468.9,221.4 469.6,220 
		470.7,219.2 470.7,218.5 473.8,216.9 473.8,217.2 475.4,216 477.4,214.7 477.8,215.2 478.7,214.7 490.9,213.6 491.3,214.9 
		492.2,213.8 494,215.8 494,217.2 505.3,215.6 518.8,225.1 517.1,226 515.3,228.4 514.2,230.7 513.7,232 513.7,234.6 512.4,236 
		512.4,237.1 510.2,237.3 510,238.9 509.1,240.2 507.8,241.1 507.8,242 506.6,242.8 504.6,244 503.5,245.3 502,245.7 502.7,246.4 
		502.4,247.5 500.7,248.4 500,247.7 499.6,248.2 500.7,248.8 500.2,249.7 499.1,250.6 	"/>
</g>
</svg>
