<svg id="Layer_1" data-name="Layer 1" xmlns="http://www.w3.org/2000/svg" viewBox="0 0 360 116"><defs><style>.cls-1{fill:#33a9a8;}.cls-2{fill:#5e9d43;}.cls-3{fill:#5a5e69;}</style></defs><title>Ex-11</title><path class="cls-1" d="M67.53,64.46,81,78a11.14,11.14,0,0,1,0,15.68L70.65,104.17a11,11,0,0,1-15.56,0L41.6,90.58l3.11-3.13L58.2,101a6.57,6.57,0,0,0,9.34,0L77.91,90.59a6.68,6.68,0,0,0,0-9.4L64.42,67.6ZM27.77,38a2.92,2.92,0,0,0-4.15,0,3,3,0,0,0,0,4.18,2.92,2.92,0,0,0,4.15,0,3,3,0,0,0,0-4.18Zm-8.3,8.37a2.92,2.92,0,0,0-4.15,0,3,3,0,0,0,0,4.18,2.92,2.92,0,0,0,4.15,0,3,3,0,0,0,0-4.18Zm-.18-8.54a2.92,2.92,0,0,0-4.15,0,3,3,0,0,0,0,4.18,2.92,2.92,0,0,0,4.15,0,3,3,0,0,0,0-4.18ZM68.92,79.43a3,3,0,0,1,0,4.18,2.92,2.92,0,0,1-4.15,0,3,3,0,0,1,0-4.18,2.92,2.92,0,0,1,4.15,0ZM60.61,87.8a3,3,0,0,1,0,4.18,2.92,2.92,0,0,1-4.15,0,3,3,0,0,1,0-4.18,2.92,2.92,0,0,1,4.15,0Zm8.48.18a3,3,0,0,1,0,4.18,2.92,2.92,0,0,1-4.15,0,3,3,0,0,1,0-4.18,2.92,2.92,0,0,1,4.15,0ZM3.22,51.92a11.14,11.14,0,0,1,0-15.68L13.59,25.8a11,11,0,0,1,15.56,0L42.64,39.38l-3.11,3.13L26,28.93a6.57,6.57,0,0,0-9.34,0L6.32,39.37a6.68,6.68,0,0,0,0,9.4L19.81,62.37,16.7,65.5Z"/><path class="cls-1" d="M78.43,38.86,68.05,28.4a7.3,7.3,0,0,0-10.38,0h0L5.8,80.66a7.43,7.43,0,0,0,0,10.45h0l10.38,10.45a7.3,7.3,0,0,0,10.38,0h0L78.43,49.31a7.43,7.43,0,0,0,0-10.45ZM19.29,92.15a2.92,2.92,0,0,1-4.15,0,3,3,0,0,1,0-4.18,2.92,2.92,0,0,1,4.15,0,3,3,0,0,1,0,4.18Zm.18-8.54a2.92,2.92,0,0,1-4.15,0,3,3,0,0,1,0-4.18,2.92,2.92,0,0,1,4.15,0,3,3,0,0,1,0,4.18ZM27.77,92a2.92,2.92,0,0,1-4.15,0,3,3,0,0,1,0-4.18,2.92,2.92,0,0,1,4.15,0,3,3,0,0,1,0,4.18Zm7.61-7.66L22.92,71.77,26,68.64,38.49,81.18Zm22.82-23L45.75,48.78l3.11-3.13L61.31,58.19Zm2.41-19.16a2.92,2.92,0,0,1-4.15,0,3,3,0,0,1,0-4.18,2.92,2.92,0,0,1,4.15,0,3,3,0,0,1,0,4.18Zm8.31,8.36a2.92,2.92,0,0,1-4.15,0,3,3,0,0,1,0-4.18,2.92,2.92,0,0,1,4.15,0,3,3,0,0,1,0,4.18ZM69.1,42A2.92,2.92,0,0,1,65,42a3,3,0,0,1,0-4.18,2.92,2.92,0,0,1,4.15,0,3,3,0,0,1,0,4.18h0Z"/><path class="cls-2" d="M317.87,32.08C333.19,15.23,360,26.9,360,51.28c0,20.27-26.65,46.1-42.13,54.54-11.34-6.17-28.69-21.72-37.15-37.56h4.52a77.67,77.67,0,0,0,5.65,8.32c8.1,10.48,18.82,19.75,27,24.69,8.16-4.92,18.88-14.2,27-24.69,6.5-8.41,11.2-17.46,11.2-25.3a23.61,23.61,0,0,0-7.31-17.69,21,21,0,0,0-6.41-4,19.42,19.42,0,0,0-7.22-1.4,19.2,19.2,0,0,0-14.34,6.63,2.79,2.79,0,0,1-.25.25,3.91,3.91,0,0,1-5.55-.25h0a19.2,19.2,0,0,0-14.35-6.65,19.42,19.42,0,0,0-7.22,1.42A21,21,0,0,0,287,33.61a23.52,23.52,0,0,0-7.31,17.67,24.14,24.14,0,0,0,.83,6h-4.06a27.19,27.19,0,0,1-.72-6C275.75,26.9,302.56,15.23,317.87,32.08Z"/><path class="cls-2" d="M275.75,61h14.45l6.23-5.7a2,2,0,0,1,2.78.14,2,2,0,0,1,.4.68h0L303,65.74l6.23-22A2,2,0,0,1,313,44l6.36,27.91,5.27-19.57a2,2,0,0,1,3.66-.38l5.22,9H339a3.94,3.94,0,0,1,5.24-2,4,4,0,0,1,1.95,5.28,3.94,3.94,0,0,1-6.8.66h-7a2,2,0,0,1-1.71-1l-3.48-6-6.13,22.66h0a2,2,0,0,1-3.83-.08l-6.36-28.24-5.84,20.58h0a2,2,0,0,1-3.75.11L296.9,60.2l-4.5,4.07a2,2,0,0,1-1.46.65h-15.2Z"/><path class="cls-3" d="M170.58,70.35a27.81,27.81,0,0,0,3.14,5.89A94.05,94.05,0,0,0,180,84.36a102.44,102.44,0,0,0,6.28-8.16,27.82,27.82,0,0,0,3.14-5.89,30.6,30.6,0,0,1-18.84,0Zm33.69-9.8c.18-11.9.23-29.9-1.74-40.35C200.19,7.82,193.87,0,180.12,0S160,7.82,157.63,20.21c-2,10.2-2,28.3-1.89,40.37,2.8-1.33,5.55-2.51,7.89-3.5.65-.27,8.69-3.35,11.22-4.33-4.79-3.5-9.33-12.41-10.4-17.8-.58.76-1,3.93-1.16,5.79a17.13,17.13,0,0,1-.53-9.09C164,25,167.3,18.83,172.35,15c5.73,8.67,13.41,10.61,20.83,15.22-.44-1.05-.68-1.62-.71-1.67-6.15-7.59-10-9.61-12.49-12.65,9.17,3.51,14.58,8.12,16.76,16.83a36.49,36.49,0,0,1,.51,12.65c-.32-4.15-1.14-8.44-1.91-10-1.61,6.39-5.66,14.54-9.63,17.35l10.92,4.45c2.28,1,4.92,2.1,7.6,3.37Z"/><path class="cls-3" d="M142.93,73.44c2.43-3.42,8.63-6.9,15-9.89-3.34,9.64-2.33,22.15,1.24,31.23a4.78,4.78,0,0,0,.13,6.72,4.7,4.7,0,0,0,6.68-.13,4.78,4.78,0,0,0-.13-6.72,4.7,4.7,0,0,0-3.65-1.31c-3.45-8.92-4.33-21.84-.2-30.92l.46-.91q2.4-1,4.62-2c.42-.18.61.3.47.57-4.66,9.7,3,18.49,11.07,28.27l-1.88,5.71,3.27-4h0l1.21-1.5c8.12-9.87,15.94-18.72,11.23-28.47-.14-.27,0-.75.47-.57,2.82,1.18,6,2.54,9.18,4a24.09,24.09,0,0,1-.45,9.82c-4.57-.28-8.84,2.45-10.39,7.77-2.09,7.21-9.17,18.51.22,20.64a1.7,1.7,0,0,0,.73-3.3c-2.09-.49-2.36-2.2-1.85-4.46.72-3.26,3-8.21,4.12-11.92,2.56-8.77,14.55-6.05,13.14,3C207,89,207,94.42,206.3,97.63c-.5,2.26-1.44,3.71-3.57,3.23a1.7,1.7,0,0,0-.73,3.3c9.42,2.11,7.81-11.18,9-18.56.85-5.45-1.78-9.67-6-11.46a30,30,0,0,0,.79-8.81c5,2.55,9.42,5.35,11.37,8.11,3.45,4.85,5.08,32.91,6,42.56H136.88C137.78,106.87,139.55,78.19,142.93,73.44Z"/></svg>