<svg id="Layer_1" data-name="Layer 1" xmlns="http://www.w3.org/2000/svg" viewBox="0 0 400 145"><defs><style>.cls-1{fill:#b8e2e2;}.cls-2{fill:#4cbdbc;}.cls-3{fill:#359190;}.cls-4{fill:#aad198;}.cls-5{fill:#71b253;}</style></defs><title>CMWF_Thumb_Master</title><path class="cls-1" d="M335.59,78.25h19.81V146H335.59Zm-69.21,43.93h19.81V146H266.38ZM197,101.85h19.81V146H197Z"/><path class="cls-2" d="M355.39,35.19H375.2V146H355.39Zm-69.21,86.34H306V146H286.18ZM216.76,73.44h19.81V146H216.76Z"/><path class="cls-3" d="M375.2,15.74H395V146H375.2ZM306,108.41H325.8V146H306ZM236.56,54h19.81v92H236.56Z"/><path class="cls-4" d="M125.78,0h21.11V146H125.78ZM65.71,106.66H86.82V146H65.71ZM5.64,44.15H26.53V146H5.64Z"/><path class="cls-5" d="M146.89,108h20.89v38H146.89ZM86.82,135.52h20.89V146H86.82ZM26.53,120H47.64v26H26.53Z"/></svg>