<svg id="Layer_1" data-name="Layer 1" xmlns="http://www.w3.org/2000/svg" viewBox="0 0 197.37 62.37"><defs><style>.cls-1{fill:#71b253;}.cls-2{fill:none;stroke:#fff;stroke-linejoin:round;stroke-width:0.37px;}.cls-3{fill:#8f95a1;}.cls-4{fill:#a2a7b0;}.cls-5{fill:#4d525b;}</style></defs><title>CMWF_Thumb_Master</title><path class="cls-1" d="M1.38,22.49A30.76,30.76,0,1,1,22.47,60.56q-1.37-.39-2.69-.91L26.26,43a12.93,12.93,0,1,0-7.35-16.74q-.22.56-.38,1.13Z"/><path class="cls-2" d="M1.38,22.49A30.76,30.76,0,1,1,22.47,60.56q-1.37-.39-2.69-.91L26.26,43a12.93,12.93,0,1,0-7.35-16.74q-.22.56-.38,1.13Z"/><path class="cls-3" d="M19.78,59.65A30.79,30.79,0,0,1,1.38,22.49l17.15,4.92A12.93,12.93,0,0,0,26.26,43Z"/><path class="cls-2" d="M19.78,59.65A30.79,30.79,0,0,1,1.38,22.49l17.15,4.92A12.93,12.93,0,0,0,26.26,43Z"/><path class="cls-4" d="M1.38,22.49l17.15,4.92Z"/><path class="cls-2" d="M1.38,22.49l17.15,4.92Z"/><path class="cls-1" d="M69.12,22.92A30.75,30.75,0,0,1,120.82,10L108,22.42a12.92,12.92,0,0,0-21.71,5.42Z"/><path class="cls-2" d="M69.12,22.92A30.75,30.75,0,0,1,120.82,10L108,22.42a12.92,12.92,0,0,0-21.71,5.42Z"/><path class="cls-3" d="M120.82,10a30.77,30.77,0,1,1-51.7,12.9l17.15,4.92A12.92,12.92,0,1,0,108,22.42Z"/><path class="cls-2" d="M120.82,10a30.77,30.77,0,1,1-51.7,12.9l17.15,4.92A12.92,12.92,0,1,0,108,22.42Z"/><path class="cls-4" d="M69.12,22.92l17.15,4.92Z"/><path class="cls-2" d="M69.12,22.92l17.15,4.92Z"/><path class="cls-1" d="M136.85,22.6a30.75,30.75,0,0,1,51.7-12.9L175.72,22.1A12.92,12.92,0,0,0,154,27.52Z"/><path class="cls-2" d="M136.85,22.6a30.75,30.75,0,0,1,51.7-12.9L175.72,22.1A12.92,12.92,0,0,0,154,27.52Z"/><path class="cls-3" d="M188.55,9.7a30.77,30.77,0,1,1-52.77,24.16l17.77-1.61A12.92,12.92,0,1,0,175.72,22.1Z"/><path class="cls-2" d="M188.55,9.7a30.77,30.77,0,1,1-52.77,24.16l17.77-1.61A12.92,12.92,0,1,0,175.72,22.1Z"/><path class="cls-5" d="M135.79,33.86a30.8,30.8,0,0,1,1.07-11.26L154,27.52a12.94,12.94,0,0,0-.45,4.73Z"/><path class="cls-2" d="M135.79,33.86a30.8,30.8,0,0,1,1.07-11.26L154,27.52a12.94,12.94,0,0,0-.45,4.73Z"/></svg>