<svg id="Layer_1" data-name="Layer 1" xmlns="http://www.w3.org/2000/svg" viewBox="0 0 196 58"><defs><style>.cls-1,.cls-2{fill:none;stroke-linejoin:round;}.cls-1{stroke:#e4e5e7;stroke-linecap:round;stroke-width:0.66px;}.cls-2{stroke:#dbdce0;stroke-width:0.33px;}.cls-3{fill:#4cbdbc;}.cls-4{fill:#359190;}</style></defs><title>CMWF_Thumb_Master</title><line class="cls-1" y1="58" x2="196" y2="58"/><path class="cls-2" d="M194.08,1.44V58m-3.8-52.47V58M186.34,6.6V58M182.51,7.58V58M178.68,8.65V58M174.85,9.63V58M171,10.7V58m-3.83-43.2V58m-3.83-43.2V58m-3.83-42.13V58m-3.83-41.16V58m-3.93-41.16V58m-3.83-41.16V58M144.1,16.84V58m-3.83-41.16V58m-3.83-40.08V58m-3.83-40.08V58m-3.83-38V58m-3.83-38V58M121,20V58m-3.83-37.06V58m-3.83-36V58m-3.83-36V58m-3.83-35V58m-3.83-35V58M98,23V58M94.19,23V58M90.36,24.06V58M86.43,24.06V58M82.6,24.06V58M78.77,24.06V58M74.94,25.13V58M71.1,26.11V58M67.27,26.11V58M63.44,26.11V58M59.61,26.11V58M55.68,28.15V58M51.85,29.23V58M48,31.27V58M44.19,31.27V58M40.35,32.25V58M36.52,33.32V58M32.69,34.3V58M28.86,34.3V58M25,35.37V58M21.1,38.49V58M17.27,39.47V58M13.43,40.54V58M9.6,40.54V58M5.77,42.59V58M1.92,45.71V58"/><ellipse class="cls-3" cx="1.93" cy="45.64" rx="1.47" ry="1.46"/><ellipse class="cls-3" cx="5.76" cy="42.61" rx="1.47" ry="1.46"/><ellipse class="cls-3" cx="9.59" cy="40.57" rx="1.47" ry="1.46"/><ellipse class="cls-3" cx="13.43" cy="40.57" rx="1.47" ry="1.46"/><ellipse class="cls-3" cx="17.26" cy="39.49" rx="1.47" ry="1.46"/><ellipse class="cls-3" cx="21.09" cy="38.52" rx="1.47" ry="1.46"/><ellipse class="cls-3" cx="24.92" cy="35.4" rx="1.47" ry="1.46"/><ellipse class="cls-3" cx="28.85" cy="34.33" rx="1.47" ry="1.46"/><ellipse class="cls-3" cx="32.68" cy="34.33" rx="1.47" ry="1.46"/><ellipse class="cls-3" cx="36.51" cy="33.35" rx="1.47" ry="1.46"/><ellipse class="cls-3" cx="40.35" cy="32.28" rx="1.47" ry="1.46"/><ellipse class="cls-3" cx="44.18" cy="31.3" rx="1.47" ry="1.46"/><ellipse class="cls-3" cx="48.01" cy="31.3" rx="1.47" ry="1.46"/><ellipse class="cls-3" cx="51.84" cy="29.26" rx="1.47" ry="1.46"/><ellipse class="cls-3" cx="55.67" cy="28.18" rx="1.47" ry="1.46"/><ellipse class="cls-3" cx="59.6" cy="26.13" rx="1.47" ry="1.46"/><ellipse class="cls-3" cx="63.44" cy="26.13" rx="1.47" ry="1.46"/><ellipse class="cls-3" cx="67.27" cy="26.13" rx="1.47" ry="1.46"/><ellipse class="cls-3" cx="71.1" cy="26.13" rx="1.47" ry="1.46"/><ellipse class="cls-3" cx="74.93" cy="25.16" rx="1.47" ry="1.46"/><ellipse class="cls-3" cx="78.76" cy="24.09" rx="1.47" ry="1.46"/><ellipse class="cls-3" cx="82.6" cy="24.09" rx="1.47" ry="1.46"/><ellipse class="cls-3" cx="86.43" cy="24.09" rx="1.47" ry="1.46"/><ellipse class="cls-3" cx="90.26" cy="24.09" rx="1.47" ry="1.46"/><ellipse class="cls-3" cx="94.19" cy="23.01" rx="1.47" ry="1.46"/><ellipse class="cls-3" cx="98.02" cy="23.01" rx="1.47" ry="1.46"/><ellipse class="cls-3" cx="101.85" cy="23.01" rx="1.47" ry="1.46"/><ellipse class="cls-3" cx="105.68" cy="23.01" rx="1.47" ry="1.46"/><ellipse class="cls-3" cx="109.52" cy="22.04" rx="1.47" ry="1.46"/><ellipse class="cls-3" cx="113.35" cy="22.04" rx="1.47" ry="1.46"/><ellipse class="cls-3" cx="117.18" cy="20.97" rx="1.47" ry="1.46"/><ellipse class="cls-3" cx="121.01" cy="19.99" rx="1.47" ry="1.46"/><ellipse class="cls-3" cx="124.84" cy="19.99" rx="1.47" ry="1.46"/><ellipse class="cls-3" cx="128.77" cy="19.99" rx="1.47" ry="1.46"/><ellipse class="cls-3" cx="132.61" cy="17.94" rx="1.47" ry="1.46"/><ellipse class="cls-3" cx="136.44" cy="17.94" rx="1.47" ry="1.46"/><ellipse class="cls-3" cx="140.27" cy="16.87" rx="1.47" ry="1.46"/><ellipse class="cls-3" cx="144.1" cy="16.87" rx="1.47" ry="1.46"/><ellipse class="cls-3" cx="147.93" cy="16.87" rx="1.47" ry="1.46"/><ellipse class="cls-3" cx="151.76" cy="16.87" rx="1.47" ry="1.46"/><ellipse class="cls-3" cx="155.6" cy="16.87" rx="1.47" ry="1.46"/><ellipse class="cls-3" cx="159.53" cy="15.9" rx="1.47" ry="1.46"/><ellipse class="cls-3" cx="163.36" cy="14.82" rx="1.47" ry="1.46"/><ellipse class="cls-3" cx="167.19" cy="14.82" rx="1.47" ry="1.46"/><ellipse class="cls-3" cx="171.02" cy="10.73" rx="1.47" ry="1.46"/><ellipse class="cls-3" cx="174.85" cy="9.65" rx="1.47" ry="1.46"/><ellipse class="cls-3" cx="178.69" cy="8.68" rx="1.47" ry="1.46"/><ellipse class="cls-3" cx="182.52" cy="7.61" rx="1.47" ry="1.46"/><ellipse class="cls-3" cx="186.35" cy="6.63" rx="1.47" ry="1.46"/><ellipse class="cls-3" cx="190.18" cy="5.56" rx="1.47" ry="1.46"/><ellipse class="cls-3" cx="194.11" cy="1.46" rx="1.47" ry="1.46"/><ellipse class="cls-4" cx="1.93" cy="47.78" rx="1.47" ry="1.46"/><ellipse class="cls-4" cx="5.76" cy="43.59" rx="1.47" ry="1.46"/><ellipse class="cls-4" cx="9.59" cy="42.61" rx="1.47" ry="1.46"/><ellipse class="cls-4" cx="13.43" cy="42.61" rx="1.47" ry="1.46"/><ellipse class="cls-4" cx="17.26" cy="43.59" rx="1.47" ry="1.46"/><ellipse class="cls-4" cx="21.09" cy="41.54" rx="1.47" ry="1.46"/><ellipse class="cls-4" cx="24.92" cy="38.52" rx="1.47" ry="1.46"/><ellipse class="cls-4" cx="28.85" cy="38.52" rx="1.47" ry="1.46"/><ellipse class="cls-4" cx="32.68" cy="37.45" rx="1.47" ry="1.46"/><ellipse class="cls-4" cx="36.51" cy="38.52" rx="1.47" ry="1.46"/><ellipse class="cls-4" cx="40.35" cy="36.47" rx="1.47" ry="1.46"/><ellipse class="cls-4" cx="44.18" cy="34.33" rx="1.47" ry="1.46"/><ellipse class="cls-4" cx="48.01" cy="36.47" rx="1.47" ry="1.46"/><ellipse class="cls-4" cx="51.84" cy="31.3" rx="1.47" ry="1.46"/><ellipse class="cls-4" cx="55.67" cy="34.33" rx="1.47" ry="1.46"/><ellipse class="cls-4" cx="59.6" cy="30.23" rx="1.47" ry="1.46"/><ellipse class="cls-4" cx="63.44" cy="31.3" rx="1.47" ry="1.46"/><ellipse class="cls-4" cx="67.27" cy="32.28" rx="1.47" ry="1.46"/><ellipse class="cls-4" cx="71.1" cy="31.3" rx="1.47" ry="1.46"/><ellipse class="cls-4" cx="74.93" cy="29.26" rx="1.47" ry="1.46"/><ellipse class="cls-4" cx="78.76" cy="30.23" rx="1.47" ry="1.46"/><ellipse class="cls-4" cx="82.6" cy="29.26" rx="1.47" ry="1.46"/><ellipse class="cls-4" cx="86.43" cy="29.26" rx="1.47" ry="1.46"/><ellipse class="cls-4" cx="90.26" cy="29.26" rx="1.47" ry="1.46"/><ellipse class="cls-4" cx="94.19" cy="27.21" rx="1.47" ry="1.46"/><ellipse class="cls-4" cx="98.02" cy="26.13" rx="1.47" ry="1.46"/><ellipse class="cls-4" cx="101.85" cy="30.23" rx="1.47" ry="1.46"/><ellipse class="cls-4" cx="105.68" cy="30.23" rx="1.47" ry="1.46"/><ellipse class="cls-4" cx="109.52" cy="30.23" rx="1.47" ry="1.46"/><ellipse class="cls-4" cx="113.35" cy="29.26" rx="1.47" ry="1.46"/><ellipse class="cls-4" cx="117.18" cy="29.26" rx="1.47" ry="1.46"/><ellipse class="cls-4" cx="121.01" cy="25.16" rx="1.47" ry="1.46"/><ellipse class="cls-4" cx="124.84" cy="25.16" rx="1.47" ry="1.46"/><ellipse class="cls-4" cx="128.77" cy="28.18" rx="1.47" ry="1.46"/><ellipse class="cls-4" cx="132.61" cy="24.09" rx="1.47" ry="1.46"/><ellipse class="cls-4" cx="136.44" cy="24.09" rx="1.47" ry="1.46"/><ellipse class="cls-4" cx="140.27" cy="18.92" rx="1.47" ry="1.46"/><ellipse class="cls-4" cx="144.1" cy="25.16" rx="1.47" ry="1.46"/><ellipse class="cls-4" cx="147.93" cy="25.16" rx="1.47" ry="1.46"/><ellipse class="cls-4" cx="151.76" cy="25.16" rx="1.47" ry="1.46"/><ellipse class="cls-4" cx="155.6" cy="25.16" rx="1.47" ry="1.46"/><ellipse class="cls-4" cx="159.53" cy="22.04" rx="1.47" ry="1.46"/><ellipse class="cls-4" cx="163.36" cy="22.04" rx="1.47" ry="1.46"/><ellipse class="cls-4" cx="167.19" cy="20.97" rx="1.47" ry="1.46"/><ellipse class="cls-4" cx="171.02" cy="22.04" rx="1.47" ry="1.46"/><ellipse class="cls-4" cx="174.85" cy="16.87" rx="1.47" ry="1.46"/><ellipse class="cls-4" cx="178.69" cy="15.9" rx="1.47" ry="1.46"/><ellipse class="cls-4" cx="182.52" cy="16.87" rx="1.47" ry="1.46"/><ellipse class="cls-4" cx="186.35" cy="19.99" rx="1.47" ry="1.46"/><ellipse class="cls-4" cx="190.18" cy="18.92" rx="1.47" ry="1.46"/><ellipse class="cls-4" cx="194.11" cy="13.85" rx="1.47" ry="1.46"/></svg>