<svg id="Layer_1" data-name="Layer 1" xmlns="http://www.w3.org/2000/svg" viewBox="0 0 170 73"><defs><style>.cls-1{fill:#71b253;}.cls-2{fill:none;stroke:#fff;stroke-linejoin:round;stroke-width:0.42px;}.cls-3{fill:#8f95a1;}.cls-4{fill:#a2a7b0;}.cls-5{fill:#4d525b;}</style></defs><title>CMWF_Thumb_Master</title><path class="cls-1" d="M2.19,24a36.52,36.52,0,1,1-.91,22.11l20.36-5.58A15.33,15.33,0,1,0,22,31.26Z"/><path class="cls-2" d="M2.19,24a36.52,36.52,0,1,1-.91,22.11l20.36-5.58A15.33,15.33,0,1,0,22,31.26Z"/><path class="cls-3" d="M1.29,46.13A36.58,36.58,0,0,1,2.19,24L22,31.26a15.36,15.36,0,0,0-.38,9.28Z"/><path class="cls-2" d="M1.29,46.13A36.58,36.58,0,0,1,2.19,24L22,31.26a15.36,15.36,0,0,0-.38,9.28Z"/><path class="cls-4" d="M2.19,24,22,31.26Z"/><path class="cls-2" d="M2.19,24,22,31.26Z"/><path class="cls-1" d="M98.61,26.44a36.37,36.37,0,0,1,70,.14l-20.32,5.75a15.28,15.28,0,0,0-29.4-.06Z"/><path class="cls-2" d="M98.61,26.44a36.37,36.37,0,0,1,70,.14l-20.32,5.75a15.28,15.28,0,0,0-29.4-.06Z"/><path class="cls-3" d="M168.62,26.59A36.4,36.4,0,0,1,109,63.42L123.27,47.8a15.29,15.29,0,0,0,25-15.47Z"/><path class="cls-2" d="M168.62,26.59A36.4,36.4,0,0,1,109,63.42L123.27,47.8a15.29,15.29,0,0,0,25-15.47Z"/><path class="cls-5" d="M109,63.42a36.55,36.55,0,0,1-10.41-37l20.29,5.83a15.35,15.35,0,0,0,4.37,15.53Z"/><path class="cls-2" d="M109,63.42a36.55,36.55,0,0,1-10.41-37l20.29,5.83a15.35,15.35,0,0,0,4.37,15.53Z"/></svg>