<svg id="Layer_1" data-name="Layer 1" xmlns="http://www.w3.org/2000/svg" viewBox="0 0 390 186"><defs><style>.cls-1,.cls-2{fill:none;stroke-linejoin:round;}.cls-1{stroke:#e4e5e7;stroke-linecap:round;stroke-width:2.5px;}.cls-2{stroke:#dbdce0;stroke-width:1.25px;}.cls-3{fill:#4cbdbc;}.cls-4{fill:#359190;}</style></defs><title>CMWF_Thumb_Master</title><line class="cls-1" y1="186" x2="390" y2="186"/><line class="cls-2" x1="383.43" y1="153.81" x2="383.43" y2="186"/><line class="cls-2" x1="369.58" y1="134.52" x2="369.58" y2="186"/><line class="cls-2" x1="355.73" y1="121.77" x2="355.73" y2="186"/><line class="cls-2" x1="341.52" y1="121.77" x2="341.52" y2="186"/><line class="cls-2" x1="327.67" y1="115.22" x2="327.67" y2="186"/><line class="cls-2" x1="313.83" y1="108.67" x2="313.83" y2="186"/><line class="cls-2" x1="299.61" y1="102.48" x2="299.61" y2="186"/><line class="cls-2" x1="285.76" y1="95.92" x2="285.76" y2="186"/><line class="cls-2" x1="271.92" y1="95.92" x2="271.92" y2="186"/><line class="cls-2" x1="258.07" y1="95.92" x2="258.07" y2="186"/><line class="cls-2" x1="243.85" y1="95.92" x2="243.85" y2="186"/><line class="cls-2" x1="230.01" y1="89.37" x2="230.01" y2="186"/><line class="cls-2" x1="216.16" y1="83.18" x2="216.16" y2="186"/><line class="cls-2" x1="202.31" y1="83.18" x2="202.31" y2="186"/><line class="cls-2" x1="188.1" y1="83.18" x2="188.1" y2="186"/><line class="cls-2" x1="174.25" y1="76.63" x2="174.25" y2="186"/><line class="cls-2" x1="160.4" y1="70.07" x2="160.4" y2="186"/><line class="cls-2" x1="146.55" y1="63.88" x2="146.55" y2="186"/><line class="cls-2" x1="132.34" y1="63.88" x2="132.34" y2="186"/><line class="cls-2" x1="118.49" y1="57.33" x2="118.49" y2="186"/><line class="cls-2" x1="104.64" y1="57.33" x2="104.64" y2="186"/><line class="cls-2" x1="90.79" y1="50.77" x2="90.79" y2="186"/><line class="cls-2" x1="76.58" y1="50.77" x2="76.58" y2="186"/><line class="cls-2" x1="62.73" y1="31.48" x2="62.73" y2="186"/><line class="cls-2" x1="48.88" y1="31.48" x2="48.88" y2="186"/><line class="cls-2" x1="35.04" y1="31.48" x2="35.04" y2="186"/><line class="cls-2" x1="20.82" y1="12.18" x2="20.82" y2="186"/><line class="cls-2" x1="6.97" y1="5.99" x2="6.97" y2="186"/><ellipse class="cls-3" cx="7.12" cy="5.46" rx="5.47" ry="5.46"/><ellipse class="cls-3" cx="20.97" cy="12.02" rx="5.47" ry="5.46"/><ellipse class="cls-3" cx="34.82" cy="31.31" rx="5.47" ry="5.46"/><ellipse class="cls-3" cx="49.03" cy="31.31" rx="5.47" ry="5.46"/><ellipse class="cls-3" cx="62.88" cy="31.31" rx="5.47" ry="5.46"/><ellipse class="cls-3" cx="76.73" cy="50.61" rx="5.47" ry="5.46"/><ellipse class="cls-3" cx="90.94" cy="50.61" rx="5.47" ry="5.46"/><ellipse class="cls-3" cx="104.79" cy="57.17" rx="5.47" ry="5.46"/><ellipse class="cls-3" cx="118.64" cy="57.17" rx="5.47" ry="5.46"/><ellipse class="cls-3" cx="132.49" cy="63.72" rx="5.47" ry="5.46"/><ellipse class="cls-3" cx="146.71" cy="63.72" rx="5.47" ry="5.46"/><ellipse class="cls-3" cx="160.56" cy="69.91" rx="5.47" ry="5.46"/><ellipse class="cls-3" cx="174.41" cy="76.46" rx="5.47" ry="5.46"/><ellipse class="cls-3" cx="188.25" cy="83.02" rx="5.47" ry="5.46"/><ellipse class="cls-3" cx="202.47" cy="83.02" rx="5.47" ry="5.46"/><ellipse class="cls-3" cx="216.32" cy="83.02" rx="5.47" ry="5.46"/><ellipse class="cls-3" cx="230.17" cy="89.21" rx="5.47" ry="5.46"/><ellipse class="cls-3" cx="244.02" cy="95.76" rx="5.47" ry="5.46"/><ellipse class="cls-3" cx="258.23" cy="95.76" rx="5.47" ry="5.46"/><ellipse class="cls-3" cx="272.08" cy="95.76" rx="5.47" ry="5.46"/><ellipse class="cls-3" cx="285.93" cy="95.76" rx="5.47" ry="5.46"/><ellipse class="cls-3" cx="299.78" cy="102.32" rx="5.47" ry="5.46"/><ellipse class="cls-3" cx="313.99" cy="108.51" rx="5.47" ry="5.46"/><ellipse class="cls-3" cx="327.84" cy="115.06" rx="5.47" ry="5.46"/><ellipse class="cls-3" cx="341.69" cy="121.62" rx="5.47" ry="5.46"/><ellipse class="cls-3" cx="355.54" cy="121.62" rx="5.47" ry="5.46"/><ellipse class="cls-3" cx="369.76" cy="134.36" rx="5.47" ry="5.46"/><ellipse class="cls-3" cx="383.6" cy="153.66" rx="5.47" ry="5.46"/><ellipse class="cls-4" cx="7.12" cy="83.02" rx="5.47" ry="5.46"/><ellipse class="cls-4" cx="20.97" cy="76.46" rx="5.47" ry="5.46"/><ellipse class="cls-4" cx="34.82" cy="89.21" rx="5.47" ry="5.46"/><ellipse class="cls-4" cx="49.03" cy="95.76" rx="5.47" ry="5.46"/><ellipse class="cls-4" cx="62.88" cy="108.51" rx="5.47" ry="5.46"/><ellipse class="cls-4" cx="76.73" cy="134.36" rx="5.47" ry="5.46"/><ellipse class="cls-4" cx="90.94" cy="121.62" rx="5.47" ry="5.46"/><ellipse class="cls-4" cx="104.79" cy="127.81" rx="5.47" ry="5.46"/><ellipse class="cls-4" cx="118.64" cy="134.36" rx="5.47" ry="5.46"/><ellipse class="cls-4" cx="132.49" cy="115.06" rx="5.47" ry="5.46"/><ellipse class="cls-4" cx="146.71" cy="108.51" rx="5.47" ry="5.46"/><ellipse class="cls-4" cx="160.56" cy="121.62" rx="5.47" ry="5.46"/><ellipse class="cls-4" cx="174.41" cy="140.91" rx="5.47" ry="5.46"/><ellipse class="cls-4" cx="188.25" cy="127.81" rx="5.47" ry="5.46"/><ellipse class="cls-4" cx="202.47" cy="121.62" rx="5.47" ry="5.46"/><ellipse class="cls-4" cx="216.32" cy="127.81" rx="5.47" ry="5.46"/><ellipse class="cls-4" cx="230.17" cy="121.62" rx="5.47" ry="5.46"/><ellipse class="cls-4" cx="244.02" cy="134.36" rx="5.47" ry="5.46"/><ellipse class="cls-4" cx="258.23" cy="127.81" rx="5.47" ry="5.46"/><ellipse class="cls-4" cx="272.08" cy="127.81" rx="5.47" ry="5.46"/><ellipse class="cls-4" cx="285.93" cy="127.81" rx="5.47" ry="5.46"/><ellipse class="cls-4" cx="299.78" cy="134.36" rx="5.47" ry="5.46"/><ellipse class="cls-4" cx="313.99" cy="140.91" rx="5.47" ry="5.46"/><ellipse class="cls-4" cx="327.84" cy="147.1" rx="5.47" ry="5.46"/><ellipse class="cls-4" cx="341.69" cy="147.1" rx="5.47" ry="5.46"/><ellipse class="cls-4" cx="355.54" cy="147.1" rx="5.47" ry="5.46"/><ellipse class="cls-4" cx="369.76" cy="153.66" rx="5.47" ry="5.46"/><ellipse class="cls-4" cx="383.6" cy="160.21" rx="5.47" ry="5.46"/></svg>