<svg id="Layer_1" data-name="Layer 1" xmlns="http://www.w3.org/2000/svg" viewBox="0 0 610 400"><defs><style>.cls-1,.cls-2,.cls-4,.cls-6,.cls-8{fill:none;stroke-linecap:round;stroke-linejoin:round;}.cls-1{stroke:#e3e4e6;stroke-width:2px;}.cls-2{stroke:#8e94a0;}.cls-2,.cls-4,.cls-6,.cls-8{stroke-width:2.5px;}.cls-3{fill:#8e94a0;}.cls-4{stroke:#4bbcbb;}.cls-5{fill:#4bbcbb;}.cls-6{stroke:#054d7f;}.cls-7{fill:#054d7f;}.cls-8{stroke:#71b152;}.cls-9{fill:#71b152;}</style></defs><title>2017StateScorecard_exhibits_thumbnails_v2</title><line class="cls-1" x1="18.33" y1="372.4" x2="594.83" y2="372.4"/><polyline class="cls-2" points="18.7 225.47 133.2 233.24 247.74 239.75 362.28 243.97 476.82 250.57 591.35 250.09"/><circle class="cls-3" cx="18.62" cy="225.59" r="3.45"/><circle class="cls-3" cx="133.17" cy="233.25" r="3.45"/><circle class="cls-3" cx="247.72" cy="239.76" r="3.45"/><circle class="cls-3" cx="362.28" cy="243.98" r="3.45"/><circle class="cls-3" cx="476.83" cy="250.49" r="3.45"/><circle class="cls-3" cx="591.38" cy="250.11" r="3.45"/><polyline class="cls-4" points="18.7 239.46 133.2 246.65 247.74 252.01 362.28 255.46 476.82 259.91 591.35 258.91"/><circle class="cls-5" cx="18.62" cy="239.38" r="3.45"/><circle class="cls-5" cx="133.17" cy="246.66" r="3.45"/><circle class="cls-5" cx="247.72" cy="252.02" r="3.45"/><circle class="cls-5" cx="362.28" cy="255.47" r="3.45"/><circle class="cls-5" cx="476.83" cy="260.07" r="3.45"/><circle class="cls-5" cx="591.38" cy="258.92" r="3.45"/><polyline class="cls-6" points="18.7 84.39 133.2 101.07 247.74 114.87 362.28 124.44 476.82 144.75 591.35 147.56"/><circle class="cls-7" cx="18.62" cy="84.22" r="3.45"/><circle class="cls-7" cx="133.17" cy="101.07" r="3.45"/><circle class="cls-7" cx="247.72" cy="114.87" r="3.45"/><circle class="cls-7" cx="362.28" cy="124.44" r="3.45"/><circle class="cls-7" cx="476.83" cy="144.75" r="3.45"/><circle class="cls-7" cx="591.38" cy="147.43" r="3.45"/><polyline class="cls-8" points="18.7 250.47 133.2 256.61 247.74 264.27 362.28 265.8 476.82 276.24 591.35 275.76"/><circle class="cls-9" cx="18.62" cy="250.49" r="3.45"/><circle class="cls-9" cx="133.17" cy="256.62" r="3.45"/><circle class="cls-9" cx="247.72" cy="264.28" r="3.45"/><circle class="cls-9" cx="362.28" cy="265.81" r="3.45"/><circle class="cls-9" cx="476.83" cy="276.16" r="3.45"/><circle class="cls-9" cx="591.38" cy="275.78" r="3.45"/></svg>